{"glyphs":{"0":{"ha":772,"x_min":0,"x_max":0,"o":"m 381 998 b 156 897 285 998 210 964 b 58 492 91 814 58 680 b 147 95 58 302 88 169 b 381 -17 206 20 284 -17 b 606 85 477 -17 552 17 b 704 490 671 167 704 302 b 607 895 704 679 672 814 b 381 998 553 964 477 998 z m 381 840 b 443 818 404 840 425 833 b 487 731 460 804 475 774 b 505 490 499 687 505 607 b 485 242 505 374 498 291 b 443 163 475 204 461 178 b 381 141 425 148 404 141 b 320 163 358 141 338 148 b 275 250 302 177 287 206 b 258 490 264 294 258 374 b 277 739 258 607 264 690 b 319 818 287 777 301 804 b 381 840 338 833 358 840 z "},"1":{"ha":772,"x_min":0,"x_max":0,"o":"m 547 0 l 547 998 l 392 998 b 272 839 370 938 330 885 b 110 747 214 794 160 763 l 110 574 b 356 718 204 605 286 653 l 356 0 z "},"2":{"ha":772,"x_min":0,"x_max":0,"o":"m 703 177 l 324 177 b 363 230 334 194 347 212 b 477 340 379 248 417 285 b 602 467 538 395 579 437 b 679 594 637 511 662 553 b 703 722 695 634 703 677 b 618 919 703 800 675 866 b 387 998 562 972 485 998 b 163 930 298 998 223 975 b 57 704 104 884 68 809 l 247 685 b 288 804 250 741 264 780 b 382 840 311 828 343 840 b 477 806 423 840 454 829 b 511 708 500 783 511 751 b 472 591 511 670 498 631 b 314 429 453 563 400 509 b 100 190 207 330 136 250 b 35 0 64 130 42 67 l 703 0 z "},"3":{"ha":772,"x_min":0,"x_max":0,"o":"m 52 264 b 155 61 62 180 96 112 b 379 -17 215 9 289 -17 b 617 75 474 -17 553 14 b 713 298 681 137 713 211 b 662 452 713 359 696 410 b 525 534 627 495 582 522 b 668 743 620 586 668 656 b 598 909 668 805 645 860 b 373 998 542 968 467 998 b 225 967 318 998 269 988 b 122 883 181 947 146 919 b 66 739 97 847 79 799 l 242 709 b 284 808 247 752 261 785 b 368 842 307 830 335 842 b 447 812 401 842 427 832 b 477 732 467 792 477 765 b 436 637 477 692 463 661 b 318 604 409 613 370 602 l 297 448 b 385 463 331 458 360 463 b 479 420 422 463 453 448 b 517 307 505 392 517 354 b 477 186 517 256 504 216 b 378 141 450 156 417 141 b 284 178 341 141 310 153 b 237 286 258 203 243 239 z "},"4":{"ha":772,"x_min":0,"x_max":0,"o":"m 433 0 l 617 0 l 617 200 l 741 200 l 741 368 l 617 368 l 617 998 l 457 998 l 26 367 l 26 200 l 433 200 z m 433 368 l 204 368 l 433 707 z "},"5":{"ha":772,"x_min":0,"x_max":0,"o":"m 62 256 b 165 57 73 172 108 106 b 390 -17 223 8 298 -17 b 659 115 505 -17 595 27 b 730 334 707 179 730 252 b 642 573 730 432 701 512 b 427 665 583 635 512 665 b 297 633 383 665 340 655 l 327 802 l 686 802 l 686 981 l 182 981 l 85 463 l 239 441 b 387 513 283 489 332 513 b 493 468 430 513 466 498 b 534 330 521 437 534 391 b 493 184 534 265 521 216 b 392 136 465 152 432 136 b 300 173 357 136 326 148 b 252 275 273 198 257 232 z "},"6":{"ha":772,"x_min":0,"x_max":0,"o":"m 705 751 b 610 935 691 831 660 893 b 422 998 561 977 498 998 b 160 878 315 998 227 958 b 59 484 93 797 59 666 b 156 100 59 306 91 178 b 404 -17 221 22 303 -17 b 633 75 497 -17 574 14 b 723 320 693 137 723 218 b 638 555 723 416 695 494 b 433 646 581 615 513 646 b 256 562 363 646 304 618 b 309 787 264 676 281 751 b 411 842 337 824 371 842 b 485 814 441 842 466 833 b 520 730 504 796 516 768 z m 273 335 b 311 462 273 391 285 433 b 404 505 336 491 367 505 b 498 460 441 505 473 490 b 536 318 524 430 536 383 b 501 182 536 255 525 210 b 413 141 478 155 448 141 b 315 192 376 141 344 158 b 273 335 287 225 273 273 z "},"7":{"ha":772,"x_min":0,"x_max":0,"o":"m 59 804 l 492 804 b 278 420 403 691 331 563 b 193 0 224 278 196 137 l 376 0 b 419 299 376 88 390 187 b 547 614 449 410 491 515 b 711 842 602 713 657 789 l 711 981 l 59 981 z "},"8":{"ha":772,"x_min":0,"x_max":0,"o":"m 222 536 b 96 432 165 512 123 477 b 56 284 70 387 56 338 b 163 54 56 186 92 110 b 389 -18 223 6 298 -18 b 622 68 486 -18 564 11 b 710 292 681 126 710 201 b 667 439 710 348 696 397 b 541 536 638 482 596 514 b 642 619 585 555 618 583 b 678 742 666 655 678 696 b 600 926 678 816 652 877 b 380 998 548 974 474 998 b 159 926 284 998 211 974 b 81 742 107 877 81 816 b 115 622 81 699 93 659 b 222 536 137 586 173 557 z m 262 728 b 294 814 262 764 273 793 b 382 847 316 836 345 847 b 467 815 417 847 445 836 b 499 729 488 793 499 765 b 467 640 499 691 488 661 b 380 608 445 618 416 608 b 294 640 344 608 315 618 b 262 728 273 661 262 690 z m 244 302 b 278 407 244 340 256 375 b 382 455 301 439 336 455 b 482 413 423 455 456 441 b 522 300 508 384 522 347 b 483 178 522 247 509 206 b 385 136 457 150 425 136 b 284 180 345 136 311 150 b 244 302 258 209 244 250 z "},"9":{"ha":772,"x_min":0,"x_max":0,"o":"m 63 230 b 155 44 77 148 107 86 b 344 -18 203 3 266 -18 b 607 103 452 -18 540 23 b 708 496 674 184 708 315 b 611 881 708 675 676 803 b 363 998 546 959 464 998 b 134 906 270 998 194 967 b 44 662 74 844 44 763 b 129 426 44 565 72 487 b 332 336 186 366 253 336 b 511 419 404 336 463 363 b 458 194 504 305 486 230 b 358 140 431 158 397 140 b 283 167 327 140 302 149 b 248 250 264 185 252 213 z m 494 646 b 457 519 494 590 482 548 b 364 475 432 490 401 475 b 269 520 326 475 295 490 b 231 662 244 551 231 598 b 266 799 231 725 243 771 b 354 840 289 826 319 840 b 452 789 391 840 424 823 b 494 646 480 755 494 708 z "}," ":{"ha":386,"x_min":0,"x_max":0,"o":""},"!":{"ha":463,"x_min":0,"x_max":0,"o":"m 174 256 l 282 256 l 331 761 l 331 994 l 125 994 l 125 761 z m 133 0 l 323 0 l 323 191 l 133 191 z "},"\"":{"ha":659,"x_min":0,"x_max":0,"o":"m 112 641 l 252 641 l 283 826 l 283 994 l 76 994 l 76 826 z m 418 641 l 558 641 l 589 826 l 589 994 l 382 994 l 382 826 z "},"#":{"ha":772,"x_min":0,"x_max":0,"o":"m 104 248 l 51 -17 l 204 -17 l 258 248 l 408 248 l 356 -17 l 507 -17 l 561 248 l 756 248 l 756 397 l 591 397 l 632 597 l 756 597 l 756 747 l 663 747 l 717 1011 l 559 1011 l 507 747 l 357 747 l 411 1011 l 259 1011 l 205 747 l 12 747 l 12 597 l 175 597 l 134 397 l 12 397 l 12 248 z m 328 597 l 477 597 l 438 397 l 288 397 z "},"$":{"ha":772,"x_min":0,"x_max":0,"o":"m 332 147 b 265 204 307 159 285 178 b 224 298 245 230 232 262 l 47 279 b 141 72 61 190 92 121 b 332 -16 190 23 253 -6 l 332 -139 l 430 -139 l 430 -12 b 636 91 518 0 587 35 b 711 298 686 147 711 216 b 652 478 711 371 691 431 b 430 592 612 525 538 563 l 430 857 b 511 749 474 838 501 802 l 683 771 b 602 933 671 839 644 893 b 430 1007 559 974 502 998 l 430 1074 l 332 1074 l 332 1007 b 145 920 254 999 192 970 b 75 733 98 870 75 807 b 137 546 75 660 95 598 b 332 431 178 495 243 457 z m 332 859 l 332 625 b 266 674 302 637 280 654 b 244 741 251 695 244 717 b 268 813 244 767 252 791 b 332 859 284 835 305 850 z m 430 138 l 430 402 b 518 352 471 390 500 374 b 545 273 536 330 545 304 b 513 185 545 239 534 210 b 430 138 491 160 464 144 z "},"%":{"ha":1235,"x_min":0,"x_max":0,"o":"m 60 749 b 119 550 60 659 80 593 b 281 486 158 508 212 486 b 440 551 348 486 401 508 b 499 749 480 594 499 660 b 440 947 499 838 480 904 b 278 1011 401 990 347 1011 b 119 947 211 1011 158 990 b 60 749 80 904 60 838 z m 209 750 b 231 880 209 815 216 858 b 278 905 243 897 258 905 b 326 880 298 905 314 896 b 347 750 340 858 347 815 b 326 620 347 685 340 642 b 278 595 314 604 298 595 b 231 620 258 595 243 604 b 209 750 216 642 209 685 z m 423 -38 l 949 1011 l 812 1011 l 282 -38 z m 731 223 b 790 24 731 134 751 67 b 952 -40 829 -19 883 -40 b 1111 24 1019 -40 1072 -19 b 1170 223 1150 67 1170 134 b 1111 421 1170 312 1150 378 b 950 486 1072 464 1018 486 b 790 421 882 486 829 464 b 731 223 751 378 731 312 z m 880 224 b 902 354 880 288 887 332 b 949 378 913 370 928 378 b 996 354 969 378 985 370 b 1018 224 1011 332 1018 288 b 996 94 1018 159 1010 116 b 949 69 985 77 969 69 b 902 94 929 69 913 78 b 880 224 887 116 880 159 z "},"&":{"ha":1003,"x_min":0,"x_max":0,"o":"m 981 121 b 906 169 965 129 940 145 b 824 234 873 192 845 214 b 865 305 838 253 852 277 b 909 439 877 333 892 378 l 737 478 b 695 365 725 432 711 394 l 557 547 b 702 670 630 593 678 634 b 738 785 726 706 738 744 b 665 945 738 848 714 902 b 464 1011 617 989 550 1011 b 258 948 375 1011 306 990 b 186 795 210 907 186 856 b 212 692 186 763 194 728 b 288 577 229 656 254 617 b 118 445 213 540 156 495 b 61 273 80 394 61 336 b 134 87 61 203 85 141 b 413 -18 196 17 289 -18 b 574 8 475 -18 529 -9 b 703 88 620 25 662 52 b 865 -26 755 40 809 2 z m 462 662 l 415 716 b 372 802 386 750 372 778 b 397 854 372 821 380 839 b 469 877 415 869 438 877 b 543 851 500 877 525 868 b 570 789 561 834 570 813 b 513 701 570 760 551 731 z m 387 455 l 581 216 b 491 157 549 189 519 169 b 405 140 463 146 435 140 b 297 179 360 140 324 153 b 256 279 270 205 256 238 b 289 375 256 312 267 344 b 387 455 311 406 343 433 z "},"'":{"ha":330,"x_min":0,"x_max":0,"o":"m 98 641 l 239 641 l 270 826 l 270 994 l 62 994 l 62 826 z "},"(":{"ha":463,"x_min":0,"x_max":0,"o":"m 416 -292 b 332 -94 376 -206 348 -140 b 276 128 308 -24 289 50 b 255 356 262 206 255 282 b 290 662 255 464 267 565 b 418 1011 313 758 356 874 l 288 1011 b 140 731 228 926 179 832 b 73 360 95 614 73 491 b 127 33 73 255 91 146 b 285 -292 163 -79 216 -188 z "},")":{"ha":463,"x_min":0,"x_max":0,"o":"m 47 -292 l 178 -292 b 346 66 256 -174 312 -55 b 391 370 376 175 391 276 b 334 702 391 482 372 593 b 175 1011 296 811 243 914 l 45 1011 b 173 662 107 874 150 758 b 208 356 196 565 208 464 b 198 201 208 303 204 251 b 169 41 192 151 182 97 b 126 -107 156 -15 142 -64 b 47 -292 111 -150 84 -212 z "},"*":{"ha":541,"x_min":0,"x_max":0,"o":"m 166 537 b 261 693 202 592 234 644 l 353 542 l 456 610 b 418 656 447 622 434 637 l 336 747 b 511 781 402 758 460 769 l 475 903 b 362 856 440 890 403 874 b 304 829 332 842 313 833 b 322 1011 316 918 322 978 l 201 1011 b 218 831 201 965 207 904 b 59 910 171 860 118 886 l 19 791 b 95 770 31 786 57 779 b 192 747 148 757 181 749 b 165 722 188 744 179 735 b 64 616 130 688 96 653 z "},"+":{"ha":811,"x_min":0,"x_max":0,"o":"m 318 143 l 492 143 l 492 401 l 753 401 l 753 580 l 492 580 l 492 838 l 318 838 l 318 580 l 58 580 l 58 401 l 318 401 z "},",":{"ha":386,"x_min":0,"x_max":0,"o":"m 95 191 l 95 0 l 187 0 b 161 -91 186 -38 178 -69 b 79 -143 145 -113 118 -130 l 117 -222 b 217 -162 157 -207 191 -187 b 271 -76 244 -137 262 -108 b 286 54 281 -44 286 -1 l 286 191 z "},"-":{"ha":463,"x_min":0,"x_max":0,"o":"m 78 265 l 452 265 l 452 456 l 78 456 z "},".":{"ha":386,"x_min":0,"x_max":0,"o":"m 100 0 l 290 0 l 290 191 l 100 191 z "},"/":{"ha":386,"x_min":0,"x_max":0,"o":"m -2 -17 l 138 -17 l 387 1011 l 244 1011 z "},":":{"ha":463,"x_min":0,"x_max":0,"o":"m 136 530 l 327 530 l 327 720 l 136 720 z m 136 0 l 327 0 l 327 191 l 136 191 z "},";":{"ha":463,"x_min":0,"x_max":0,"o":"m 131 530 l 321 530 l 321 720 l 131 720 z m 131 191 l 131 0 l 223 0 b 197 -90 222 -38 214 -68 b 115 -143 181 -113 154 -130 l 153 -222 b 253 -162 193 -207 227 -187 b 307 -76 280 -137 298 -108 b 321 54 317 -44 321 -1 l 321 191 z "},"<":{"ha":811,"x_min":0,"x_max":0,"o":"m 746 113 l 746 305 l 271 494 l 746 675 l 746 869 l 64 574 l 64 410 z "},"=":{"ha":811,"x_min":0,"x_max":0,"o":"m 58 553 l 753 553 l 753 728 l 58 728 z m 58 252 l 753 252 l 753 428 l 58 428 z "},">":{"ha":811,"x_min":0,"x_max":0,"o":"m 64 113 l 747 410 l 747 572 l 64 867 l 64 677 l 541 492 l 64 304 z "},"?":{"ha":848,"x_min":0,"x_max":0,"o":"m 509 256 b 523 366 508 309 513 345 b 597 446 532 386 557 413 b 750 600 675 511 726 562 b 785 719 773 637 785 677 b 688 919 785 795 753 861 b 427 1004 624 976 537 1004 b 175 920 323 1004 239 976 b 72 713 111 863 77 794 l 247 692 b 314 818 259 748 281 790 b 435 859 347 845 387 859 b 555 820 486 859 525 846 b 600 724 585 793 600 761 b 574 651 600 698 591 673 b 475 562 564 637 530 607 b 363 440 419 517 382 476 b 336 302 345 404 336 358 b 336 256 336 296 336 281 z m 336 0 l 527 0 l 527 191 l 336 191 z "},"@":{"ha":1354,"x_min":0,"x_max":0,"o":"m 1205 13 b 1017 -122 1158 -47 1095 -92 b 739 -168 939 -152 847 -168 b 440 -114 626 -168 527 -150 b 237 58 353 -78 285 -21 b 165 318 189 136 165 223 b 230 601 165 416 186 511 b 422 812 273 692 337 762 b 734 887 507 862 611 887 b 1071 775 878 887 990 850 b 1192 496 1151 700 1192 607 b 1149 316 1192 434 1177 374 b 1037 178 1120 258 1083 212 b 953 138 1003 151 975 138 b 934 147 946 138 939 141 b 926 172 929 152 926 161 b 936 232 926 181 930 201 l 1038 718 l 859 718 l 842 643 b 664 735 804 704 744 735 b 386 575 551 735 458 682 b 296 284 326 487 296 390 b 371 78 296 198 321 129 b 557 0 420 26 482 0 b 742 77 627 0 689 26 b 780 20 748 52 761 33 b 865 0 799 7 827 0 b 1207 176 1004 0 1118 59 b 1314 489 1278 269 1314 374 b 1243 756 1314 586 1290 675 b 1040 945 1197 838 1129 901 b 736 1012 952 990 850 1012 b 378 929 602 1012 483 984 b 132 683 274 874 192 792 b 41 328 71 573 41 455 b 121 6 41 212 68 105 b 363 -217 174 -92 254 -166 b 749 -292 471 -267 600 -292 b 1141 -203 904 -292 1034 -262 b 1350 13 1235 -151 1304 -79 z m 472 292 b 497 439 472 335 480 384 b 572 568 514 495 539 538 b 680 613 605 598 641 613 b 769 572 716 613 746 599 b 805 454 793 545 805 505 b 779 307 805 409 796 359 b 717 186 761 254 741 213 b 666 143 700 166 683 152 b 593 124 643 130 619 124 b 507 165 559 124 530 138 b 472 292 484 192 472 234 z "},"A":{"ha":1003,"x_min":0,"x_max":0,"o":"m 998 0 l 600 994 l 387 994 l 0 0 l 213 0 l 295 226 l 692 226 l 779 0 z m 628 393 l 357 393 l 491 762 z "},"B":{"ha":1003,"x_min":0,"x_max":0,"o":"m 102 994 l 102 0 l 440 0 b 682 7 568 1 649 3 b 817 54 736 13 780 28 b 903 156 853 79 882 114 b 935 288 924 199 935 243 b 886 438 935 346 918 396 b 746 528 853 481 807 511 b 848 616 789 548 823 577 b 886 744 873 655 886 697 b 855 860 886 787 876 826 b 779 943 835 895 809 923 b 675 984 748 964 714 978 b 499 994 636 991 578 994 z m 302 829 l 418 829 b 589 825 512 829 569 828 b 665 790 623 821 648 810 b 690 715 682 771 690 746 b 661 638 690 683 681 657 b 580 602 641 618 614 606 b 434 599 561 600 512 599 l 302 599 z m 302 433 l 465 433 b 643 419 556 433 615 429 b 705 374 670 410 691 394 b 727 298 720 353 727 328 b 699 213 727 262 718 234 b 626 174 680 192 656 179 b 488 168 607 170 561 168 l 302 168 z "},"C":{"ha":1003,"x_min":0,"x_max":0,"o":"m 737 366 b 654 205 720 293 693 239 b 517 155 616 172 570 155 b 340 235 444 155 386 181 b 273 503 295 288 273 378 b 341 760 273 622 296 707 b 521 840 387 813 447 840 b 657 795 574 840 620 825 b 730 673 694 765 719 724 l 929 720 b 827 903 906 800 873 861 b 531 1011 751 975 653 1011 b 194 874 392 1011 279 965 b 66 488 109 782 66 654 b 193 118 66 332 108 209 b 519 -17 278 28 387 -17 b 783 62 625 -17 714 9 b 932 304 852 115 902 195 z "},"D":{"ha":1003,"x_min":0,"x_max":0,"o":"m 100 994 l 100 0 l 478 0 b 656 21 552 0 611 7 b 797 100 715 40 762 66 b 903 276 843 145 878 204 b 934 488 924 335 934 406 b 901 723 934 581 923 659 b 806 884 880 786 848 840 b 656 975 765 928 715 958 b 467 994 613 988 550 994 z m 301 826 l 391 826 b 556 817 473 826 528 823 b 649 770 594 808 625 793 b 706 673 673 747 692 715 b 726 496 720 632 726 573 b 706 314 726 420 720 359 b 653 218 692 270 675 238 b 572 177 632 199 605 185 b 451 168 548 171 507 168 l 301 168 z "},"E":{"ha":926,"x_min":0,"x_max":0,"o":"m 101 0 l 857 0 l 857 168 l 302 168 l 302 438 l 801 438 l 801 606 l 302 606 l 302 826 l 838 826 l 838 994 l 101 994 z "},"F":{"ha":848,"x_min":0,"x_max":0,"o":"m 102 0 l 303 0 l 303 422 l 718 422 l 718 591 l 303 591 l 303 826 l 784 826 l 784 994 l 102 994 z "},"G":{"ha":1080,"x_min":0,"x_max":0,"o":"m 564 366 l 793 366 l 793 239 b 685 179 763 216 727 196 b 558 155 642 163 600 155 b 352 243 473 155 404 184 b 273 509 300 302 273 391 b 351 756 273 618 299 701 b 560 840 403 812 472 840 b 705 797 618 840 666 825 b 784 682 744 769 770 730 l 983 719 b 849 933 963 810 919 882 b 560 1011 780 985 684 1011 b 322 962 465 1011 386 995 b 132 777 238 919 175 857 b 66 500 88 696 66 604 b 125 236 66 405 86 317 b 299 48 164 155 222 92 b 571 -17 376 5 467 -17 b 813 30 653 -17 734 -1 b 996 137 893 60 954 96 l 996 533 l 564 533 z "},"H":{"ha":1003,"x_min":0,"x_max":0,"o":"m 102 0 l 302 0 l 302 435 l 696 435 l 696 0 l 897 0 l 897 994 l 696 994 l 696 603 l 302 603 l 302 994 l 102 994 z "},"I":{"ha":386,"x_min":0,"x_max":0,"o":"m 95 0 l 296 0 l 296 994 l 95 994 z "},"J":{"ha":772,"x_min":0,"x_max":0,"o":"m 460 994 l 460 352 b 432 193 460 271 451 218 b 337 155 413 167 382 155 b 238 208 293 155 260 172 b 213 329 224 232 215 272 l 24 307 b 104 65 24 201 51 120 b 330 -17 157 11 232 -17 b 532 36 414 -17 481 1 b 638 175 583 71 619 117 b 660 365 653 219 660 283 l 660 994 z "},"K":{"ha":1003,"x_min":0,"x_max":0,"o":"m 104 0 l 304 0 l 304 300 l 467 467 l 741 0 l 1000 0 l 606 607 l 980 994 l 710 994 l 304 553 l 304 994 l 104 994 z "},"L":{"ha":848,"x_min":0,"x_max":0,"o":"m 106 0 l 806 0 l 806 168 l 307 168 l 307 986 l 106 986 z "},"M":{"ha":1157,"x_min":0,"x_max":0,"o":"m 98 0 l 285 0 l 285 783 l 481 0 l 675 0 l 872 783 l 872 0 l 1059 0 l 1059 994 l 758 994 l 579 316 l 399 994 l 98 994 z "},"N":{"ha":1003,"x_min":0,"x_max":0,"o":"m 103 0 l 290 0 l 290 648 l 690 0 l 892 0 l 892 994 l 705 994 l 705 330 l 298 994 l 103 994 z "},"O":{"ha":1080,"x_min":0,"x_max":0,"o":"m 60 491 b 191 118 60 333 104 209 b 544 -17 279 28 396 -17 b 894 119 690 -17 807 28 b 1025 496 981 210 1025 335 b 893 875 1025 658 981 784 b 541 1011 805 966 688 1011 b 327 972 460 1011 389 998 b 198 882 280 952 237 923 b 106 746 159 842 128 797 b 60 491 76 677 60 592 z m 267 498 b 343 754 267 612 293 698 b 543 840 394 811 460 840 b 742 755 626 840 692 812 b 817 500 792 699 817 614 b 740 241 817 385 792 299 b 543 155 689 183 623 155 b 345 242 463 155 397 184 b 267 498 293 300 267 385 z "},"P":{"ha":926,"x_min":0,"x_max":0,"o":"m 101 0 l 302 0 l 302 375 l 433 375 b 641 389 524 375 593 380 b 745 436 676 397 711 413 b 829 534 779 460 807 493 b 863 688 852 576 863 627 b 805 882 863 767 843 832 b 662 979 767 932 719 964 b 423 994 625 989 545 994 l 101 994 z m 302 826 l 399 826 b 543 819 471 826 519 824 b 624 775 576 813 603 799 b 656 686 645 752 656 722 b 633 608 656 656 648 630 b 570 559 618 586 597 570 b 412 544 544 549 491 544 l 302 544 z "},"Q":{"ha":1080,"x_min":0,"x_max":0,"o":"m 901 126 b 988 271 941 173 970 221 b 1024 497 1012 336 1024 411 b 895 876 1024 659 981 786 b 544 1011 808 966 691 1011 b 191 876 395 1011 277 966 b 60 497 104 786 60 659 b 190 118 60 334 104 208 b 549 -17 277 28 397 -17 b 766 26 628 -17 701 -3 b 899 -62 848 -30 893 -59 b 988 -100 928 -78 958 -91 l 1062 42 b 901 126 1004 63 951 91 z m 740 239 b 551 341 680 285 617 319 l 494 227 b 618 164 536 212 578 191 b 536 150 593 155 565 150 b 343 236 459 150 394 179 b 267 497 293 294 267 381 b 343 754 267 611 293 697 b 543 840 394 811 461 840 b 741 754 624 840 691 811 b 817 497 792 698 817 612 b 798 349 817 441 811 392 b 740 239 785 306 766 270 z "},"R":{"ha":1003,"x_min":0,"x_max":0,"o":"m 102 0 l 302 0 l 302 415 l 343 415 b 444 404 389 415 423 411 b 505 362 465 396 486 383 b 610 216 524 342 559 294 l 755 0 l 996 0 l 874 194 b 760 355 826 271 788 325 b 652 439 732 386 696 413 b 849 531 740 451 805 482 b 915 715 893 579 915 641 b 871 872 915 774 900 826 b 756 967 843 918 804 950 b 524 994 708 985 630 994 l 102 994 z m 302 574 l 302 826 l 459 826 b 606 823 541 826 589 825 b 681 784 638 817 663 804 b 708 703 699 763 708 736 b 688 628 708 673 701 648 b 631 586 674 608 655 594 b 451 574 607 578 547 574 z "},"S":{"ha":926,"x_min":0,"x_max":0,"o":"m 50 323 b 171 70 63 212 104 128 b 460 -18 238 11 335 -18 b 677 19 547 -18 619 -6 b 811 130 735 43 779 80 b 859 290 843 179 859 233 b 819 448 859 352 845 405 b 709 549 792 491 756 524 b 492 621 662 574 590 597 b 308 687 395 644 333 666 b 278 747 288 704 278 724 b 310 809 278 773 289 794 b 447 845 343 833 389 845 b 574 811 503 845 546 834 b 629 701 602 789 621 752 l 830 710 b 731 929 827 801 794 874 b 449 1011 668 984 574 1011 b 253 977 373 1011 307 1000 b 129 876 199 954 158 920 b 86 734 100 832 86 784 b 178 534 86 655 117 588 b 404 435 221 495 297 462 b 565 392 488 415 541 400 b 637 349 599 380 623 365 b 658 289 651 332 658 312 b 609 193 658 252 641 220 b 463 152 576 166 527 152 b 317 198 401 152 353 167 b 245 342 281 229 257 277 z "},"T":{"ha":848,"x_min":0,"x_max":0,"o":"m 325 0 l 526 0 l 526 826 l 820 826 l 820 994 l 30 994 l 30 826 l 325 826 z "},"U":{"ha":1003,"x_min":0,"x_max":0,"o":"m 100 994 l 100 464 b 119 212 100 353 106 269 b 176 101 128 173 147 136 b 292 16 204 66 243 38 b 508 -17 341 -6 413 -17 b 699 13 587 -17 650 -7 b 816 94 748 33 787 60 b 876 219 845 128 865 170 b 892 472 887 268 892 353 l 892 994 l 692 994 l 692 444 b 683 275 692 366 689 309 b 631 190 677 241 660 213 b 502 155 602 166 559 155 b 369 192 446 155 402 167 b 308 290 337 216 316 249 b 300 456 303 315 300 370 l 300 994 z "},"V":{"ha":926,"x_min":0,"x_max":0,"o":"m 355 0 l 569 0 l 925 994 l 712 994 l 469 258 l 217 994 l -1 994 z "},"W":{"ha":1311,"x_min":0,"x_max":0,"o":"m 242 0 l 460 0 l 657 743 l 855 0 l 1068 0 l 1310 994 l 1107 994 l 955 300 l 781 994 l 542 994 l 360 311 l 210 994 l 5 994 z "},"X":{"ha":926,"x_min":0,"x_max":0,"o":"m 0 0 l 241 0 l 462 344 l 682 0 l 924 0 l 585 511 l 894 994 l 661 994 l 466 675 l 267 994 l 32 994 l 340 519 z "},"Y":{"ha":926,"x_min":0,"x_max":0,"o":"m 362 0 l 562 0 l 562 417 l 928 994 l 696 994 l 467 601 l 233 994 l -2 994 l 362 418 z "},"Z":{"ha":848,"x_min":0,"x_max":0,"o":"m 15 0 l 823 0 l 823 168 l 257 168 l 802 838 l 802 994 l 74 994 l 74 826 l 537 826 l 15 181 z "},"[":{"ha":463,"x_min":0,"x_max":0,"o":"m 99 -280 l 437 -280 l 437 -130 l 280 -130 l 280 844 l 437 844 l 437 994 l 99 994 z "},"\\":{"ha":386,"x_min":0,"x_max":0,"o":"m -2 1011 l 244 -17 l 387 -17 l 138 1011 z "},"]":{"ha":463,"x_min":0,"x_max":0,"o":"m 363 994 l 26 994 l 26 846 l 182 846 l 182 -130 l 26 -130 l 26 -280 l 363 -280 z "},"^":{"ha":811,"x_min":0,"x_max":0,"o":"m 78 469 l 272 469 l 406 801 l 540 469 l 732 469 l 484 1011 l 333 1011 z "},"_":{"ha":772,"x_min":0,"x_max":0,"o":"m -13 -275 l 779 -275 l 779 -151 l -13 -151 z "},"`":{"ha":463,"x_min":0,"x_max":0,"o":"m 336 808 l 242 1011 l 28 1011 l 216 808 z "},"a":{"ha":772,"x_min":0,"x_max":0,"o":"m 242 500 b 288 571 254 534 269 557 b 368 591 307 584 334 591 b 470 567 418 591 452 583 b 497 489 488 552 497 526 l 497 470 b 312 423 463 456 401 440 b 160 379 246 411 195 396 b 79 306 125 362 98 337 b 50 197 59 274 50 237 b 114 44 50 135 71 84 b 289 -16 156 4 215 -16 b 408 7 331 -16 371 -8 b 512 79 445 23 479 47 b 519 56 513 75 516 68 b 537 0 526 31 532 13 l 726 0 b 691 97 709 34 697 67 b 682 237 685 127 682 173 l 684 459 b 659 630 684 542 676 599 b 571 706 642 661 613 686 b 381 736 529 726 466 736 b 170 686 288 736 217 720 b 69 532 122 653 89 601 z m 497 346 l 497 308 b 490 215 497 262 495 231 b 444 152 482 190 467 169 b 346 118 413 129 380 118 b 270 147 315 118 290 128 b 240 216 250 167 240 190 b 277 283 240 243 253 266 b 381 317 294 294 328 305 b 497 346 434 328 473 338 z "},"b":{"ha":848,"x_min":0,"x_max":0,"o":"m 92 0 l 269 0 l 269 106 b 372 15 297 66 332 35 b 494 -16 412 -6 453 -16 b 707 83 577 -16 648 17 b 795 368 766 150 795 245 b 709 641 795 486 766 578 b 491 736 651 705 579 736 b 282 636 411 736 341 703 l 282 994 l 92 994 z m 281 376 b 326 537 281 448 296 502 b 440 591 356 573 394 591 b 555 536 487 591 525 572 b 600 358 585 500 600 440 b 555 188 600 281 585 224 b 448 134 525 152 490 134 b 316 210 393 134 349 160 b 281 376 293 246 281 301 z "},"c":{"ha":772,"x_min":0,"x_max":0,"o":"m 728 507 b 616 680 705 585 668 642 b 407 736 564 718 495 736 b 152 637 300 736 215 703 b 58 359 89 571 58 478 b 152 83 58 242 89 150 b 404 -16 214 17 298 -16 b 625 50 496 -16 570 6 b 737 244 680 93 718 158 l 550 276 b 501 170 541 226 524 190 b 412 139 478 149 448 139 b 297 192 364 139 325 157 b 254 373 268 227 254 288 b 296 537 254 450 268 505 b 410 587 324 570 362 587 b 497 558 445 587 474 577 b 540 473 519 539 533 511 z "},"d":{"ha":848,"x_min":0,"x_max":0,"o":"m 760 0 l 760 994 l 570 994 l 570 636 b 361 736 511 703 441 736 b 143 641 273 736 201 705 b 57 363 86 578 57 485 b 145 84 57 243 86 150 b 358 -16 204 17 275 -16 b 479 14 399 -16 439 -6 b 583 106 519 34 554 65 l 583 0 z m 252 376 b 297 537 252 447 267 501 b 411 591 328 573 366 591 b 526 536 458 591 496 572 b 570 357 555 500 570 440 b 524 190 570 283 555 228 b 412 134 493 153 456 134 b 283 209 357 134 314 159 b 252 376 262 243 252 299 z "},"e":{"ha":772,"x_min":0,"x_max":0,"o":"m 517 229 b 471 151 506 193 491 167 b 395 126 450 134 425 126 b 286 173 352 126 315 142 b 239 305 256 205 241 249 l 717 305 b 628 630 720 451 690 560 b 374 736 566 701 481 736 b 138 635 279 736 200 703 b 44 355 75 568 44 474 b 115 106 44 255 68 172 b 393 -16 175 25 268 -16 b 591 38 472 -16 538 2 b 707 197 644 75 682 128 z m 528 422 l 243 422 b 283 545 242 474 256 515 b 386 591 310 576 344 591 b 485 548 425 591 458 576 b 528 422 512 519 526 477 z "},"f":{"ha":463,"x_min":0,"x_max":0,"o":"m 16 720 l 16 570 l 122 570 l 122 0 l 313 0 l 313 570 l 455 570 l 455 720 l 313 720 l 313 771 b 331 845 313 808 319 832 b 390 865 343 858 362 865 b 477 854 418 865 447 861 l 503 987 b 344 1011 451 1003 398 1011 b 213 983 291 1011 247 1002 b 141 910 178 964 154 940 b 122 774 129 880 122 835 l 122 720 z "},"g":{"ha":848,"x_min":0,"x_max":0,"o":"m 82 -47 b 81 -71 82 -57 81 -64 b 158 -230 81 -135 107 -188 b 418 -292 209 -271 296 -292 b 578 -272 482 -292 536 -286 b 680 -216 620 -258 654 -240 b 739 -117 705 -192 725 -159 b 760 74 753 -75 760 -11 l 760 720 l 581 720 l 581 619 b 361 736 523 697 450 736 b 144 641 274 736 202 705 b 57 364 86 577 57 485 b 123 123 57 268 79 187 b 353 0 180 41 257 0 b 569 117 440 0 512 39 l 569 12 b 560 -76 569 -31 566 -60 b 522 -124 552 -98 539 -114 b 410 -146 497 -139 460 -146 b 325 -126 371 -146 343 -140 b 300 -74 312 -117 303 -99 z m 252 375 b 297 537 252 448 267 502 b 410 591 326 573 364 591 b 526 536 457 591 496 573 b 572 370 557 500 572 445 b 524 209 572 299 556 245 b 406 154 492 172 453 154 b 297 207 363 154 326 172 b 252 375 267 243 252 299 z "},"h":{"ha":848,"x_min":0,"x_max":0,"o":"m 290 994 l 99 994 l 99 0 l 290 0 l 290 361 b 307 498 290 421 295 467 b 361 568 318 529 337 552 b 446 591 386 583 415 591 b 515 573 474 591 497 585 b 553 524 533 561 546 545 b 564 380 561 504 564 456 l 564 0 l 755 0 l 755 422 b 745 566 755 487 752 535 b 708 650 738 596 726 624 b 629 712 690 675 664 696 b 510 736 593 728 554 736 b 290 629 425 736 351 701 z "},"i":{"ha":386,"x_min":0,"x_max":0,"o":"m 100 818 l 290 818 l 290 994 l 100 994 z m 100 0 l 290 0 l 290 720 l 100 720 z "},"j":{"ha":386,"x_min":0,"x_max":0,"o":"m 96 818 l 286 818 l 286 994 l 96 994 z m 286 720 l 96 720 l 96 33 b 90 -73 96 -26 94 -61 b 65 -103 85 -84 77 -94 b 17 -115 52 -111 36 -115 b -5 -114 10 -115 3 -115 b -31 -109 -13 -112 -21 -111 l -64 -272 b 7 -287 -38 -279 -15 -284 b 68 -292 29 -291 50 -292 b 199 -260 121 -292 165 -282 b 268 -172 233 -239 256 -210 b 286 22 280 -134 286 -69 z "},"k":{"ha":772,"x_min":0,"x_max":0,"o":"m 93 0 l 283 0 l 283 231 l 372 323 l 553 0 l 759 0 l 495 457 l 741 720 l 507 720 l 283 467 l 283 994 l 93 994 z "},"l":{"ha":386,"x_min":0,"x_max":0,"o":"m 100 0 l 290 0 l 290 994 l 100 994 z "},"m":{"ha":1235,"x_min":0,"x_max":0,"o":"m 85 720 l 85 0 l 276 0 l 276 350 b 291 498 276 419 281 469 b 342 567 301 528 318 551 b 421 591 365 583 392 591 b 479 576 446 591 465 586 b 511 530 493 566 504 551 b 521 395 517 510 521 465 l 521 0 l 711 0 l 711 346 b 727 495 711 414 717 463 b 778 566 737 526 754 550 b 853 591 801 583 826 591 b 935 550 890 591 917 577 b 954 412 948 529 954 483 l 954 0 l 1145 0 l 1145 460 b 1125 610 1145 529 1138 579 b 1043 704 1107 651 1080 683 b 909 736 1006 726 962 736 b 791 708 867 736 828 727 b 689 622 755 689 721 660 b 606 708 667 660 640 689 b 486 736 572 727 532 736 b 261 622 399 736 324 698 l 261 720 z "},"n":{"ha":848,"x_min":0,"x_max":0,"o":"m 755 0 l 755 448 b 744 576 755 503 751 546 b 707 656 737 606 725 632 b 628 714 689 679 663 699 b 513 736 593 729 555 736 b 275 614 417 736 338 696 l 275 720 l 98 720 l 98 0 l 289 0 l 289 326 b 303 492 289 407 294 462 b 357 564 313 522 331 545 b 446 591 384 582 413 591 b 512 572 472 591 494 584 b 552 518 531 559 544 541 b 564 368 560 496 564 445 l 564 0 z "},"o":{"ha":848,"x_min":0,"x_max":0,"o":"m 56 370 b 102 160 56 288 71 217 b 239 28 134 102 179 58 b 428 -16 299 -1 362 -16 b 693 91 535 -16 623 20 b 799 362 764 163 799 253 b 694 630 799 470 764 560 b 427 736 625 701 536 736 b 235 690 356 736 292 721 b 102 554 178 659 134 613 b 56 370 71 495 56 434 z m 251 360 b 302 524 251 432 268 486 b 427 581 336 562 378 581 b 552 524 477 581 519 562 b 603 361 586 486 603 432 b 552 196 603 289 586 234 b 427 139 519 158 477 139 b 302 196 378 139 336 158 b 251 360 268 234 251 289 z "},"p":{"ha":848,"x_min":0,"x_max":0,"o":"m 94 720 l 94 -274 l 285 -274 l 285 89 b 387 7 321 50 355 23 b 495 -16 419 -8 455 -16 b 709 84 579 -16 650 17 b 797 364 767 150 797 244 b 709 638 797 481 768 573 b 496 736 651 704 580 736 b 366 703 448 736 405 725 b 272 614 326 680 295 651 l 272 720 z m 283 372 b 329 532 283 443 298 496 b 445 586 360 568 398 586 b 557 531 490 586 527 568 b 603 363 588 494 603 438 b 559 188 603 282 588 224 b 448 135 529 153 493 135 b 331 193 402 135 363 154 b 283 372 299 232 283 291 z "},"q":{"ha":848,"x_min":0,"x_max":0,"o":"m 570 -274 l 761 -274 l 761 720 l 585 720 l 585 614 b 492 706 558 655 527 686 b 368 736 457 726 415 736 b 150 639 281 736 208 704 b 62 368 91 574 62 484 b 155 76 62 245 93 148 b 357 -16 208 14 276 -16 b 477 12 400 -16 440 -7 b 570 88 515 31 545 56 z m 576 369 b 527 193 576 291 560 233 b 412 134 494 154 456 134 b 301 187 368 134 331 152 b 256 358 271 222 256 279 b 303 532 256 438 272 496 b 418 587 334 569 372 587 b 531 533 464 587 501 569 b 576 369 561 497 576 443 z "},"r":{"ha":541,"x_min":0,"x_max":0,"o":"m 282 0 l 282 222 b 298 464 282 345 287 425 b 342 544 309 502 323 529 b 410 566 360 558 383 566 b 499 534 437 566 467 555 l 558 701 b 433 736 518 725 476 736 b 350 713 402 736 374 729 b 269 618 326 698 299 666 l 269 720 l 92 720 l 92 0 z "},"s":{"ha":772,"x_min":0,"x_max":0,"o":"m 33 205 b 145 43 50 137 88 83 b 378 -16 202 4 280 -16 b 623 55 486 -16 567 7 b 705 225 678 102 705 159 b 646 367 705 286 685 333 b 433 452 605 400 535 429 b 255 505 332 475 272 493 b 236 540 242 515 236 526 b 258 578 236 556 243 569 b 366 600 279 592 315 600 b 457 577 405 600 436 592 b 501 513 479 562 493 541 l 681 546 b 582 688 663 609 630 656 b 362 736 534 720 461 736 b 133 673 259 736 182 715 b 59 515 84 630 59 578 b 144 353 59 446 87 392 b 437 260 186 325 283 294 b 500 235 470 253 491 244 b 514 199 510 226 514 214 b 489 149 514 178 506 161 b 378 121 464 130 427 121 b 273 150 333 121 298 131 b 224 235 248 169 232 198 z "},"t":{"ha":463,"x_min":0,"x_max":0,"o":"m 430 720 l 300 720 l 300 975 l 109 863 l 109 720 l 21 720 l 21 568 l 109 568 l 109 254 b 115 120 109 187 111 142 b 141 46 120 89 129 64 b 202 1 154 27 175 13 b 295 -16 230 -11 261 -16 b 446 12 351 -16 401 -7 l 429 160 b 353 142 396 148 370 142 b 320 151 340 142 329 145 b 303 175 312 158 306 166 b 300 278 301 185 300 219 l 300 568 l 430 568 z "},"u":{"ha":848,"x_min":0,"x_max":0,"o":"m 574 0 l 751 0 l 751 720 l 560 720 l 560 416 b 546 222 560 313 555 249 b 493 156 536 196 519 173 b 406 129 467 138 438 129 b 335 149 377 129 354 136 b 297 203 316 162 304 180 b 286 389 290 226 286 288 l 286 720 l 96 720 l 96 264 b 121 105 96 197 104 144 b 205 16 139 67 166 37 b 335 -16 243 -6 287 -16 b 470 17 382 -16 428 -5 b 574 108 513 39 548 69 z "},"v":{"ha":772,"x_min":0,"x_max":0,"o":"m 298 0 l 469 0 l 755 720 l 559 720 l 422 353 b 402 292 415 332 408 312 b 382 230 399 282 393 261 l 343 353 l 208 720 l 7 720 z "},"w":{"ha":1080,"x_min":0,"x_max":0,"o":"m 234 0 l 419 0 l 541 463 l 665 0 l 848 0 l 1080 720 l 892 720 l 754 248 l 634 720 l 450 720 l 326 248 l 191 720 l 6 720 z "},"x":{"ha":772,"x_min":0,"x_max":0,"o":"m 8 0 l 231 0 l 379 223 l 526 0 l 760 0 l 493 379 l 737 720 l 513 720 l 379 522 l 252 720 l 19 720 l 268 371 z "},"y":{"ha":772,"x_min":0,"x_max":0,"o":"m 9 720 l 283 -2 b 235 -101 272 -42 256 -75 b 136 -140 213 -127 181 -140 b 56 -132 112 -140 85 -137 l 73 -281 b 180 -292 108 -288 144 -292 b 278 -281 217 -292 249 -288 b 350 -249 306 -273 331 -262 b 402 -195 370 -235 387 -217 b 450 -98 418 -172 434 -140 l 496 27 l 750 720 l 553 720 l 385 209 l 212 720 z "},"z":{"ha":694,"x_min":0,"x_max":0,"o":"m 23 0 l 666 0 l 666 168 l 371 168 b 273 163 358 168 326 166 l 370 268 l 645 585 l 645 720 l 50 720 l 50 562 l 304 564 b 391 566 340 564 369 565 b 293 458 370 545 337 509 l 23 149 z "},"{":{"ha":541,"x_min":0,"x_max":0,"o":"m 41 278 b 133 251 82 276 113 267 b 178 174 153 236 168 210 b 189 12 186 149 189 95 b 201 -145 189 -60 193 -112 b 246 -229 208 -179 223 -207 b 328 -278 268 -252 296 -268 b 469 -292 361 -287 408 -292 l 505 -292 l 505 -130 b 409 -120 456 -130 424 -126 b 376 -94 395 -114 384 -105 b 366 -31 369 -82 366 -61 b 361 113 366 -10 364 38 b 343 231 358 162 352 201 b 304 306 334 260 321 285 b 239 359 287 326 265 344 b 306 416 269 379 291 398 b 342 485 321 434 333 457 b 360 593 352 512 358 549 b 366 755 364 673 366 727 b 376 815 366 784 370 803 b 408 841 383 826 394 835 b 505 849 422 846 454 849 l 505 1011 l 469 1011 b 338 999 409 1011 366 1007 b 245 949 298 987 267 970 b 201 866 224 928 210 900 b 189 682 193 831 189 770 b 184 569 189 628 187 591 b 159 497 179 540 171 516 b 115 456 146 478 132 464 b 41 441 99 448 74 443 z "},"|":{"ha":389,"x_min":0,"x_max":0,"o":"m 119 -292 l 271 -292 l 271 1011 l 119 1011 z "},"}":{"ha":541,"x_min":0,"x_max":0,"o":"m 494 278 l 494 441 b 401 468 453 443 422 452 b 356 545 381 483 366 509 b 346 707 349 571 346 625 b 334 864 346 779 342 831 b 289 948 326 898 311 926 b 207 997 267 971 239 987 b 66 1011 174 1006 127 1011 l 31 1011 l 31 849 b 129 840 82 849 114 846 b 160 814 144 834 154 825 b 169 746 165 802 168 780 b 180 537 171 638 175 569 b 223 423 187 491 202 453 b 296 359 238 402 263 381 b 233 308 271 345 249 327 b 193 236 216 288 203 264 b 175 123 183 207 177 170 b 169 -35 171 45 169 -8 b 158 -94 169 -63 165 -82 b 125 -120 151 -105 140 -114 b 31 -130 111 -126 79 -130 l 31 -292 l 66 -292 b 197 -280 126 -292 169 -288 b 290 -230 238 -268 269 -251 b 334 -146 312 -209 326 -181 b 346 37 342 -112 346 -50 b 351 150 346 91 348 128 b 377 222 356 179 365 203 b 420 263 389 241 403 255 b 494 278 437 271 461 276 z "},"~":{"ha":811,"x_min":0,"x_max":0,"o":"m 45 352 b 231 446 106 415 167 446 b 395 401 270 446 325 431 b 497 362 441 380 475 368 b 563 354 518 357 540 354 b 679 382 603 354 641 363 b 766 444 716 401 745 422 l 766 627 b 668 552 734 593 702 568 b 581 529 635 537 606 529 b 454 567 558 529 516 542 b 325 613 392 592 349 607 b 246 621 301 618 275 621 b 45 528 170 621 103 590 z "},"¡":{"ha":463,"x_min":0,"x_max":0,"o":"m 331 720 l 140 720 l 140 530 l 331 530 z m 289 460 l 182 460 l 132 -43 l 132 -276 l 338 -276 l 338 -43 z "},"¢":{"ha":772,"x_min":0,"x_max":0,"o":"m 505 550 b 539 473 522 531 534 506 l 727 507 b 553 712 697 611 639 680 l 629 964 l 546 987 l 469 732 b 406 736 447 735 426 736 b 151 637 299 736 214 703 b 57 363 88 571 57 480 b 107 144 57 279 74 206 b 252 11 141 82 189 38 l 173 -250 l 256 -273 l 335 -12 b 404 -16 358 -15 381 -16 b 625 50 496 -16 569 6 b 736 244 680 93 717 158 l 549 276 b 500 170 540 226 523 190 b 412 139 477 149 447 139 b 381 142 401 139 391 140 z m 425 586 l 304 182 b 252 372 269 221 252 285 b 295 537 252 449 266 504 b 409 587 323 570 361 587 b 425 586 414 587 419 586 z "},"£":{"ha":772,"x_min":0,"x_max":0,"o":"m 677 193 b 539 155 621 168 574 155 b 427 176 519 155 482 162 b 372 189 397 184 378 188 b 329 192 359 191 345 192 b 235 173 291 192 260 186 b 319 292 277 222 305 262 b 339 391 332 323 339 356 b 337 421 339 401 338 411 l 517 421 l 517 571 l 306 571 b 282 656 296 597 288 625 b 272 732 275 688 272 713 b 308 823 272 768 284 799 b 398 859 332 847 362 859 b 483 827 432 859 460 849 b 530 723 505 806 521 771 l 713 750 b 616 944 702 834 669 899 b 404 1011 564 989 493 1011 b 242 976 345 1011 291 1000 b 128 874 193 953 155 919 b 87 733 101 829 87 782 b 115 571 87 678 97 624 l 9 571 l 9 421 l 150 421 b 153 382 152 408 153 395 b 119 264 153 345 141 306 b 9 147 97 223 60 184 l 81 -17 b 250 42 139 22 195 42 b 401 13 283 42 333 32 b 564 -16 469 -6 523 -16 b 662 -2 595 -16 628 -11 b 751 32 695 6 725 18 z "},"¤":{"ha":772,"x_min":0,"x_max":0,"o":"m 120 638 b 93 569 108 616 99 593 b 83 494 86 544 83 519 b 93 418 83 468 87 443 b 122 346 100 393 109 369 l 34 256 l 149 142 l 237 231 b 309 203 261 219 285 209 b 384 193 334 196 359 193 b 461 203 411 193 436 197 b 532 232 485 210 509 219 l 624 140 l 737 256 l 646 346 b 675 418 659 369 668 393 b 684 494 681 443 684 468 b 675 570 684 520 681 545 b 646 642 668 595 659 618 l 736 732 l 623 846 l 532 755 b 459 785 508 769 484 778 b 383 794 434 791 409 794 b 308 785 358 794 333 791 b 235 755 284 778 259 769 l 143 848 l 31 727 z m 247 494 b 287 591 247 532 260 564 b 384 631 314 617 346 631 b 481 591 422 631 454 617 b 521 494 507 564 521 532 b 481 397 521 456 507 423 b 384 357 454 370 422 357 b 287 397 346 357 314 370 b 247 494 260 423 247 456 z "},"¥":{"ha":772,"x_min":0,"x_max":0,"o":"m 286 185 l 286 0 l 477 0 l 477 185 l 732 185 l 732 335 l 477 335 l 477 416 l 732 416 l 732 566 l 552 566 l 766 994 l 557 994 l 418 705 b 382 610 403 671 390 640 b 345 705 375 637 362 669 l 210 994 l 1 994 l 212 566 l 35 566 l 35 416 l 286 416 l 286 335 l 35 335 l 35 185 z "},"¦":{"ha":389,"x_min":0,"x_max":0,"o":"m 119 475 l 271 475 l 271 1011 l 119 1011 z m 119 -292 l 271 -292 l 271 244 l 119 244 z "},"§":{"ha":772,"x_min":0,"x_max":0,"o":"m 669 783 b 579 948 660 850 630 905 b 370 1011 528 990 458 1011 b 169 948 283 1011 216 990 b 97 793 121 905 97 854 b 114 715 97 767 103 741 b 165 641 126 690 143 665 b 71 547 123 616 91 585 b 40 424 50 509 40 468 b 87 278 40 370 56 321 b 289 114 118 235 185 180 b 469 -9 392 48 452 7 b 494 -66 486 -26 494 -45 b 468 -123 494 -89 486 -107 b 397 -146 450 -139 427 -146 b 310 -116 362 -146 333 -136 b 264 -24 287 -95 272 -64 l 78 -46 b 174 -225 88 -121 120 -180 b 391 -292 229 -270 301 -292 b 608 -224 485 -292 557 -270 b 683 -56 658 -179 683 -123 b 663 35 683 -24 676 6 b 601 116 649 64 628 91 b 693 213 642 145 673 177 b 724 329 714 248 724 287 b 699 436 724 368 716 404 b 614 534 682 469 654 501 b 458 643 589 556 537 592 b 319 739 380 694 333 726 b 288 803 299 760 288 781 b 311 847 288 819 296 834 b 378 866 327 860 349 866 b 453 840 410 866 435 857 b 482 763 471 822 480 796 z m 498 199 l 304 331 b 213 461 243 372 213 415 b 231 515 213 480 219 498 b 271 553 242 531 256 544 l 456 419 b 542 345 503 385 531 360 b 557 298 552 329 557 313 b 543 251 557 283 553 267 b 498 199 533 234 518 217 z "},"¨":{"ha":463,"x_min":0,"x_max":0,"o":"m 3 848 l 167 848 l 167 1011 l 3 1011 z m 295 848 l 459 848 l 459 1011 l 295 1011 z "},"©":{"ha":1023,"x_min":0,"x_max":0,"o":"m 513 1015 b 257 947 424 1015 339 992 b 64 756 175 903 111 839 b -6 495 17 673 -6 586 b 63 236 -6 405 17 318 b 255 44 109 154 173 90 b 513 -24 337 -1 423 -24 b 772 44 604 -24 690 -1 b 964 236 854 90 918 154 b 1033 495 1010 318 1033 405 b 963 756 1033 586 1009 673 b 770 947 916 839 852 903 b 513 1015 688 992 602 1015 z m 513 912 b 719 859 585 912 653 894 b 874 705 785 823 837 772 b 930 495 912 638 930 568 b 875 288 930 423 912 354 b 721 133 838 222 787 170 b 513 78 655 96 586 78 b 306 133 441 78 372 96 b 152 288 240 170 188 222 b 96 495 115 354 96 423 b 153 705 96 568 115 638 b 308 859 190 772 242 823 b 513 912 373 894 442 912 z m 640 418 b 588 329 627 376 610 346 b 509 302 566 311 540 302 b 416 349 473 302 442 317 b 378 494 391 380 378 428 b 417 640 378 560 391 609 b 518 686 443 671 477 686 b 590 664 546 686 570 679 b 639 592 610 649 626 625 l 749 618 b 662 743 728 675 699 716 b 522 783 624 769 578 783 b 385 749 472 783 426 771 b 291 646 344 726 313 692 b 258 490 269 601 258 549 b 332 281 258 401 283 331 b 521 205 380 230 444 205 b 663 250 576 205 623 220 b 749 381 703 281 732 324 z "},"ª":{"ha":514,"x_min":0,"x_max":0,"o":"m 172 849 b 199 893 182 873 191 887 b 252 905 211 901 229 905 b 309 890 279 905 298 900 b 321 847 316 884 320 869 b 321 833 321 844 321 839 b 237 810 301 825 272 818 b 109 779 172 798 130 787 b 46 728 82 766 61 750 b 25 650 32 707 25 681 b 68 545 25 607 40 572 b 189 504 97 518 138 504 b 336 564 247 504 296 524 b 351 516 340 544 345 528 l 480 516 b 464 563 472 531 467 547 b 460 658 461 579 460 611 l 460 820 b 450 924 460 871 456 906 b 400 985 439 953 422 973 b 250 1011 366 1002 316 1011 b 107 977 186 1011 138 1000 b 44 875 75 954 54 920 z m 321 743 l 321 715 b 296 634 321 680 313 653 b 231 606 279 615 257 606 b 184 623 212 606 196 611 b 165 661 172 634 165 647 b 193 705 165 679 175 693 b 279 728 202 710 231 718 b 321 743 297 732 312 737 z "},"«":{"ha":772,"x_min":0,"x_max":0,"o":"m 429 667 l 279 667 l 65 361 l 279 47 l 429 47 l 253 361 z m 695 667 l 545 667 l 331 361 l 545 47 l 695 47 l 519 361 z "},"¬":{"ha":811,"x_min":0,"x_max":0,"o":"m 578 255 l 753 255 l 753 728 l 58 728 l 58 554 l 578 554 z "},"®":{"ha":1023,"x_min":0,"x_max":0,"o":"m 513 1015 b 257 948 424 1015 339 992 b 64 756 175 903 111 839 b -6 495 17 673 -6 586 b 63 236 -6 405 17 318 b 255 44 109 154 173 90 b 513 -24 337 -1 423 -24 b 772 44 604 -24 690 -1 b 964 236 854 90 918 154 b 1033 495 1010 318 1033 405 b 963 756 1033 586 1009 673 b 770 948 916 839 852 903 b 513 1015 688 992 602 1015 z m 514 913 b 720 859 585 913 654 895 b 875 705 786 824 837 772 b 932 495 913 638 932 568 b 876 287 932 422 913 353 b 722 132 839 221 788 169 b 514 77 656 95 587 77 b 307 132 442 77 373 95 b 152 287 241 169 189 221 b 97 495 115 353 97 422 b 154 705 97 568 116 638 b 309 859 191 772 243 824 b 514 913 374 895 443 913 z m 279 217 l 391 217 l 391 444 l 420 444 b 497 420 451 444 477 436 b 574 307 517 405 543 367 l 621 217 l 759 217 l 694 328 b 653 395 671 368 657 390 b 616 438 637 416 625 430 b 577 458 607 445 594 452 b 687 511 624 465 661 483 b 726 613 713 539 726 573 b 705 692 726 642 719 668 b 653 745 691 716 674 733 b 567 767 633 756 604 764 b 391 768 554 768 496 768 l 279 768 z m 391 530 l 391 681 l 436 681 b 556 673 500 681 540 678 b 594 647 572 668 585 659 b 607 606 603 635 607 622 b 593 564 607 590 602 576 b 556 538 584 551 572 543 b 436 530 541 533 501 530 z "},"¯":{"ha":767,"x_min":0,"x_max":0,"o":"m -13 1053 l 779 1053 l 779 1177 l -13 1177 z "},"°":{"ha":555,"x_min":0,"x_max":0,"o":"m 58 795 b 122 642 58 735 79 684 b 275 578 164 600 215 578 b 428 642 334 578 385 600 b 491 795 470 684 491 735 b 428 948 491 854 470 905 b 275 1011 385 990 334 1011 b 122 948 215 1011 164 990 b 58 795 79 906 58 855 z m 171 795 b 201 868 171 823 181 848 b 275 899 222 888 246 899 b 348 868 303 899 328 888 b 378 795 368 848 378 823 b 348 722 378 766 368 742 b 275 691 328 701 303 691 b 201 722 246 691 222 701 b 171 795 181 742 171 766 z "},"±":{"ha":762,"x_min":0,"x_max":0,"o":"m 294 241 l 468 241 l 468 500 l 729 500 l 729 678 l 468 678 l 468 937 l 294 937 l 294 678 l 34 678 l 34 500 l 294 500 z m 34 0 l 729 0 l 729 178 l 34 178 z "},"²":{"ha":463,"x_min":0,"x_max":0,"o":"m 429 600 l 216 600 b 272 647 227 611 246 627 b 363 723 321 686 352 711 b 413 791 386 746 403 769 b 429 861 423 813 429 836 b 379 963 429 900 412 934 b 235 1006 346 992 297 1006 b 81 958 169 1006 118 990 b 31 842 54 934 37 895 l 159 831 b 180 893 161 861 168 882 b 231 909 191 904 208 909 b 283 895 254 909 271 904 b 300 854 294 885 300 871 b 279 802 300 837 293 819 b 186 722 268 789 237 762 b 54 596 118 668 74 626 b 17 493 34 566 22 531 l 429 493 z "},"³":{"ha":463,"x_min":0,"x_max":0,"o":"m 27 642 b 89 528 33 594 54 556 b 228 485 124 499 170 485 b 378 535 290 485 340 502 b 435 649 416 568 435 606 b 411 723 435 677 427 702 b 342 770 396 744 373 760 b 394 821 364 784 381 800 b 408 868 404 835 408 851 b 359 964 408 904 392 936 b 226 1006 326 992 282 1006 b 85 960 166 1006 119 991 b 35 861 63 940 46 907 l 155 843 b 178 894 159 867 166 884 b 222 909 189 904 204 909 b 264 897 241 909 255 905 b 279 865 274 889 279 878 b 270 838 279 855 276 846 b 242 818 265 830 255 823 b 186 811 228 813 210 811 l 171 712 b 233 722 198 719 219 722 b 283 703 253 722 270 716 b 302 655 296 691 302 675 b 282 602 302 633 296 616 b 229 582 269 589 251 582 b 177 600 207 582 190 588 b 152 655 164 612 156 630 z "},"´":{"ha":463,"x_min":0,"x_max":0,"o":"m 127 808 l 248 808 l 434 1011 l 220 1011 z "},"µ":{"ha":800,"x_min":0,"x_max":0,"o":"m 75 720 l 75 -276 l 264 -276 l 264 87 b 323 9 286 48 305 22 b 408 -18 348 -9 376 -18 b 465 -3 425 -18 444 -13 b 514 30 485 6 502 17 b 553 87 526 42 539 61 l 553 0 l 730 0 l 730 720 l 538 720 l 538 392 b 522 229 538 312 532 257 b 471 161 511 200 494 177 b 399 136 449 144 425 136 b 293 202 352 136 317 158 b 264 394 274 236 264 300 l 264 720 z "},"¶":{"ha":772,"x_min":0,"x_max":0,"o":"m 431 -273 l 431 817 l 528 817 l 528 -273 l 689 -273 l 689 817 l 766 817 l 766 994 l 361 994 b 212 986 287 994 238 991 b 101 938 170 977 133 961 b 26 844 70 915 45 884 b -1 713 8 804 -1 761 b 68 519 -1 633 22 568 b 266 437 114 471 180 443 l 266 -273 z "},"·":{"ha":463,"x_min":0,"x_max":0,"o":"m 136 389 l 326 389 l 326 579 l 136 579 z "},"¸":{"ha":463,"x_min":0,"x_max":0,"o":"m 26 -273 b 158 -284 56 -281 100 -284 b 347 -233 240 -284 303 -267 b 395 -136 379 -208 395 -176 b 351 -45 395 -101 381 -70 b 222 -8 322 -21 279 -8 b 109 -26 182 -8 144 -14 l 91 -94 b 180 -80 121 -85 151 -80 b 245 -97 209 -80 231 -86 b 266 -137 259 -108 266 -122 b 243 -179 266 -154 258 -168 b 154 -201 224 -194 194 -201 b 26 -193 115 -201 72 -198 z "},"¹":{"ha":463,"x_min":0,"x_max":0,"o":"m 336 493 l 336 1006 l 231 1006 b 178 939 220 980 203 958 b 62 880 144 911 105 892 l 62 774 b 207 841 116 789 164 812 l 207 493 z "},"º":{"ha":507,"x_min":0,"x_max":0,"o":"m 18 756 b 82 569 18 676 39 613 b 253 502 124 524 182 502 b 424 569 324 502 381 524 b 488 756 467 614 488 676 b 424 944 488 836 467 899 b 253 1011 381 989 324 1011 b 82 944 182 1011 124 989 b 18 756 39 899 18 837 z m 161 755 b 186 861 161 805 169 840 b 251 892 203 882 224 892 b 316 861 278 892 299 882 b 342 755 333 840 342 805 b 316 649 342 705 333 670 b 251 617 299 628 278 617 b 186 649 224 617 203 628 b 161 755 169 670 161 705 z "},"»":{"ha":772,"x_min":0,"x_max":0,"o":"m 338 47 l 488 47 l 702 354 l 488 667 l 338 667 l 514 354 z m 72 47 l 222 47 l 436 354 l 222 667 l 72 667 l 248 354 z "},"¼":{"ha":1158,"x_min":0,"x_max":0,"o":"m 336 493 l 336 1006 l 232 1006 b 179 939 221 980 203 958 b 62 880 144 911 105 892 l 62 774 b 208 841 117 789 165 812 l 208 493 z m 338 -37 l 928 1006 l 820 1006 l 231 -37 z m 951 -28 l 1072 -28 l 1072 71 l 1145 71 l 1145 169 l 1072 169 l 1072 485 l 966 485 l 707 166 l 707 71 l 951 71 z m 951 169 l 827 169 l 951 321 z "},"½":{"ha":1158,"x_min":0,"x_max":0,"o":"m 336 493 l 336 1006 l 232 1006 b 179 939 221 980 203 958 b 62 880 144 911 105 892 l 62 774 b 208 841 117 789 165 812 l 208 493 z m 338 -37 l 928 1006 l 820 1006 l 231 -37 z m 1123 78 l 911 78 b 966 125 922 89 941 105 b 1058 201 1016 164 1046 190 b 1108 270 1081 225 1098 248 b 1123 339 1118 291 1123 315 b 1073 441 1123 378 1106 413 b 929 485 1040 470 992 485 b 777 437 863 485 812 469 b 725 321 749 412 732 373 l 854 310 b 874 371 856 340 863 360 b 926 388 886 382 903 388 b 977 373 949 388 966 383 b 994 333 989 363 994 350 b 973 281 994 315 987 298 b 880 201 963 268 932 241 b 749 75 812 147 769 105 b 711 -28 729 44 716 10 l 1123 -28 z "},"¾":{"ha":1158,"x_min":0,"x_max":0,"o":"m 27 642 b 89 528 33 594 54 556 b 228 485 124 499 170 485 b 378 535 290 485 340 502 b 435 649 416 568 435 606 b 411 723 435 677 427 702 b 342 770 396 744 373 760 b 394 821 364 784 381 800 b 408 868 404 835 408 851 b 359 964 408 904 392 936 b 226 1006 326 992 282 1006 b 85 960 166 1006 119 991 b 35 861 63 940 46 907 l 155 843 b 178 894 159 867 166 884 b 222 909 189 904 204 909 b 264 897 241 909 255 905 b 279 865 274 889 279 878 b 270 838 279 855 276 846 b 242 818 265 830 255 823 b 186 811 228 813 210 811 l 171 712 b 233 722 198 719 219 722 b 283 703 253 722 270 716 b 302 655 296 691 302 675 b 282 602 302 633 296 616 b 229 582 269 589 251 582 b 177 600 207 582 190 588 b 152 655 164 612 156 630 z m 355 -37 l 943 1006 l 836 1006 l 247 -37 z m 951 -28 l 1072 -28 l 1072 71 l 1145 71 l 1145 169 l 1072 169 l 1072 485 l 966 485 l 707 166 l 707 71 l 951 71 z m 951 169 l 827 169 l 951 321 z "},"¿":{"ha":848,"x_min":0,"x_max":0,"o":"m 517 720 l 327 720 l 327 530 l 517 530 z m 345 464 b 331 353 346 411 341 374 b 258 274 322 332 297 306 b 140 166 204 230 165 194 b 86 84 115 139 97 111 b 68 -1 74 56 68 28 b 166 -199 68 -76 101 -142 b 427 -285 231 -256 318 -285 b 604 -248 491 -285 550 -273 b 734 -135 657 -224 701 -186 b 783 6 759 -97 775 -50 l 608 28 b 540 -99 595 -29 572 -72 b 419 -139 508 -126 467 -139 b 299 -99 369 -139 329 -126 b 254 -7 269 -73 254 -42 b 271 56 254 16 260 37 b 374 153 283 74 317 107 b 489 279 431 200 470 242 b 519 412 509 316 519 361 b 517 464 519 417 518 434 z "},"À":{"ha":1003,"x_min":0,"x_max":0,"o":"m 998 0 l 600 994 l 387 994 l 0 0 l 213 0 l 295 226 l 692 226 l 779 0 z m 628 393 l 357 393 l 491 762 z m 604 1051 l 511 1254 l 297 1254 l 484 1051 z "},"Á":{"ha":1003,"x_min":0,"x_max":0,"o":"m 998 0 l 600 994 l 387 994 l 0 0 l 213 0 l 295 226 l 692 226 l 779 0 z m 628 393 l 357 393 l 491 762 z m 376 1051 l 496 1051 l 683 1254 l 469 1254 z "},"Â":{"ha":1003,"x_min":0,"x_max":0,"o":"m 998 0 l 600 994 l 387 994 l 0 0 l 213 0 l 295 226 l 692 226 l 779 0 z m 628 393 l 357 393 l 491 762 z m 262 1051 l 416 1051 l 489 1152 l 568 1051 l 721 1051 l 581 1251 l 404 1251 z "},"Ã":{"ha":1003,"x_min":0,"x_max":0,"o":"m 998 0 l 600 994 l 387 994 l 0 0 l 213 0 l 295 226 l 692 226 l 779 0 z m 628 393 l 357 393 l 491 762 z m 336 1049 b 349 1095 336 1071 340 1086 b 382 1108 357 1104 368 1108 b 473 1084 401 1108 432 1100 b 551 1057 515 1069 541 1059 b 597 1052 566 1053 581 1052 b 683 1091 632 1052 661 1065 b 718 1222 706 1117 717 1161 l 629 1222 b 611 1177 627 1201 620 1186 b 574 1163 601 1168 589 1163 b 490 1187 554 1163 526 1171 b 416 1216 454 1203 429 1213 b 372 1221 402 1220 387 1221 b 283 1183 335 1221 306 1209 b 248 1074 260 1158 248 1121 b 249 1049 248 1068 248 1060 z "},"Ä":{"ha":1003,"x_min":0,"x_max":0,"o":"m 998 0 l 600 994 l 387 994 l 0 0 l 213 0 l 295 226 l 692 226 l 779 0 z m 628 393 l 357 393 l 491 762 z m 260 1051 l 423 1051 l 423 1215 l 260 1215 z m 551 1051 l 715 1051 l 715 1215 l 551 1215 z "},"Å":{"ha":1003,"x_min":0,"x_max":0,"o":"m 998 0 l 600 994 l 387 994 l 0 0 l 213 0 l 295 226 l 692 226 l 779 0 z m 628 393 l 357 393 l 491 762 z m 625 1059 b 586 1154 625 1096 612 1128 b 492 1192 560 1179 528 1192 b 398 1153 455 1192 424 1179 b 359 1059 372 1127 359 1096 b 398 965 359 1023 372 991 b 492 926 424 939 455 926 b 586 965 528 926 560 939 b 625 1059 612 991 625 1023 z m 552 1059 b 534 1017 552 1043 546 1028 b 492 999 523 1005 508 999 b 449 1017 475 999 461 1005 b 431 1059 437 1028 431 1043 b 449 1102 431 1076 437 1090 b 492 1120 461 1114 475 1120 b 534 1102 508 1120 523 1114 b 552 1059 546 1090 552 1076 z "},"Æ":{"ha":1389,"x_min":0,"x_max":0,"o":"m -58 0 l 164 0 l 266 234 l 610 234 l 610 0 l 1322 0 l 1322 168 l 811 168 l 811 437 l 1265 437 l 1265 605 l 811 605 l 811 826 l 1303 826 l 1303 994 l 406 994 z m 340 408 l 534 844 l 612 844 l 612 408 z "},"Ç":{"ha":1003,"x_min":0,"x_max":0,"o":"m 737 366 b 654 205 720 293 693 239 b 517 155 616 172 570 155 b 340 235 444 155 386 181 b 273 503 295 288 273 378 b 341 760 273 622 296 707 b 521 840 387 813 447 840 b 657 795 574 840 620 825 b 730 673 694 765 719 724 l 929 720 b 827 903 906 800 873 861 b 531 1011 751 975 653 1011 b 194 874 392 1011 279 965 b 66 488 109 782 66 654 b 193 118 66 332 108 209 b 519 -17 278 28 387 -17 b 783 62 625 -17 714 9 b 932 304 852 115 902 195 z m 315 -273 b 448 -284 345 -281 389 -284 b 636 -233 529 -284 592 -267 b 685 -136 669 -208 685 -176 b 641 -45 685 -101 670 -70 b 512 -8 611 -21 569 -8 b 398 -26 471 -8 433 -14 l 380 -94 b 469 -80 411 -85 440 -80 b 534 -97 499 -80 520 -86 b 555 -137 548 -108 555 -122 b 533 -179 555 -154 548 -168 b 444 -201 514 -194 484 -201 b 315 -193 405 -201 362 -198 z "},"È":{"ha":926,"x_min":0,"x_max":0,"o":"m 101 0 l 857 0 l 857 168 l 302 168 l 302 438 l 801 438 l 801 606 l 302 606 l 302 826 l 838 826 l 838 994 l 101 994 z m 585 1051 l 491 1254 l 277 1254 l 465 1051 z "},"É":{"ha":926,"x_min":0,"x_max":0,"o":"m 101 0 l 857 0 l 857 168 l 302 168 l 302 438 l 801 438 l 801 606 l 302 606 l 302 826 l 838 826 l 838 994 l 101 994 z m 356 1051 l 477 1051 l 663 1254 l 450 1254 z "},"Ê":{"ha":926,"x_min":0,"x_max":0,"o":"m 101 0 l 857 0 l 857 168 l 302 168 l 302 438 l 801 438 l 801 606 l 302 606 l 302 826 l 838 826 l 838 994 l 101 994 z m 229 1051 l 382 1051 l 456 1152 l 534 1051 l 688 1051 l 547 1251 l 371 1251 z "},"Ë":{"ha":926,"x_min":0,"x_max":0,"o":"m 101 0 l 857 0 l 857 168 l 302 168 l 302 438 l 801 438 l 801 606 l 302 606 l 302 826 l 838 826 l 838 994 l 101 994 z m 240 1051 l 404 1051 l 404 1215 l 240 1215 z m 532 1051 l 696 1051 l 696 1215 l 532 1215 z "},"Ì":{"ha":386,"x_min":0,"x_max":0,"o":"m 95 0 l 296 0 l 296 994 l 95 994 z m 300 1051 l 207 1254 l -7 1254 l 180 1051 z "},"Í":{"ha":386,"x_min":0,"x_max":0,"o":"m 95 0 l 296 0 l 296 994 l 95 994 z m 72 1051 l 193 1051 l 379 1254 l 165 1254 z "},"Î":{"ha":386,"x_min":0,"x_max":0,"o":"m 95 0 l 296 0 l 296 994 l 95 994 z m -28 1051 l 125 1051 l 199 1152 l 277 1051 l 431 1051 l 290 1251 l 114 1251 z "},"Ï":{"ha":386,"x_min":0,"x_max":0,"o":"m 95 0 l 296 0 l 296 994 l 95 994 z m -31 1051 l 133 1051 l 133 1215 l -31 1215 z m 261 1051 l 425 1051 l 425 1215 l 261 1215 z "},"Ð":{"ha":1003,"x_min":0,"x_max":0,"o":"m 101 994 l 101 560 l -2 560 l -2 434 l 101 434 l 101 0 l 478 0 b 656 21 553 0 612 7 b 797 99 715 40 762 66 b 900 263 842 143 876 198 b 935 485 923 329 935 403 b 903 720 935 578 924 656 b 809 881 882 783 851 837 b 659 975 767 926 717 957 b 467 994 615 988 551 994 z m 301 826 l 392 826 b 565 815 478 826 536 822 b 656 763 602 805 633 788 b 709 665 679 738 697 705 b 727 492 721 624 727 567 b 684 258 727 387 713 309 b 595 184 664 222 634 197 b 452 168 566 173 518 168 l 301 168 l 301 434 l 514 434 l 514 560 l 301 560 z "},"Ñ":{"ha":1003,"x_min":0,"x_max":0,"o":"m 103 0 l 290 0 l 290 648 l 690 0 l 892 0 l 892 994 l 705 994 l 705 330 l 298 994 l 103 994 z m 353 1049 b 366 1095 353 1071 357 1086 b 399 1108 374 1104 385 1108 b 490 1084 418 1108 449 1100 b 568 1057 532 1069 558 1059 b 614 1052 583 1053 598 1052 b 700 1091 649 1052 678 1065 b 734 1222 723 1117 734 1161 l 646 1222 b 628 1177 644 1201 637 1186 b 591 1163 618 1168 606 1163 b 507 1187 571 1163 543 1171 b 433 1216 471 1203 446 1213 b 389 1221 419 1220 404 1221 b 300 1183 352 1221 323 1209 b 265 1074 277 1158 265 1121 b 266 1049 265 1068 265 1060 z "},"Ò":{"ha":1080,"x_min":0,"x_max":0,"o":"m 60 491 b 191 118 60 333 104 209 b 544 -17 279 28 396 -17 b 894 119 690 -17 807 28 b 1025 496 981 210 1025 335 b 893 875 1025 658 981 784 b 541 1011 805 966 688 1011 b 327 972 460 1011 389 998 b 198 882 280 952 237 923 b 106 746 159 842 128 797 b 60 491 76 677 60 592 z m 267 498 b 343 754 267 612 293 698 b 543 840 394 811 460 840 b 742 755 626 840 692 812 b 817 500 792 699 817 614 b 740 241 817 385 792 299 b 543 155 689 183 623 155 b 345 242 463 155 397 184 b 267 498 293 300 267 385 z m 648 1051 l 554 1254 l 340 1254 l 528 1051 z "},"Ó":{"ha":1080,"x_min":0,"x_max":0,"o":"m 60 491 b 191 118 60 333 104 209 b 544 -17 279 28 396 -17 b 894 119 690 -17 807 28 b 1025 496 981 210 1025 335 b 893 875 1025 658 981 784 b 541 1011 805 966 688 1011 b 327 972 460 1011 389 998 b 198 882 280 952 237 923 b 106 746 159 842 128 797 b 60 491 76 677 60 592 z m 267 498 b 343 754 267 612 293 698 b 543 840 394 811 460 840 b 742 755 626 840 692 812 b 817 500 792 699 817 614 b 740 241 817 385 792 299 b 543 155 689 183 623 155 b 345 242 463 155 397 184 b 267 498 293 300 267 385 z m 419 1051 l 540 1051 l 726 1254 l 513 1254 z "},"Ô":{"ha":1080,"x_min":0,"x_max":0,"o":"m 60 491 b 191 118 60 333 104 209 b 544 -17 279 28 396 -17 b 894 119 690 -17 807 28 b 1025 496 981 210 1025 335 b 893 875 1025 658 981 784 b 541 1011 805 966 688 1011 b 327 972 460 1011 389 998 b 198 882 280 952 237 923 b 106 746 159 842 128 797 b 60 491 76 677 60 592 z m 267 498 b 343 754 267 612 293 698 b 543 840 394 811 460 840 b 742 755 626 840 692 812 b 817 500 792 699 817 614 b 740 241 817 385 792 299 b 543 155 689 183 623 155 b 345 242 463 155 397 184 b 267 498 293 300 267 385 z m 305 1051 l 459 1051 l 532 1152 l 611 1051 l 764 1051 l 624 1251 l 448 1251 z "},"Õ":{"ha":1080,"x_min":0,"x_max":0,"o":"m 60 491 b 191 118 60 333 104 209 b 544 -17 279 28 396 -17 b 894 119 690 -17 807 28 b 1025 496 981 210 1025 335 b 893 875 1025 658 981 784 b 541 1011 805 966 688 1011 b 327 972 460 1011 389 998 b 198 882 280 952 237 923 b 106 746 159 842 128 797 b 60 491 76 677 60 592 z m 267 498 b 343 754 267 612 293 698 b 543 840 394 811 460 840 b 742 755 626 840 692 812 b 817 500 792 699 817 614 b 740 241 817 385 792 299 b 543 155 689 183 623 155 b 345 242 463 155 397 184 b 267 498 293 300 267 385 z m 379 1049 b 392 1095 380 1071 384 1086 b 426 1108 400 1104 411 1108 b 517 1084 445 1108 475 1100 b 595 1057 558 1069 584 1059 b 640 1052 610 1053 625 1052 b 727 1091 675 1052 704 1065 b 761 1222 749 1117 760 1161 l 673 1222 b 654 1177 670 1201 664 1186 b 618 1163 644 1168 632 1163 b 533 1187 597 1163 569 1171 b 459 1216 497 1203 473 1213 b 415 1221 446 1220 431 1221 b 326 1183 379 1221 349 1209 b 292 1074 303 1158 292 1121 b 292 1049 292 1068 292 1060 z "},"Ö":{"ha":1080,"x_min":0,"x_max":0,"o":"m 60 491 b 191 118 60 333 104 209 b 544 -17 279 28 396 -17 b 894 119 690 -17 807 28 b 1025 496 981 210 1025 335 b 893 875 1025 658 981 784 b 541 1011 805 966 688 1011 b 327 972 460 1011 389 998 b 198 882 280 952 237 923 b 106 746 159 842 128 797 b 60 491 76 677 60 592 z m 267 498 b 343 754 267 612 293 698 b 543 840 394 811 460 840 b 742 755 626 840 692 812 b 817 500 792 699 817 614 b 740 241 817 385 792 299 b 543 155 689 183 623 155 b 345 242 463 155 397 184 b 267 498 293 300 267 385 z m 303 1051 l 467 1051 l 467 1215 l 303 1215 z m 595 1051 l 759 1051 l 759 1215 l 595 1215 z "},"×":{"ha":811,"x_min":0,"x_max":0,"o":"m 75 285 l 198 161 l 403 366 l 610 159 l 736 286 l 529 492 l 734 697 l 611 821 l 406 616 l 200 821 l 74 695 l 280 490 z "},"Ø":{"ha":1080,"x_min":0,"x_max":0,"o":"m 840 922 b 540 1011 761 981 661 1011 b 191 875 394 1011 278 966 b 60 503 103 784 60 660 b 159 159 60 362 93 247 l 43 28 l 139 -56 l 249 68 b 547 -17 323 11 423 -17 b 893 119 691 -17 806 28 b 1024 492 980 210 1024 334 b 999 681 1024 559 1016 622 b 928 831 982 741 959 791 l 1042 959 l 947 1042 z m 715 782 l 298 314 b 267 498 277 365 267 427 b 342 755 267 613 292 698 b 542 840 393 812 460 840 b 715 782 612 840 670 821 z m 789 675 b 817 494 807 628 817 568 b 739 233 817 379 791 292 b 541 146 687 175 621 146 b 372 207 475 146 419 166 z "},"Ù":{"ha":1003,"x_min":0,"x_max":0,"o":"m 100 994 l 100 464 b 119 212 100 353 106 269 b 176 101 128 173 147 136 b 292 16 204 66 243 38 b 508 -17 341 -6 413 -17 b 699 13 587 -17 650 -7 b 816 94 748 33 787 60 b 876 219 845 128 865 170 b 892 472 887 268 892 353 l 892 994 l 692 994 l 692 444 b 683 275 692 366 689 309 b 631 190 677 241 660 213 b 502 155 602 166 559 155 b 369 192 446 155 402 167 b 308 290 337 216 316 249 b 300 456 303 315 300 370 l 300 994 z m 602 1051 l 508 1254 l 294 1254 l 481 1051 z "},"Ú":{"ha":1003,"x_min":0,"x_max":0,"o":"m 100 994 l 100 464 b 119 212 100 353 106 269 b 176 101 128 173 147 136 b 292 16 204 66 243 38 b 508 -17 341 -6 413 -17 b 699 13 587 -17 650 -7 b 816 94 748 33 787 60 b 876 219 845 128 865 170 b 892 472 887 268 892 353 l 892 994 l 692 994 l 692 444 b 683 275 692 366 689 309 b 631 190 677 241 660 213 b 502 155 602 166 559 155 b 369 192 446 155 402 167 b 308 290 337 216 316 249 b 300 456 303 315 300 370 l 300 994 z m 373 1051 l 494 1051 l 680 1254 l 467 1254 z "},"Û":{"ha":1003,"x_min":0,"x_max":0,"o":"m 100 994 l 100 464 b 119 212 100 353 106 269 b 176 101 128 173 147 136 b 292 16 204 66 243 38 b 508 -17 341 -6 413 -17 b 699 13 587 -17 650 -7 b 816 94 748 33 787 60 b 876 219 845 128 865 170 b 892 472 887 268 892 353 l 892 994 l 692 994 l 692 444 b 683 275 692 366 689 309 b 631 190 677 241 660 213 b 502 155 602 166 559 155 b 369 192 446 155 402 167 b 308 290 337 216 316 249 b 300 456 303 315 300 370 l 300 994 z m 273 1051 l 427 1051 l 500 1152 l 578 1051 l 732 1051 l 591 1251 l 415 1251 z "},"Ü":{"ha":1003,"x_min":0,"x_max":0,"o":"m 100 994 l 100 464 b 119 212 100 353 106 269 b 176 101 128 173 147 136 b 292 16 204 66 243 38 b 508 -17 341 -6 413 -17 b 699 13 587 -17 650 -7 b 816 94 748 33 787 60 b 876 219 845 128 865 170 b 892 472 887 268 892 353 l 892 994 l 692 994 l 692 444 b 683 275 692 366 689 309 b 631 190 677 241 660 213 b 502 155 602 166 559 155 b 369 192 446 155 402 167 b 308 290 337 216 316 249 b 300 456 303 315 300 370 l 300 994 z m 271 1051 l 434 1051 l 434 1215 l 271 1215 z m 562 1051 l 726 1051 l 726 1215 l 562 1215 z "},"Ý":{"ha":926,"x_min":0,"x_max":0,"o":"m 362 0 l 562 0 l 562 417 l 928 994 l 696 994 l 467 601 l 233 994 l -2 994 l 362 418 z m 336 1051 l 456 1051 l 643 1254 l 429 1254 z "},"Þ":{"ha":926,"x_min":0,"x_max":0,"o":"m 101 0 l 302 0 l 302 187 l 433 187 b 641 202 524 187 593 192 b 745 249 676 209 711 225 b 829 347 779 273 807 306 b 863 500 852 389 863 440 b 805 694 863 580 844 644 b 663 792 767 744 720 777 b 423 807 625 802 545 807 l 302 807 l 302 994 l 101 994 z m 302 639 l 399 639 b 575 627 494 639 553 635 b 632 580 598 618 617 603 b 656 500 648 557 656 531 b 626 408 656 462 646 431 b 555 363 607 385 583 370 b 412 356 534 359 487 356 l 302 356 z "},"ß":{"ha":848,"x_min":0,"x_max":0,"o":"m 94 0 l 285 0 l 285 646 b 297 799 285 723 289 774 b 331 844 303 817 314 833 b 389 862 347 856 367 862 b 449 841 414 862 434 855 b 471 790 464 827 471 810 b 465 751 471 777 469 763 b 425 661 461 738 448 708 b 380 530 395 600 380 556 b 495 357 380 488 419 430 b 589 262 550 305 581 274 b 609 206 602 243 609 225 b 590 156 609 186 603 170 b 543 136 577 143 561 136 b 504 150 529 136 516 141 b 472 190 492 159 481 172 l 339 112 b 428 21 359 76 389 45 b 559 -16 467 -4 511 -16 b 731 50 628 -16 686 6 b 800 214 777 94 800 149 b 775 317 800 250 791 284 b 680 437 759 350 727 390 b 599 524 633 485 606 514 b 582 571 588 541 582 556 b 587 597 582 578 584 587 b 630 679 591 607 605 634 b 667 806 654 724 667 766 b 598 952 667 864 644 913 b 391 1011 552 991 484 1011 b 212 967 318 1011 258 996 b 118 852 165 937 134 899 b 94 646 102 805 94 736 z "},"à":{"ha":772,"x_min":0,"x_max":0,"o":"m 242 500 b 288 571 254 534 269 557 b 368 591 307 584 334 591 b 470 567 418 591 452 583 b 497 489 488 552 497 526 l 497 470 b 312 423 463 456 401 440 b 160 379 246 411 195 396 b 79 306 125 362 98 337 b 50 197 59 274 50 237 b 114 44 50 135 71 84 b 289 -16 156 4 215 -16 b 408 7 331 -16 371 -8 b 512 79 445 23 479 47 b 519 56 513 75 516 68 b 537 0 526 31 532 13 l 726 0 b 691 97 709 34 697 67 b 682 237 685 127 682 173 l 684 459 b 659 630 684 542 676 599 b 571 706 642 661 613 686 b 381 736 529 726 466 736 b 170 686 288 736 217 720 b 69 532 122 653 89 601 z m 497 346 l 497 308 b 490 215 497 262 495 231 b 444 152 482 190 467 169 b 346 118 413 129 380 118 b 270 147 315 118 290 128 b 240 216 250 167 240 190 b 277 283 240 243 253 266 b 381 317 294 294 328 305 b 497 346 434 328 473 338 z m 484 808 l 390 1011 l 176 1011 l 363 808 z "},"á":{"ha":772,"x_min":0,"x_max":0,"o":"m 242 500 b 288 571 254 534 269 557 b 368 591 307 584 334 591 b 470 567 418 591 452 583 b 497 489 488 552 497 526 l 497 470 b 312 423 463 456 401 440 b 160 379 246 411 195 396 b 79 306 125 362 98 337 b 50 197 59 274 50 237 b 114 44 50 135 71 84 b 289 -16 156 4 215 -16 b 408 7 331 -16 371 -8 b 512 79 445 23 479 47 b 519 56 513 75 516 68 b 537 0 526 31 532 13 l 726 0 b 691 97 709 34 697 67 b 682 237 685 127 682 173 l 684 459 b 659 630 684 542 676 599 b 571 706 642 661 613 686 b 381 736 529 726 466 736 b 170 686 288 736 217 720 b 69 532 122 653 89 601 z m 497 346 l 497 308 b 490 215 497 262 495 231 b 444 152 482 190 467 169 b 346 118 413 129 380 118 b 270 147 315 118 290 128 b 240 216 250 167 240 190 b 277 283 240 243 253 266 b 381 317 294 294 328 305 b 497 346 434 328 473 338 z m 291 808 l 412 808 l 598 1011 l 385 1011 z "},"â":{"ha":772,"x_min":0,"x_max":0,"o":"m 242 500 b 288 571 254 534 269 557 b 368 591 307 584 334 591 b 470 567 418 591 452 583 b 497 489 488 552 497 526 l 497 470 b 312 423 463 456 401 440 b 160 379 246 411 195 396 b 79 306 125 362 98 337 b 50 197 59 274 50 237 b 114 44 50 135 71 84 b 289 -16 156 4 215 -16 b 408 7 331 -16 371 -8 b 512 79 445 23 479 47 b 519 56 513 75 516 68 b 537 0 526 31 532 13 l 726 0 b 691 97 709 34 697 67 b 682 237 685 127 682 173 l 684 459 b 659 630 684 542 676 599 b 571 706 642 661 613 686 b 381 736 529 726 466 736 b 170 686 288 736 217 720 b 69 532 122 653 89 601 z m 497 346 l 497 308 b 490 215 497 262 495 231 b 444 152 482 190 467 169 b 346 118 413 129 380 118 b 270 147 315 118 290 128 b 240 216 250 167 240 190 b 277 283 240 243 253 266 b 381 317 294 294 328 305 b 497 346 434 328 473 338 z m 158 811 l 312 811 l 385 912 l 464 811 l 617 811 l 477 1011 l 300 1011 z "},"ã":{"ha":772,"x_min":0,"x_max":0,"o":"m 242 500 b 288 571 254 534 269 557 b 368 591 307 584 334 591 b 470 567 418 591 452 583 b 497 489 488 552 497 526 l 497 470 b 312 423 463 456 401 440 b 160 379 246 411 195 396 b 79 306 125 362 98 337 b 50 197 59 274 50 237 b 114 44 50 135 71 84 b 289 -16 156 4 215 -16 b 408 7 331 -16 371 -8 b 512 79 445 23 479 47 b 519 56 513 75 516 68 b 537 0 526 31 532 13 l 726 0 b 691 97 709 34 697 67 b 682 237 685 127 682 173 l 684 459 b 659 630 684 542 676 599 b 571 706 642 661 613 686 b 381 736 529 726 466 736 b 170 686 288 736 217 720 b 69 532 122 653 89 601 z m 497 346 l 497 308 b 490 215 497 262 495 231 b 444 152 482 190 467 169 b 346 118 413 129 380 118 b 270 147 315 118 290 128 b 240 216 250 167 240 190 b 277 283 240 243 253 266 b 381 317 294 294 328 305 b 497 346 434 328 473 338 z m 241 817 b 254 863 241 839 245 854 b 288 876 262 872 273 876 b 378 852 307 876 337 868 b 456 825 420 837 446 827 b 502 820 471 821 486 820 b 588 859 537 820 566 833 b 623 990 611 885 622 929 l 534 990 b 516 945 532 969 525 954 b 479 931 506 936 494 931 b 395 955 459 931 431 939 b 321 984 359 971 334 981 b 277 989 307 988 293 989 b 188 951 241 989 211 977 b 153 842 165 926 153 889 b 154 817 153 836 153 828 z "},"ä":{"ha":772,"x_min":0,"x_max":0,"o":"m 242 500 b 288 571 254 534 269 557 b 368 591 307 584 334 591 b 470 567 418 591 452 583 b 497 489 488 552 497 526 l 497 470 b 312 423 463 456 401 440 b 160 379 246 411 195 396 b 79 306 125 362 98 337 b 50 197 59 274 50 237 b 114 44 50 135 71 84 b 289 -16 156 4 215 -16 b 408 7 331 -16 371 -8 b 512 79 445 23 479 47 b 519 56 513 75 516 68 b 537 0 526 31 532 13 l 726 0 b 691 97 709 34 697 67 b 682 237 685 127 682 173 l 684 459 b 659 630 684 542 676 599 b 571 706 642 661 613 686 b 381 736 529 726 466 736 b 170 686 288 736 217 720 b 69 532 122 653 89 601 z m 497 346 l 497 308 b 490 215 497 262 495 231 b 444 152 482 190 467 169 b 346 118 413 129 380 118 b 270 147 315 118 290 128 b 240 216 250 167 240 190 b 277 283 240 243 253 266 b 381 317 294 294 328 305 b 497 346 434 328 473 338 z m 160 848 l 323 848 l 323 1011 l 160 1011 z m 452 848 l 616 848 l 616 1011 l 452 1011 z "},"å":{"ha":772,"x_min":0,"x_max":0,"o":"m 242 500 b 288 571 254 534 269 557 b 368 591 307 584 334 591 b 470 567 418 591 452 583 b 497 489 488 552 497 526 l 497 470 b 312 423 463 456 401 440 b 160 379 246 411 195 396 b 79 306 125 362 98 337 b 50 197 59 274 50 237 b 114 44 50 135 71 84 b 289 -16 156 4 215 -16 b 408 7 331 -16 371 -8 b 512 79 445 23 479 47 b 519 56 513 75 516 68 b 537 0 526 31 532 13 l 726 0 b 691 97 709 34 697 67 b 682 237 685 127 682 173 l 684 459 b 659 630 684 542 676 599 b 571 706 642 661 613 686 b 381 736 529 726 466 736 b 170 686 288 736 217 720 b 69 532 122 653 89 601 z m 497 346 l 497 308 b 490 215 497 262 495 231 b 444 152 482 190 467 169 b 346 118 413 129 380 118 b 270 147 315 118 290 128 b 240 216 250 167 240 190 b 277 283 240 243 253 266 b 381 317 294 294 328 305 b 497 346 434 328 473 338 z m 520 910 b 481 1004 520 947 507 979 b 387 1043 455 1030 424 1043 b 293 1004 351 1043 319 1030 b 254 910 267 978 254 947 b 293 816 254 873 267 842 b 387 777 319 790 351 777 b 481 816 424 777 455 790 b 520 910 507 842 520 873 z m 448 910 b 430 867 448 893 442 879 b 387 850 418 856 404 850 b 345 867 371 850 356 856 b 327 910 333 879 327 893 b 345 953 327 927 333 941 b 387 970 356 965 371 970 b 430 953 404 970 418 965 b 448 910 442 941 448 927 z "},"æ":{"ha":1235,"x_min":0,"x_max":0,"o":"m 974 230 b 922 154 962 196 945 170 b 840 129 900 137 872 129 b 742 170 801 129 769 143 b 690 304 715 198 698 242 l 1169 304 b 1127 556 1170 412 1155 496 b 1009 691 1098 615 1059 660 b 825 736 959 721 898 736 b 720 720 788 736 753 731 b 629 670 687 709 657 692 b 535 720 603 692 572 709 b 409 736 498 731 456 736 b 187 687 309 736 235 720 b 80 534 138 655 103 603 l 253 500 b 298 569 262 531 277 554 b 385 591 320 583 348 591 b 475 565 426 591 456 582 b 503 487 494 548 503 522 l 503 468 b 389 438 472 458 433 448 b 227 401 299 420 245 407 b 137 360 189 390 159 376 b 82 293 116 344 98 321 b 60 195 67 264 60 232 b 124 44 60 134 81 84 b 304 -16 167 4 227 -16 b 461 13 358 -16 410 -7 b 585 83 512 32 553 55 b 702 8 620 50 659 25 b 842 -16 745 -8 792 -16 b 1043 37 924 -16 991 1 b 1160 197 1095 72 1135 126 z m 981 423 l 694 423 b 715 516 692 452 700 483 b 763 572 727 541 743 560 b 833 591 783 584 807 591 b 914 569 864 591 891 583 b 965 509 937 555 954 535 b 981 423 973 492 979 463 z m 502 345 b 493 209 502 278 499 233 b 451 150 487 185 473 166 b 357 118 422 129 390 118 b 280 146 325 118 299 127 b 250 213 260 164 250 187 b 268 262 250 232 256 248 b 332 298 280 276 301 288 b 502 345 341 302 397 317 z "},"ç":{"ha":772,"x_min":0,"x_max":0,"o":"m 728 507 b 616 680 705 585 668 642 b 407 736 564 718 495 736 b 152 637 300 736 215 703 b 58 359 89 571 58 478 b 152 83 58 242 89 150 b 404 -16 214 17 298 -16 b 625 50 496 -16 570 6 b 737 244 680 93 718 158 l 550 276 b 501 170 541 226 524 190 b 412 139 478 149 448 139 b 297 192 364 139 325 157 b 254 373 268 227 254 288 b 296 537 254 450 268 505 b 410 587 324 570 362 587 b 497 558 445 587 474 577 b 540 473 519 539 533 511 z m 214 -273 b 347 -284 244 -281 288 -284 b 535 -233 428 -284 491 -267 b 584 -136 568 -208 584 -176 b 540 -45 584 -101 569 -70 b 411 -8 510 -21 467 -8 b 297 -26 370 -8 332 -14 l 279 -94 b 368 -80 310 -85 339 -80 b 433 -97 398 -80 419 -86 b 454 -137 447 -108 454 -122 b 432 -179 454 -154 447 -168 b 342 -201 413 -194 383 -201 b 214 -193 304 -201 261 -198 z "},"è":{"ha":772,"x_min":0,"x_max":0,"o":"m 517 229 b 471 151 506 193 491 167 b 395 126 450 134 425 126 b 286 173 352 126 315 142 b 239 305 256 205 241 249 l 717 305 b 628 630 720 451 690 560 b 374 736 566 701 481 736 b 138 635 279 736 200 703 b 44 355 75 568 44 474 b 115 106 44 255 68 172 b 393 -16 175 25 268 -16 b 591 38 472 -16 538 2 b 707 197 644 75 682 128 z m 528 422 l 243 422 b 283 545 242 474 256 515 b 386 591 310 576 344 591 b 485 548 425 591 458 576 b 528 422 512 519 526 477 z m 477 808 l 383 1011 l 170 1011 l 357 808 z "},"é":{"ha":772,"x_min":0,"x_max":0,"o":"m 517 229 b 471 151 506 193 491 167 b 395 126 450 134 425 126 b 286 173 352 126 315 142 b 239 305 256 205 241 249 l 717 305 b 628 630 720 451 690 560 b 374 736 566 701 481 736 b 138 635 279 736 200 703 b 44 355 75 568 44 474 b 115 106 44 255 68 172 b 393 -16 175 25 268 -16 b 591 38 472 -16 538 2 b 707 197 644 75 682 128 z m 528 422 l 243 422 b 283 545 242 474 256 515 b 386 591 310 576 344 591 b 485 548 425 591 458 576 b 528 422 512 519 526 477 z m 284 808 l 405 808 l 591 1011 l 378 1011 z "},"ê":{"ha":772,"x_min":0,"x_max":0,"o":"m 517 229 b 471 151 506 193 491 167 b 395 126 450 134 425 126 b 286 173 352 126 315 142 b 239 305 256 205 241 249 l 717 305 b 628 630 720 451 690 560 b 374 736 566 701 481 736 b 138 635 279 736 200 703 b 44 355 75 568 44 474 b 115 106 44 255 68 172 b 393 -16 175 25 268 -16 b 591 38 472 -16 538 2 b 707 197 644 75 682 128 z m 528 422 l 243 422 b 283 545 242 474 256 515 b 386 591 310 576 344 591 b 485 548 425 591 458 576 b 528 422 512 519 526 477 z m 151 811 l 305 811 l 378 912 l 457 811 l 610 811 l 470 1011 l 294 1011 z "},"ë":{"ha":772,"x_min":0,"x_max":0,"o":"m 517 229 b 471 151 506 193 491 167 b 395 126 450 134 425 126 b 286 173 352 126 315 142 b 239 305 256 205 241 249 l 717 305 b 628 630 720 451 690 560 b 374 736 566 701 481 736 b 138 635 279 736 200 703 b 44 355 75 568 44 474 b 115 106 44 255 68 172 b 393 -16 175 25 268 -16 b 591 38 472 -16 538 2 b 707 197 644 75 682 128 z m 528 422 l 243 422 b 283 545 242 474 256 515 b 386 591 310 576 344 591 b 485 548 425 591 458 576 b 528 422 512 519 526 477 z m 153 848 l 316 848 l 316 1011 l 153 1011 z m 444 848 l 608 848 l 608 1011 l 444 1011 z "},"ì":{"ha":386,"x_min":0,"x_max":0,"o":"m 100 0 l 290 0 l 290 720 l 100 720 z m 292 808 l 198 1011 l -16 1011 l 172 808 z "},"í":{"ha":386,"x_min":0,"x_max":0,"o":"m 100 0 l 290 0 l 290 720 l 100 720 z m 85 808 l 206 808 l 393 1011 l 179 1011 z "},"î":{"ha":386,"x_min":0,"x_max":0,"o":"m 100 0 l 290 0 l 290 720 l 100 720 z m -35 811 l 119 811 l 193 912 l 271 811 l 425 811 l 284 1011 l 108 1011 z "},"ï":{"ha":386,"x_min":0,"x_max":0,"o":"m 100 0 l 290 0 l 290 720 l 100 720 z m -33 848 l 131 848 l 131 1011 l -33 1011 z m 259 848 l 423 848 l 423 1011 l 259 1011 z "},"ð":{"ha":848,"x_min":0,"x_max":0,"o":"m 225 994 b 373 875 279 956 328 916 l 225 805 l 254 740 l 424 821 b 479 747 449 789 467 765 b 523 673 491 730 505 705 b 446 709 490 692 464 704 b 372 720 421 717 397 720 b 166 632 296 720 227 691 b 56 361 93 562 56 471 b 160 89 56 250 91 159 b 422 -17 229 18 316 -17 b 692 89 533 -17 623 18 b 797 370 762 160 797 254 b 740 620 797 448 778 532 b 553 882 702 707 640 795 l 651 928 l 621 994 l 498 934 b 424 994 474 954 450 974 z m 255 359 b 304 515 255 426 271 478 b 423 570 337 552 377 570 b 547 512 471 570 512 551 b 599 353 581 473 599 420 b 548 195 599 286 582 233 b 425 138 514 157 473 138 b 304 195 377 138 337 157 b 255 359 271 233 255 288 z "},"ñ":{"ha":848,"x_min":0,"x_max":0,"o":"m 755 0 l 755 448 b 744 576 755 503 751 546 b 707 656 737 606 725 632 b 628 714 689 679 663 699 b 513 736 593 729 555 736 b 275 614 417 736 338 696 l 275 720 l 98 720 l 98 0 l 289 0 l 289 326 b 303 492 289 407 294 462 b 357 564 313 522 331 545 b 446 591 384 582 413 591 b 512 572 472 591 494 584 b 552 518 531 559 544 541 b 564 368 560 496 564 445 l 564 0 z m 279 817 b 292 863 280 839 284 854 b 326 876 300 872 312 876 b 417 852 345 876 375 868 b 495 825 459 837 485 827 b 541 820 510 821 525 820 b 627 859 576 820 605 833 b 661 990 649 885 661 929 l 573 990 b 554 945 570 969 564 954 b 518 931 545 936 533 931 b 434 955 498 931 470 939 b 359 984 398 971 373 981 b 315 989 346 988 331 989 b 227 951 279 989 250 977 b 192 842 203 926 192 889 b 193 817 192 836 192 828 z "},"ò":{"ha":848,"x_min":0,"x_max":0,"o":"m 56 370 b 102 160 56 288 71 217 b 239 28 134 102 179 58 b 428 -16 299 -1 362 -16 b 693 91 535 -16 623 20 b 799 362 764 163 799 253 b 694 630 799 470 764 560 b 427 736 625 701 536 736 b 235 690 356 736 292 721 b 102 554 178 659 134 613 b 56 370 71 495 56 434 z m 251 360 b 302 524 251 432 268 486 b 427 581 336 562 378 581 b 552 524 477 581 519 562 b 603 361 586 486 603 432 b 552 196 603 289 586 234 b 427 139 519 158 477 139 b 302 196 378 139 336 158 b 251 360 268 234 251 289 z m 523 808 l 429 1011 l 216 1011 l 403 808 z "},"ó":{"ha":848,"x_min":0,"x_max":0,"o":"m 56 370 b 102 160 56 288 71 217 b 239 28 134 102 179 58 b 428 -16 299 -1 362 -16 b 693 91 535 -16 623 20 b 799 362 764 163 799 253 b 694 630 799 470 764 560 b 427 736 625 701 536 736 b 235 690 356 736 292 721 b 102 554 178 659 134 613 b 56 370 71 495 56 434 z m 251 360 b 302 524 251 432 268 486 b 427 581 336 562 378 581 b 552 524 477 581 519 562 b 603 361 586 486 603 432 b 552 196 603 289 586 234 b 427 139 519 158 477 139 b 302 196 378 139 336 158 b 251 360 268 234 251 289 z m 331 808 l 452 808 l 638 1011 l 425 1011 z "},"ô":{"ha":848,"x_min":0,"x_max":0,"o":"m 56 370 b 102 160 56 288 71 217 b 239 28 134 102 179 58 b 428 -16 299 -1 362 -16 b 693 91 535 -16 623 20 b 799 362 764 163 799 253 b 694 630 799 470 764 560 b 427 736 625 701 536 736 b 235 690 356 736 292 721 b 102 554 178 659 134 613 b 56 370 71 495 56 434 z m 251 360 b 302 524 251 432 268 486 b 427 581 336 562 378 581 b 552 524 477 581 519 562 b 603 361 586 486 603 432 b 552 196 603 289 586 234 b 427 139 519 158 477 139 b 302 196 378 139 336 158 b 251 360 268 234 251 289 z m 197 811 l 351 811 l 425 912 l 503 811 l 656 811 l 516 1011 l 340 1011 z "},"õ":{"ha":848,"x_min":0,"x_max":0,"o":"m 56 370 b 102 160 56 288 71 217 b 239 28 134 102 179 58 b 428 -16 299 -1 362 -16 b 693 91 535 -16 623 20 b 799 362 764 163 799 253 b 694 630 799 470 764 560 b 427 736 625 701 536 736 b 235 690 356 736 292 721 b 102 554 178 659 134 613 b 56 370 71 495 56 434 z m 251 360 b 302 524 251 432 268 486 b 427 581 336 562 378 581 b 552 524 477 581 519 562 b 603 361 586 486 603 432 b 552 196 603 289 586 234 b 427 139 519 158 477 139 b 302 196 378 139 336 158 b 251 360 268 234 251 289 z m 280 817 b 293 863 281 839 285 854 b 327 876 301 872 312 876 b 418 852 346 876 376 868 b 496 825 459 837 485 827 b 541 820 511 821 526 820 b 628 859 576 820 605 833 b 662 990 650 885 661 929 l 574 990 b 555 945 571 969 565 954 b 519 931 545 936 533 931 b 434 955 498 931 470 939 b 360 984 398 971 374 981 b 316 989 347 988 332 989 b 227 951 280 989 250 977 b 193 842 204 926 193 889 b 193 817 193 836 193 828 z "},"ö":{"ha":848,"x_min":0,"x_max":0,"o":"m 56 370 b 102 160 56 288 71 217 b 239 28 134 102 179 58 b 428 -16 299 -1 362 -16 b 693 91 535 -16 623 20 b 799 362 764 163 799 253 b 694 630 799 470 764 560 b 427 736 625 701 536 736 b 235 690 356 736 292 721 b 102 554 178 659 134 613 b 56 370 71 495 56 434 z m 251 360 b 302 524 251 432 268 486 b 427 581 336 562 378 581 b 552 524 477 581 519 562 b 603 361 586 486 603 432 b 552 196 603 289 586 234 b 427 139 519 158 477 139 b 302 196 378 139 336 158 b 251 360 268 234 251 289 z m 192 848 l 355 848 l 355 1011 l 192 1011 z m 484 848 l 648 848 l 648 1011 l 484 1011 z "},"÷":{"ha":762,"x_min":0,"x_max":0,"o":"m 286 665 l 476 665 l 476 856 l 286 856 z m 33 401 l 728 401 l 728 580 l 33 580 z m 286 125 l 476 125 l 476 316 l 286 316 z "},"ø":{"ha":848,"x_min":0,"x_max":0,"o":"m 642 677 b 430 736 581 717 510 736 b 163 632 321 736 232 702 b 59 364 94 562 59 473 b 82 224 59 316 67 269 b 146 106 98 178 119 139 l 68 15 l 142 -50 l 220 41 b 429 -16 281 3 351 -16 b 696 91 536 -16 625 19 b 802 359 767 162 802 252 b 779 498 802 408 794 454 b 715 612 763 542 742 580 l 788 696 l 712 759 z m 534 554 l 267 245 b 248 366 255 281 248 321 b 301 532 248 437 266 492 b 431 591 337 571 380 591 b 534 554 470 591 504 578 z m 593 471 b 613 355 606 436 613 397 b 560 190 613 284 595 229 b 429 132 525 151 481 132 b 327 164 391 132 357 142 z "},"ù":{"ha":848,"x_min":0,"x_max":0,"o":"m 574 0 l 751 0 l 751 720 l 560 720 l 560 416 b 546 222 560 313 555 249 b 493 156 536 196 519 173 b 406 129 467 138 438 129 b 335 149 377 129 354 136 b 297 203 316 162 304 180 b 286 389 290 226 286 288 l 286 720 l 96 720 l 96 264 b 121 105 96 197 104 144 b 205 16 139 67 166 37 b 335 -16 243 -6 287 -16 b 470 17 382 -16 428 -5 b 574 108 513 39 548 69 z m 519 808 l 426 1011 l 212 1011 l 399 808 z "},"ú":{"ha":848,"x_min":0,"x_max":0,"o":"m 574 0 l 751 0 l 751 720 l 560 720 l 560 416 b 546 222 560 313 555 249 b 493 156 536 196 519 173 b 406 129 467 138 438 129 b 335 149 377 129 354 136 b 297 203 316 162 304 180 b 286 389 290 226 286 288 l 286 720 l 96 720 l 96 264 b 121 105 96 197 104 144 b 205 16 139 67 166 37 b 335 -16 243 -6 287 -16 b 470 17 382 -16 428 -5 b 574 108 513 39 548 69 z m 327 808 l 448 808 l 634 1011 l 420 1011 z "},"û":{"ha":848,"x_min":0,"x_max":0,"o":"m 574 0 l 751 0 l 751 720 l 560 720 l 560 416 b 546 222 560 313 555 249 b 493 156 536 196 519 173 b 406 129 467 138 438 129 b 335 149 377 129 354 136 b 297 203 316 162 304 180 b 286 389 290 226 286 288 l 286 720 l 96 720 l 96 264 b 121 105 96 197 104 144 b 205 16 139 67 166 37 b 335 -16 243 -6 287 -16 b 470 17 382 -16 428 -5 b 574 108 513 39 548 69 z m 194 811 l 348 811 l 421 912 l 500 811 l 653 811 l 513 1011 l 336 1011 z "},"ü":{"ha":848,"x_min":0,"x_max":0,"o":"m 574 0 l 751 0 l 751 720 l 560 720 l 560 416 b 546 222 560 313 555 249 b 493 156 536 196 519 173 b 406 129 467 138 438 129 b 335 149 377 129 354 136 b 297 203 316 162 304 180 b 286 389 290 226 286 288 l 286 720 l 96 720 l 96 264 b 121 105 96 197 104 144 b 205 16 139 67 166 37 b 335 -16 243 -6 287 -16 b 470 17 382 -16 428 -5 b 574 108 513 39 548 69 z m 195 848 l 359 848 l 359 1011 l 195 1011 z m 487 848 l 651 848 l 651 1011 l 487 1011 z "},"ý":{"ha":772,"x_min":0,"x_max":0,"o":"m 9 720 l 283 -2 b 235 -101 272 -42 256 -75 b 136 -140 213 -127 181 -140 b 56 -132 112 -140 85 -137 l 73 -281 b 180 -292 108 -288 144 -292 b 278 -281 217 -292 249 -288 b 350 -249 306 -273 331 -262 b 402 -195 370 -235 387 -217 b 450 -98 418 -172 434 -140 l 496 27 l 750 720 l 553 720 l 385 209 l 212 720 z m 283 808 l 404 808 l 591 1011 l 377 1011 z "},"þ":{"ha":848,"x_min":0,"x_max":0,"o":"m 94 994 l 94 -274 l 285 -274 l 285 89 b 387 7 321 50 355 23 b 495 -16 419 -8 455 -16 b 709 84 579 -16 650 17 b 797 364 767 150 797 244 b 709 638 797 481 768 573 b 496 736 651 704 580 736 b 388 714 456 736 420 729 b 285 636 357 700 322 674 l 285 994 z m 283 376 b 329 537 283 448 299 502 b 443 591 359 573 397 591 b 557 536 489 591 528 572 b 602 358 587 500 602 440 b 558 188 602 281 587 224 b 450 134 528 152 492 134 b 319 210 396 134 352 160 b 283 376 295 246 283 301 z "},"ÿ":{"ha":772,"x_min":0,"x_max":0,"o":"m 9 720 l 283 -2 b 235 -101 272 -42 256 -75 b 136 -140 213 -127 181 -140 b 56 -132 112 -140 85 -137 l 73 -281 b 180 -292 108 -288 144 -292 b 278 -281 217 -292 249 -288 b 350 -249 306 -273 331 -262 b 402 -195 370 -235 387 -217 b 450 -98 418 -172 434 -140 l 496 27 l 750 720 l 553 720 l 385 209 l 212 720 z m 156 848 l 319 848 l 319 1011 l 156 1011 z m 448 848 l 612 848 l 612 1011 l 448 1011 z "},"Ā":{"ha":1003,"x_min":0,"x_max":0,"o":"m 998 0 l 600 994 l 387 994 l 0 0 l 213 0 l 295 226 l 692 226 l 779 0 z m 628 393 l 357 393 l 491 762 z m 275 1084 l 711 1084 l 711 1209 l 275 1209 z "},"ā":{"ha":772,"x_min":0,"x_max":0,"o":"m 242 500 b 288 571 254 534 269 557 b 368 591 307 584 334 591 b 470 567 418 591 452 583 b 497 489 488 552 497 526 l 497 470 b 312 423 463 456 401 440 b 160 379 246 411 195 396 b 79 306 125 362 98 337 b 50 197 59 274 50 237 b 114 44 50 135 71 84 b 289 -16 156 4 215 -16 b 408 7 331 -16 371 -8 b 512 79 445 23 479 47 b 519 56 513 75 516 68 b 537 0 526 31 532 13 l 726 0 b 691 97 709 34 697 67 b 682 237 685 127 682 173 l 684 459 b 659 630 684 542 676 599 b 571 706 642 661 613 686 b 381 736 529 726 466 736 b 170 686 288 736 217 720 b 69 532 122 653 89 601 z m 497 346 l 497 308 b 490 215 497 262 495 231 b 444 152 482 190 467 169 b 346 118 413 129 380 118 b 270 147 315 118 290 128 b 240 216 250 167 240 190 b 277 283 240 243 253 266 b 381 317 294 294 328 305 b 497 346 434 328 473 338 z m 168 839 l 604 839 l 604 964 l 168 964 z "},"Ă":{"ha":1003,"x_min":0,"x_max":0,"o":"m 998 0 l 600 994 l 387 994 l 0 0 l 213 0 l 295 226 l 692 226 l 779 0 z m 628 393 l 357 393 l 491 762 z m 618 1245 b 584 1172 615 1213 603 1189 b 499 1147 564 1156 536 1147 b 414 1172 462 1147 434 1156 b 380 1245 395 1189 384 1213 l 288 1245 b 352 1100 293 1184 315 1135 b 499 1048 390 1065 439 1048 b 646 1100 559 1048 608 1065 b 711 1245 684 1135 705 1184 z "},"ă":{"ha":772,"x_min":0,"x_max":0,"o":"m 242 500 b 288 571 254 534 269 557 b 368 591 307 584 334 591 b 470 567 418 591 452 583 b 497 489 488 552 497 526 l 497 470 b 312 423 463 456 401 440 b 160 379 246 411 195 396 b 79 306 125 362 98 337 b 50 197 59 274 50 237 b 114 44 50 135 71 84 b 289 -16 156 4 215 -16 b 408 7 331 -16 371 -8 b 512 79 445 23 479 47 b 519 56 513 75 516 68 b 537 0 526 31 532 13 l 726 0 b 691 97 709 34 697 67 b 682 237 685 127 682 173 l 684 459 b 659 630 684 542 676 599 b 571 706 642 661 613 686 b 381 736 529 726 466 736 b 170 686 288 736 217 720 b 69 532 122 653 89 601 z m 497 346 l 497 308 b 490 215 497 262 495 231 b 444 152 482 190 467 169 b 346 118 413 129 380 118 b 270 147 315 118 290 128 b 240 216 250 167 240 190 b 277 283 240 243 253 266 b 381 317 294 294 328 305 b 497 346 434 328 473 338 z m 504 1011 b 470 938 501 979 489 955 b 385 913 451 922 422 913 b 300 938 348 913 320 922 b 267 1011 281 955 270 979 l 174 1011 b 238 866 179 950 201 901 b 385 814 276 831 325 814 b 532 866 445 814 494 831 b 597 1011 570 901 591 950 z "},"Ą":{"ha":1003,"x_min":0,"x_max":0,"o":"m 998 0 l 600 994 l 387 994 l 0 0 l 213 0 l 295 226 l 692 226 l 779 0 z m 628 393 l 357 393 l 491 762 z m 937 0 l 823 0 b 760 -75 797 -22 775 -47 b 736 -157 744 -104 736 -131 b 745 -207 736 -175 739 -192 b 773 -248 751 -223 760 -236 b 819 -276 785 -260 801 -269 b 885 -286 838 -283 860 -286 b 987 -259 915 -286 949 -277 l 987 -146 b 959 -154 978 -149 969 -151 b 931 -159 948 -157 939 -159 b 891 -143 913 -159 899 -154 b 880 -106 884 -133 880 -121 b 884 -78 880 -97 881 -87 b 895 -49 886 -68 890 -58 b 913 -22 900 -39 906 -30 b 937 0 920 -14 928 -6 z "},"ą":{"ha":772,"x_min":0,"x_max":0,"o":"m 242 500 b 288 571 254 534 269 557 b 368 591 307 584 334 591 b 470 567 418 591 452 583 b 497 489 488 552 497 526 l 497 470 b 312 423 463 456 401 440 b 160 379 246 411 195 396 b 79 306 125 362 98 337 b 50 197 59 274 50 237 b 114 44 50 135 71 84 b 289 -16 156 4 215 -16 b 408 7 331 -16 371 -8 b 512 79 445 23 479 47 b 519 56 513 75 516 68 b 537 0 526 31 532 13 l 726 0 b 691 97 709 34 697 67 b 682 237 685 127 682 173 l 684 459 b 659 630 684 542 676 599 b 571 706 642 661 613 686 b 381 736 529 726 466 736 b 170 686 288 736 217 720 b 69 532 122 653 89 601 z m 497 346 l 497 308 b 490 215 497 262 495 231 b 444 152 482 190 467 169 b 346 118 413 129 380 118 b 270 147 315 118 290 128 b 240 216 250 167 240 190 b 277 283 240 243 253 266 b 381 317 294 294 328 305 b 497 346 434 328 473 338 z m 682 0 l 569 0 b 505 -75 542 -22 521 -47 b 481 -157 489 -104 481 -131 b 491 -207 481 -175 485 -192 b 518 -248 497 -223 506 -236 b 565 -276 531 -260 546 -269 b 631 -286 583 -283 605 -286 b 733 -259 661 -286 695 -277 l 733 -146 b 704 -154 724 -149 714 -151 b 677 -159 694 -157 685 -159 b 637 -143 658 -159 645 -154 b 625 -106 629 -133 625 -121 b 629 -78 625 -97 627 -87 b 641 -49 632 -68 636 -58 b 659 -22 646 -39 652 -30 b 682 0 666 -14 674 -6 z "},"Ć":{"ha":1003,"x_min":0,"x_max":0,"o":"m 737 366 b 654 205 720 293 693 239 b 517 155 616 172 570 155 b 340 235 444 155 386 181 b 273 503 295 288 273 378 b 341 760 273 622 296 707 b 521 840 387 813 447 840 b 657 795 574 840 620 825 b 730 673 694 765 719 724 l 929 720 b 827 903 906 800 873 861 b 531 1011 751 975 653 1011 b 194 874 392 1011 279 965 b 66 488 109 782 66 654 b 193 118 66 332 108 209 b 519 -17 278 28 387 -17 b 783 62 625 -17 714 9 b 932 304 852 115 902 195 z m 391 1051 l 512 1051 l 699 1254 l 485 1254 z "},"ć":{"ha":772,"x_min":0,"x_max":0,"o":"m 728 507 b 616 680 705 585 668 642 b 407 736 564 718 495 736 b 152 637 300 736 215 703 b 58 359 89 571 58 478 b 152 83 58 242 89 150 b 404 -16 214 17 298 -16 b 625 50 496 -16 570 6 b 737 244 680 93 718 158 l 550 276 b 501 170 541 226 524 190 b 412 139 478 149 448 139 b 297 192 364 139 325 157 b 254 373 268 227 254 288 b 296 537 254 450 268 505 b 410 587 324 570 362 587 b 497 558 445 587 474 577 b 540 473 519 539 533 511 z m 293 808 l 414 808 l 600 1011 l 387 1011 z "},"Ĉ":{"ha":1003,"x_min":0,"x_max":0,"o":"m 737 366 b 654 205 720 293 693 239 b 517 155 616 172 570 155 b 340 235 444 155 386 181 b 273 503 295 288 273 378 b 341 760 273 622 296 707 b 521 840 387 813 447 840 b 657 795 574 840 620 825 b 730 673 694 765 719 724 l 929 720 b 827 903 906 800 873 861 b 531 1011 751 975 653 1011 b 194 874 392 1011 279 965 b 66 488 109 782 66 654 b 193 118 66 332 108 209 b 519 -17 278 28 387 -17 b 783 62 625 -17 714 9 b 932 304 852 115 902 195 z m 292 1084 l 446 1084 l 519 1185 l 597 1084 l 751 1084 l 610 1284 l 434 1284 z "},"ĉ":{"ha":772,"x_min":0,"x_max":0,"o":"m 728 507 b 616 680 705 585 668 642 b 407 736 564 718 495 736 b 152 637 300 736 215 703 b 58 359 89 571 58 478 b 152 83 58 242 89 150 b 404 -16 214 17 298 -16 b 625 50 496 -16 570 6 b 737 244 680 93 718 158 l 550 276 b 501 170 541 226 524 190 b 412 139 478 149 448 139 b 297 192 364 139 325 157 b 254 373 268 227 254 288 b 296 537 254 450 268 505 b 410 587 324 570 362 587 b 497 558 445 587 474 577 b 540 473 519 539 533 511 z m 157 811 l 311 811 l 384 912 l 463 811 l 616 811 l 475 1011 l 299 1011 z "},"Ċ":{"ha":1003,"x_min":0,"x_max":0,"o":"m 737 366 b 654 205 720 293 693 239 b 517 155 616 172 570 155 b 340 235 444 155 386 181 b 273 503 295 288 273 378 b 341 760 273 622 296 707 b 521 840 387 813 447 840 b 657 795 574 840 620 825 b 730 673 694 765 719 724 l 929 720 b 827 903 906 800 873 861 b 531 1011 751 975 653 1011 b 194 874 392 1011 279 965 b 66 488 109 782 66 654 b 193 118 66 332 108 209 b 519 -17 278 28 387 -17 b 783 62 625 -17 714 9 b 932 304 852 115 902 195 z m 426 1084 l 613 1084 l 613 1264 l 426 1264 z "},"ċ":{"ha":772,"x_min":0,"x_max":0,"o":"m 728 507 b 616 680 705 585 668 642 b 407 736 564 718 495 736 b 152 637 300 736 215 703 b 58 359 89 571 58 478 b 152 83 58 242 89 150 b 404 -16 214 17 298 -16 b 625 50 496 -16 570 6 b 737 244 680 93 718 158 l 550 276 b 501 170 541 226 524 190 b 412 139 478 149 448 139 b 297 192 364 139 325 157 b 254 373 268 227 254 288 b 296 537 254 450 268 505 b 410 587 324 570 362 587 b 497 558 445 587 474 577 b 540 473 519 539 533 511 z m 294 831 l 481 831 l 481 1011 l 294 1011 z "},"Č":{"ha":1003,"x_min":0,"x_max":0,"o":"m 737 366 b 654 205 720 293 693 239 b 517 155 616 172 570 155 b 340 235 444 155 386 181 b 273 503 295 288 273 378 b 341 760 273 622 296 707 b 521 840 387 813 447 840 b 657 795 574 840 620 825 b 730 673 694 765 719 724 l 929 720 b 827 903 906 800 873 861 b 531 1011 751 975 653 1011 b 194 874 392 1011 279 965 b 66 488 109 782 66 654 b 193 118 66 332 108 209 b 519 -17 278 28 387 -17 b 783 62 625 -17 714 9 b 932 304 852 115 902 195 z m 282 1255 l 425 1055 l 601 1055 l 741 1255 l 588 1255 l 509 1154 l 436 1255 z "},"č":{"ha":772,"x_min":0,"x_max":0,"o":"m 728 507 b 616 680 705 585 668 642 b 407 736 564 718 495 736 b 152 637 300 736 215 703 b 58 359 89 571 58 478 b 152 83 58 242 89 150 b 404 -16 214 17 298 -16 b 625 50 496 -16 570 6 b 737 244 680 93 718 158 l 550 276 b 501 170 541 226 524 190 b 412 139 478 149 448 139 b 297 192 364 139 325 157 b 254 373 268 227 254 288 b 296 537 254 450 268 505 b 410 587 324 570 362 587 b 497 558 445 587 474 577 b 540 473 519 539 533 511 z m 186 1011 l 328 811 l 505 811 l 645 1011 l 492 1011 l 413 910 l 340 1011 z "},"Ď":{"ha":1003,"x_min":0,"x_max":0,"o":"m 100 994 l 100 0 l 478 0 b 656 21 552 0 611 7 b 797 100 715 40 762 66 b 903 276 843 145 878 204 b 934 488 924 335 934 406 b 901 723 934 581 923 659 b 806 884 880 786 848 840 b 656 975 765 928 715 958 b 467 994 613 988 550 994 z m 301 826 l 391 826 b 556 817 473 826 528 823 b 649 770 594 808 625 793 b 706 673 673 747 692 715 b 726 496 720 632 726 573 b 706 314 726 420 720 359 b 653 218 692 270 675 238 b 572 177 632 199 605 185 b 451 168 548 171 507 168 l 301 168 z m 186 1255 l 328 1055 l 505 1055 l 645 1255 l 492 1255 l 413 1154 l 340 1255 z "},"ď":{"ha":998,"x_min":0,"x_max":0,"o":"m 827 994 l 827 823 l 909 823 b 886 741 909 789 901 762 b 812 694 871 721 847 705 l 846 623 b 935 675 881 635 910 652 b 985 752 959 697 976 723 b 998 871 994 781 998 821 l 998 994 z m 758 0 l 758 994 l 568 994 l 568 636 b 359 736 509 703 439 736 b 141 641 271 736 198 705 b 55 363 84 578 55 485 b 143 84 55 243 84 150 b 356 -16 202 17 273 -16 b 477 14 397 -16 437 -6 b 581 106 517 34 552 65 l 581 0 z m 250 376 b 295 537 250 447 265 501 b 409 591 326 573 364 591 b 524 536 456 591 494 572 b 568 357 553 500 568 440 b 522 190 568 283 553 228 b 410 134 491 153 454 134 b 281 209 355 134 312 159 b 250 376 260 243 250 299 z "},"Đ":{"ha":1003,"x_min":0,"x_max":0,"o":"m 101 994 l 101 560 l -2 560 l -2 434 l 101 434 l 101 0 l 478 0 b 656 21 553 0 612 7 b 797 99 715 40 762 66 b 900 263 842 143 876 198 b 935 485 923 329 935 403 b 903 720 935 578 924 656 b 809 881 882 783 851 837 b 659 975 767 926 717 957 b 467 994 615 988 551 994 z m 301 826 l 392 826 b 565 815 478 826 536 822 b 656 763 602 805 633 788 b 709 665 679 738 697 705 b 727 492 721 624 727 567 b 684 258 727 387 713 309 b 595 184 664 222 634 197 b 452 168 566 173 518 168 l 301 168 l 301 434 l 514 434 l 514 560 l 301 560 z "},"đ":{"ha":848,"x_min":0,"x_max":0,"o":"m 570 797 l 570 636 b 361 736 511 703 441 736 b 143 641 273 736 201 705 b 57 363 86 578 57 485 b 145 84 57 243 86 150 b 358 -16 204 17 275 -16 b 479 14 399 -16 439 -6 b 583 106 519 34 554 65 l 583 0 l 760 0 l 760 797 l 836 797 l 836 924 l 760 924 l 760 994 l 570 994 l 570 924 l 364 924 l 364 797 z m 252 376 b 297 537 252 447 267 501 b 411 591 328 573 366 591 b 526 536 458 591 496 572 b 570 357 555 500 570 440 b 524 190 570 283 555 228 b 412 134 493 153 456 134 b 283 209 357 134 314 159 b 252 376 262 243 252 299 z "},"Ē":{"ha":926,"x_min":0,"x_max":0,"o":"m 101 0 l 857 0 l 857 168 l 302 168 l 302 438 l 801 438 l 801 606 l 302 606 l 302 826 l 838 826 l 838 994 l 101 994 z m 245 1084 l 682 1084 l 682 1209 l 245 1209 z "},"ē":{"ha":772,"x_min":0,"x_max":0,"o":"m 517 229 b 471 151 506 193 491 167 b 395 126 450 134 425 126 b 286 173 352 126 315 142 b 239 305 256 205 241 249 l 717 305 b 628 630 720 451 690 560 b 374 736 566 701 481 736 b 138 635 279 736 200 703 b 44 355 75 568 44 474 b 115 106 44 255 68 172 b 393 -16 175 25 268 -16 b 591 38 472 -16 538 2 b 707 197 644 75 682 128 z m 528 422 l 243 422 b 283 545 242 474 256 515 b 386 591 310 576 344 591 b 485 548 425 591 458 576 b 528 422 512 519 526 477 z m 166 839 l 603 839 l 603 964 l 166 964 z "},"Ĕ":{"ha":926,"x_min":0,"x_max":0,"o":"m 101 0 l 857 0 l 857 168 l 302 168 l 302 438 l 801 438 l 801 606 l 302 606 l 302 826 l 838 826 l 838 994 l 101 994 z m 580 1275 b 546 1202 577 1243 565 1219 b 461 1177 526 1186 498 1177 b 376 1202 424 1177 396 1186 b 342 1275 357 1219 346 1243 l 250 1275 b 314 1130 255 1213 277 1165 b 461 1078 352 1095 401 1078 b 608 1130 521 1078 570 1095 b 673 1275 646 1165 667 1213 z "},"ĕ":{"ha":772,"x_min":0,"x_max":0,"o":"m 517 229 b 471 151 506 193 491 167 b 395 126 450 134 425 126 b 286 173 352 126 315 142 b 239 305 256 205 241 249 l 717 305 b 628 630 720 451 690 560 b 374 736 566 701 481 736 b 138 635 279 736 200 703 b 44 355 75 568 44 474 b 115 106 44 255 68 172 b 393 -16 175 25 268 -16 b 591 38 472 -16 538 2 b 707 197 644 75 682 128 z m 528 422 l 243 422 b 283 545 242 474 256 515 b 386 591 310 576 344 591 b 485 548 425 591 458 576 b 528 422 512 519 526 477 z m 494 1011 b 460 938 491 979 480 955 b 376 913 441 922 413 913 b 291 938 339 913 310 922 b 257 1011 271 955 260 979 l 164 1011 b 229 866 170 950 191 901 b 376 814 267 831 316 814 b 523 866 436 814 485 831 b 587 1011 560 901 582 950 z "},"Ė":{"ha":926,"x_min":0,"x_max":0,"o":"m 101 0 l 857 0 l 857 168 l 302 168 l 302 438 l 801 438 l 801 606 l 302 606 l 302 826 l 838 826 l 838 994 l 101 994 z m 371 1084 l 558 1084 l 558 1264 l 371 1264 z "},"ė":{"ha":772,"x_min":0,"x_max":0,"o":"m 517 229 b 471 151 506 193 491 167 b 395 126 450 134 425 126 b 286 173 352 126 315 142 b 239 305 256 205 241 249 l 717 305 b 628 630 720 451 690 560 b 374 736 566 701 481 736 b 138 635 279 736 200 703 b 44 355 75 568 44 474 b 115 106 44 255 68 172 b 393 -16 175 25 268 -16 b 591 38 472 -16 538 2 b 707 197 644 75 682 128 z m 528 422 l 243 422 b 283 545 242 474 256 515 b 386 591 310 576 344 591 b 485 548 425 591 458 576 b 528 422 512 519 526 477 z m 292 831 l 479 831 l 479 1011 l 292 1011 z "},"Ę":{"ha":926,"x_min":0,"x_max":0,"o":"m 101 0 l 857 0 l 857 168 l 302 168 l 302 438 l 801 438 l 801 606 l 302 606 l 302 826 l 838 826 l 838 994 l 101 994 z m 805 0 l 692 0 b 628 -75 665 -22 644 -47 b 604 -157 612 -104 604 -131 b 613 -207 604 -175 607 -192 b 641 -248 620 -223 629 -236 b 688 -276 654 -260 669 -269 b 753 -286 706 -283 728 -286 b 856 -259 784 -286 818 -277 l 856 -146 b 827 -154 847 -149 837 -151 b 800 -159 817 -157 808 -159 b 760 -143 781 -159 768 -154 b 748 -106 752 -133 748 -121 b 752 -78 748 -97 749 -87 b 764 -49 755 -68 759 -58 b 782 -22 769 -39 775 -30 b 805 0 789 -14 796 -6 z "},"ę":{"ha":772,"x_min":0,"x_max":0,"o":"m 517 229 b 471 151 506 193 491 167 b 395 126 450 134 425 126 b 286 173 352 126 315 142 b 239 305 256 205 241 249 l 717 305 b 628 630 720 451 690 560 b 374 736 566 701 481 736 b 138 635 279 736 200 703 b 44 355 75 568 44 474 b 115 106 44 255 68 172 b 393 -16 175 25 268 -16 b 591 38 472 -16 538 2 b 707 197 644 75 682 128 z m 528 422 l 243 422 b 283 545 242 474 256 515 b 386 591 310 576 344 591 b 485 548 425 591 458 576 b 528 422 512 519 526 477 z m 511 0 l 397 0 b 334 -75 371 -22 349 -47 b 310 -157 318 -104 310 -131 b 319 -207 310 -175 313 -192 b 347 -248 325 -223 334 -236 b 393 -276 359 -260 375 -269 b 459 -286 412 -283 434 -286 b 562 -259 489 -286 524 -277 l 562 -146 b 533 -154 552 -149 543 -151 b 505 -159 523 -157 513 -159 b 466 -143 487 -159 473 -154 b 454 -106 458 -133 454 -121 b 458 -78 454 -97 455 -87 b 469 -49 460 -68 464 -58 b 487 -22 474 -39 480 -30 b 511 0 494 -14 502 -6 z "},"Ě":{"ha":926,"x_min":0,"x_max":0,"o":"m 101 0 l 857 0 l 857 168 l 302 168 l 302 438 l 801 438 l 801 606 l 302 606 l 302 826 l 838 826 l 838 994 l 101 994 z m 229 1255 l 372 1055 l 548 1055 l 688 1255 l 535 1255 l 456 1154 l 383 1255 z "},"ě":{"ha":772,"x_min":0,"x_max":0,"o":"m 517 229 b 471 151 506 193 491 167 b 395 126 450 134 425 126 b 286 173 352 126 315 142 b 239 305 256 205 241 249 l 717 305 b 628 630 720 451 690 560 b 374 736 566 701 481 736 b 138 635 279 736 200 703 b 44 355 75 568 44 474 b 115 106 44 255 68 172 b 393 -16 175 25 268 -16 b 591 38 472 -16 538 2 b 707 197 644 75 682 128 z m 528 422 l 243 422 b 283 545 242 474 256 515 b 386 591 310 576 344 591 b 485 548 425 591 458 576 b 528 422 512 519 526 477 z m 151 1011 l 293 811 l 469 811 l 610 1011 l 456 1011 l 378 910 l 304 1011 z "},"Ĝ":{"ha":1080,"x_min":0,"x_max":0,"o":"m 564 366 l 793 366 l 793 239 b 685 179 763 216 727 196 b 558 155 642 163 600 155 b 352 243 473 155 404 184 b 273 509 300 302 273 391 b 351 756 273 618 299 701 b 560 840 403 812 472 840 b 705 797 618 840 666 825 b 784 682 744 769 770 730 l 983 719 b 849 933 963 810 919 882 b 560 1011 780 985 684 1011 b 322 962 465 1011 386 995 b 132 777 238 919 175 857 b 66 500 88 696 66 604 b 125 236 66 405 86 317 b 299 48 164 155 222 92 b 571 -17 376 5 467 -17 b 813 30 653 -17 734 -1 b 996 137 893 60 954 96 l 996 533 l 564 533 z m 326 1084 l 479 1084 l 553 1185 l 631 1084 l 785 1084 l 644 1284 l 468 1284 z "},"ĝ":{"ha":848,"x_min":0,"x_max":0,"o":"m 82 -47 b 81 -71 82 -57 81 -64 b 158 -230 81 -135 107 -188 b 418 -292 209 -271 296 -292 b 578 -272 482 -292 536 -286 b 680 -216 620 -258 654 -240 b 739 -117 705 -192 725 -159 b 760 74 753 -75 760 -11 l 760 720 l 581 720 l 581 619 b 361 736 523 697 450 736 b 144 641 274 736 202 705 b 57 364 86 577 57 485 b 123 123 57 268 79 187 b 353 0 180 41 257 0 b 569 117 440 0 512 39 l 569 12 b 560 -76 569 -31 566 -60 b 522 -124 552 -98 539 -114 b 410 -146 497 -139 460 -146 b 325 -126 371 -146 343 -140 b 300 -74 312 -117 303 -99 z m 252 375 b 297 537 252 448 267 502 b 410 591 326 573 364 591 b 526 536 457 591 496 573 b 572 370 557 500 572 445 b 524 209 572 299 556 245 b 406 154 492 172 453 154 b 297 207 363 154 326 172 b 252 375 267 243 252 299 z m 195 811 l 349 811 l 422 912 l 501 811 l 654 811 l 514 1011 l 338 1011 z "},"Ğ":{"ha":1080,"x_min":0,"x_max":0,"o":"m 564 366 l 793 366 l 793 239 b 685 179 763 216 727 196 b 558 155 642 163 600 155 b 352 243 473 155 404 184 b 273 509 300 302 273 391 b 351 756 273 618 299 701 b 560 840 403 812 472 840 b 705 797 618 840 666 825 b 784 682 744 769 770 730 l 983 719 b 849 933 963 810 919 882 b 560 1011 780 985 684 1011 b 322 962 465 1011 386 995 b 132 777 238 919 175 857 b 66 500 88 696 66 604 b 125 236 66 405 86 317 b 299 48 164 155 222 92 b 571 -17 376 5 467 -17 b 813 30 653 -17 734 -1 b 996 137 893 60 954 96 l 996 533 l 564 533 z m 691 1245 b 657 1172 688 1213 677 1189 b 572 1147 638 1156 609 1147 b 488 1172 535 1147 507 1156 b 454 1245 468 1189 457 1213 l 361 1245 b 426 1100 366 1184 388 1135 b 572 1048 463 1065 512 1048 b 719 1100 633 1048 681 1065 b 784 1245 757 1135 779 1184 z "},"ğ":{"ha":848,"x_min":0,"x_max":0,"o":"m 82 -47 b 81 -71 82 -57 81 -64 b 158 -230 81 -135 107 -188 b 418 -292 209 -271 296 -292 b 578 -272 482 -292 536 -286 b 680 -216 620 -258 654 -240 b 739 -117 705 -192 725 -159 b 760 74 753 -75 760 -11 l 760 720 l 581 720 l 581 619 b 361 736 523 697 450 736 b 144 641 274 736 202 705 b 57 364 86 577 57 485 b 123 123 57 268 79 187 b 353 0 180 41 257 0 b 569 117 440 0 512 39 l 569 12 b 560 -76 569 -31 566 -60 b 522 -124 552 -98 539 -114 b 410 -146 497 -139 460 -146 b 325 -126 371 -146 343 -140 b 300 -74 312 -117 303 -99 z m 252 375 b 297 537 252 448 267 502 b 410 591 326 573 364 591 b 526 536 457 591 496 573 b 572 370 557 500 572 445 b 524 209 572 299 556 245 b 406 154 492 172 453 154 b 297 207 363 154 326 172 b 252 375 267 243 252 299 z m 525 1011 b 491 938 522 979 510 955 b 406 913 472 922 443 913 b 321 938 369 913 341 922 b 288 1011 302 955 291 979 l 195 1011 b 259 866 200 950 222 901 b 406 814 297 831 346 814 b 553 866 466 814 515 831 b 618 1011 591 901 612 950 z "},"Ġ":{"ha":1080,"x_min":0,"x_max":0,"o":"m 564 366 l 793 366 l 793 239 b 685 179 763 216 727 196 b 558 155 642 163 600 155 b 352 243 473 155 404 184 b 273 509 300 302 273 391 b 351 756 273 618 299 701 b 560 840 403 812 472 840 b 705 797 618 840 666 825 b 784 682 744 769 770 730 l 983 719 b 849 933 963 810 919 882 b 560 1011 780 985 684 1011 b 322 962 465 1011 386 995 b 132 777 238 919 175 857 b 66 500 88 696 66 604 b 125 236 66 405 86 317 b 299 48 164 155 222 92 b 571 -17 376 5 467 -17 b 813 30 653 -17 734 -1 b 996 137 893 60 954 96 l 996 533 l 564 533 z m 463 1084 l 650 1084 l 650 1264 l 463 1264 z "},"ġ":{"ha":848,"x_min":0,"x_max":0,"o":"m 82 -47 b 81 -71 82 -57 81 -64 b 158 -230 81 -135 107 -188 b 418 -292 209 -271 296 -292 b 578 -272 482 -292 536 -286 b 680 -216 620 -258 654 -240 b 739 -117 705 -192 725 -159 b 760 74 753 -75 760 -11 l 760 720 l 581 720 l 581 619 b 361 736 523 697 450 736 b 144 641 274 736 202 705 b 57 364 86 577 57 485 b 123 123 57 268 79 187 b 353 0 180 41 257 0 b 569 117 440 0 512 39 l 569 12 b 560 -76 569 -31 566 -60 b 522 -124 552 -98 539 -114 b 410 -146 497 -139 460 -146 b 325 -126 371 -146 343 -140 b 300 -74 312 -117 303 -99 z m 252 375 b 297 537 252 448 267 502 b 410 591 326 573 364 591 b 526 536 457 591 496 573 b 572 370 557 500 572 445 b 524 209 572 299 556 245 b 406 154 492 172 453 154 b 297 207 363 154 326 172 b 252 375 267 243 252 299 z m 332 831 l 519 831 l 519 1011 l 332 1011 z "},"Ģ":{"ha":1080,"x_min":0,"x_max":0,"o":"m 564 366 l 793 366 l 793 239 b 685 179 763 216 727 196 b 558 155 642 163 600 155 b 352 243 473 155 404 184 b 273 509 300 302 273 391 b 351 756 273 618 299 701 b 560 840 403 812 472 840 b 705 797 618 840 666 825 b 784 682 744 769 770 730 l 983 719 b 849 933 963 810 919 882 b 560 1011 780 985 684 1011 b 322 962 465 1011 386 995 b 132 777 238 919 175 857 b 66 500 88 696 66 604 b 125 236 66 405 86 317 b 299 48 164 155 222 92 b 571 -17 376 5 467 -17 b 813 30 653 -17 734 -1 b 996 137 893 60 954 96 l 996 533 l 564 533 z m 462 -77 l 462 -201 l 551 -201 b 460 -294 551 -246 521 -277 l 485 -384 b 595 -332 531 -371 568 -354 b 650 -258 622 -311 640 -286 b 664 -138 659 -231 664 -191 l 664 -77 z "},"ģ":{"ha":848,"x_min":0,"x_max":0,"o":"m 488 806 l 488 930 l 398 930 b 421 990 401 957 408 977 b 490 1023 434 1003 457 1014 l 465 1113 b 355 1062 418 1100 382 1083 b 300 988 328 1040 309 1016 b 286 867 291 960 286 920 l 286 806 z m 82 -47 b 81 -71 82 -57 81 -64 b 163 -234 81 -140 109 -195 b 420 -292 218 -273 303 -292 b 623 -254 504 -292 572 -280 b 730 -141 674 -229 710 -191 b 760 74 750 -91 760 -19 l 760 720 l 581 720 l 581 619 b 361 736 523 697 450 736 b 143 640 273 736 201 704 b 57 366 86 575 57 484 b 90 188 57 304 68 245 b 193 52 111 131 146 86 b 351 0 240 17 293 0 b 569 117 439 0 512 39 l 569 12 b 558 -81 569 -31 565 -61 b 514 -129 551 -101 536 -117 b 414 -146 492 -140 459 -146 b 300 -74 340 -146 302 -122 z m 252 371 b 292 530 252 437 266 490 b 408 591 319 571 358 591 b 531 530 463 591 503 570 b 572 373 559 490 572 437 b 523 208 572 299 556 244 b 408 154 490 172 452 154 b 292 214 356 154 318 174 b 252 371 265 253 252 306 z "},"Ĥ":{"ha":1003,"x_min":0,"x_max":0,"o":"m 102 0 l 302 0 l 302 435 l 696 435 l 696 0 l 897 0 l 897 994 l 696 994 l 696 603 l 302 603 l 302 994 l 102 994 z m 272 1084 l 426 1084 l 499 1185 l 578 1084 l 731 1084 l 591 1284 l 414 1284 z "},"ĥ":{"ha":848,"x_min":0,"x_max":0,"o":"m 290 994 l 99 994 l 99 0 l 290 0 l 290 361 b 307 498 290 421 295 467 b 361 568 318 529 337 552 b 446 591 386 583 415 591 b 515 573 474 591 497 585 b 553 524 533 561 546 545 b 564 380 561 504 564 456 l 564 0 l 755 0 l 755 422 b 745 566 755 487 752 535 b 708 650 738 596 726 624 b 629 712 690 675 664 696 b 510 736 593 728 554 736 b 290 629 425 736 351 701 z m 195 1051 l 349 1051 l 422 1152 l 501 1051 l 654 1051 l 514 1251 l 338 1251 z "},"Ħ":{"ha":1003,"x_min":0,"x_max":0,"o":"m 102 735 l 102 0 l 302 0 l 302 435 l 696 435 l 696 0 l 896 0 l 896 735 l 994 735 l 994 861 l 896 861 l 896 994 l 696 994 l 696 861 l 302 861 l 302 994 l 102 994 l 102 861 l 3 861 l 3 735 z m 302 735 l 696 735 l 696 603 l 302 603 z "},"ħ":{"ha":848,"x_min":0,"x_max":0,"o":"m 290 924 l 290 994 l 99 994 l 99 924 l 17 924 l 17 797 l 99 797 l 99 0 l 290 0 l 290 361 b 330 541 290 447 303 507 b 446 591 356 574 395 591 b 520 570 476 591 501 584 b 556 513 539 556 551 537 b 564 380 562 490 564 446 l 564 0 l 755 0 l 755 422 b 735 601 755 502 749 562 b 656 698 721 640 695 673 b 513 736 617 724 569 736 b 290 629 425 736 351 701 l 290 797 l 488 797 l 488 924 z "},"Ĩ":{"ha":386,"x_min":0,"x_max":0,"o":"m 95 0 l 296 0 l 296 994 l 95 994 z m 40 1082 b 53 1128 40 1104 45 1119 b 87 1141 61 1137 72 1141 b 178 1118 106 1141 136 1133 b 256 1090 219 1102 245 1093 b 301 1085 271 1087 286 1085 b 388 1124 336 1085 365 1098 b 422 1255 410 1151 421 1194 l 334 1255 b 315 1210 331 1234 325 1219 b 279 1196 305 1201 293 1196 b 194 1220 258 1196 230 1204 b 120 1250 158 1236 134 1246 b 76 1255 106 1253 92 1255 b -13 1216 40 1255 10 1242 b -47 1107 -36 1191 -47 1154 b -47 1082 -47 1101 -47 1093 z "},"ĩ":{"ha":386,"x_min":0,"x_max":0,"o":"m 100 0 l 290 0 l 290 720 l 100 720 z m 41 817 b 54 863 41 839 45 854 b 87 876 62 872 73 876 b 178 852 106 876 137 868 b 256 825 220 837 246 827 b 302 820 271 821 286 820 b 388 859 337 820 366 833 b 422 990 411 885 422 929 l 334 990 b 316 945 332 969 325 954 b 279 931 306 936 294 931 b 195 955 259 931 231 939 b 121 984 159 971 134 981 b 77 989 107 988 92 989 b -12 951 40 989 11 977 b -47 842 -35 926 -47 889 b -46 817 -47 836 -47 828 z "},"Ī":{"ha":386,"x_min":0,"x_max":0,"o":"m 95 0 l 296 0 l 296 994 l 95 994 z m -26 1084 l 411 1084 l 411 1209 l -26 1209 z "},"ī":{"ha":386,"x_min":0,"x_max":0,"o":"m 100 0 l 290 0 l 290 720 l 100 720 z m -26 839 l 411 839 l 411 964 l -26 964 z "},"Ĭ":{"ha":386,"x_min":0,"x_max":0,"o":"m 95 0 l 296 0 l 296 994 l 95 994 z m 309 1275 b 275 1202 306 1243 295 1219 b 191 1177 256 1186 228 1177 b 106 1202 153 1177 125 1186 b 72 1275 86 1219 75 1243 l -21 1275 b 44 1130 -16 1213 6 1165 b 191 1078 81 1095 130 1078 b 337 1130 251 1078 300 1095 b 402 1275 375 1165 397 1213 z "},"ĭ":{"ha":386,"x_min":0,"x_max":0,"o":"m 100 0 l 290 0 l 290 720 l 100 720 z m 310 1011 b 276 938 307 979 295 955 b 191 913 257 922 228 913 b 106 938 154 913 126 922 b 73 1011 87 955 76 979 l -20 1011 b 44 866 -15 950 7 901 b 191 814 82 831 131 814 b 338 866 251 814 300 831 b 403 1011 376 901 397 950 z "},"Į":{"ha":386,"x_min":0,"x_max":0,"o":"m 95 0 l 296 0 l 296 994 l 95 994 z m 250 0 l 136 0 b 73 -75 110 -22 88 -47 b 49 -157 57 -104 49 -131 b 58 -207 49 -175 52 -192 b 86 -248 64 -223 73 -236 b 132 -276 98 -260 114 -269 b 198 -286 151 -283 173 -286 b 300 -259 228 -286 262 -277 l 300 -146 b 272 -154 291 -149 282 -151 b 244 -159 261 -157 252 -159 b 204 -143 226 -159 212 -154 b 193 -106 197 -133 193 -121 b 197 -78 193 -97 194 -87 b 208 -49 199 -68 203 -58 b 226 -22 213 -39 219 -30 b 250 0 233 -14 241 -6 z "},"į":{"ha":386,"x_min":0,"x_max":0,"o":"m 100 818 l 290 818 l 290 994 l 100 994 z m 100 0 l 290 0 l 290 720 l 100 720 z m 249 0 l 136 0 b 72 -75 109 -22 88 -47 b 48 -157 56 -104 48 -131 b 57 -207 48 -175 51 -192 b 85 -248 63 -223 73 -236 b 132 -276 98 -260 113 -269 b 197 -286 150 -283 172 -286 b 300 -259 228 -286 262 -277 l 300 -146 b 271 -154 291 -149 281 -151 b 243 -159 261 -157 252 -159 b 204 -143 225 -159 212 -154 b 192 -106 196 -133 192 -121 b 196 -78 192 -97 193 -87 b 208 -49 199 -68 203 -58 b 225 -22 212 -39 218 -30 b 249 0 232 -14 240 -6 z "},"İ":{"ha":386,"x_min":0,"x_max":0,"o":"m 95 0 l 296 0 l 296 994 l 95 994 z m 102 1051 l 290 1051 l 290 1232 l 102 1232 z "},"ı":{"ha":386,"x_min":0,"x_max":0,"o":"m 100 0 l 290 0 l 290 720 l 100 720 z "},"Ĳ":{"ha":1090,"x_min":0,"x_max":0,"o":"m 95 0 l 296 0 l 296 994 l 95 994 z m 783 994 l 783 352 b 755 193 783 271 774 218 b 661 155 737 167 705 155 b 562 208 616 155 583 172 b 536 329 547 232 539 272 l 347 307 b 427 65 348 201 374 120 b 654 -17 480 11 556 -17 b 856 36 737 -17 805 1 b 962 175 907 71 942 117 b 983 365 976 219 983 283 l 983 994 z "},"ĳ":{"ha":772,"x_min":0,"x_max":0,"o":"m 100 818 l 290 818 l 290 994 l 100 994 z m 100 0 l 290 0 l 290 720 l 100 720 z m 473 818 l 663 818 l 663 994 l 473 994 z m 663 720 l 473 720 l 473 33 b 467 -73 473 -26 471 -61 b 442 -103 463 -84 454 -94 b 394 -115 429 -111 413 -115 b 372 -114 387 -115 380 -115 b 347 -109 364 -112 356 -111 l 313 -272 b 384 -287 339 -279 362 -284 b 446 -292 406 -291 427 -292 b 576 -260 498 -292 542 -282 b 645 -172 610 -239 633 -210 b 663 22 657 -134 663 -69 z "},"Ĵ":{"ha":772,"x_min":0,"x_max":0,"o":"m 460 994 l 460 352 b 432 193 460 271 451 218 b 337 155 413 167 382 155 b 238 208 293 155 260 172 b 213 329 224 232 215 272 l 24 307 b 104 65 24 201 51 120 b 330 -17 157 11 232 -17 b 532 36 414 -17 481 1 b 638 175 583 71 619 117 b 660 365 653 219 660 283 l 660 994 z m 330 1084 l 484 1084 l 557 1185 l 635 1084 l 789 1084 l 648 1284 l 472 1284 z "},"ĵ":{"ha":386,"x_min":0,"x_max":0,"o":"m -37 811 l 118 811 l 191 912 l 270 811 l 422 811 l 282 1011 l 106 1011 z m 286 720 l 96 720 l 96 33 b 92 -62 96 -15 94 -47 b 68 -100 89 -78 82 -90 b 17 -115 55 -110 38 -115 b -31 -109 2 -115 -13 -113 l -64 -272 b 67 -292 -14 -286 30 -292 b 206 -257 126 -292 172 -280 b 271 -162 240 -233 261 -201 b 286 22 281 -123 286 -61 z "},"Ķ":{"ha":1003,"x_min":0,"x_max":0,"o":"m 104 0 l 304 0 l 304 300 l 467 467 l 741 0 l 1000 0 l 606 607 l 980 994 l 710 994 l 304 553 l 304 994 l 104 994 z m 408 -77 l 408 -201 l 497 -201 b 406 -294 497 -246 467 -277 l 431 -384 b 541 -332 477 -371 514 -354 b 595 -258 568 -311 586 -286 b 610 -138 605 -231 610 -191 l 610 -77 z "},"ķ":{"ha":772,"x_min":0,"x_max":0,"o":"m 93 0 l 283 0 l 283 231 l 372 323 l 553 0 l 759 0 l 495 457 l 741 720 l 507 720 l 283 467 l 283 994 l 93 994 z m 313 -77 l 313 -201 l 402 -201 b 311 -294 402 -246 372 -277 l 336 -384 b 446 -332 382 -371 419 -354 b 500 -258 473 -311 491 -286 b 515 -138 510 -231 515 -191 l 515 -77 z "},"ĸ":{"ha":772,"x_min":0,"x_max":0,"o":"m 96 0 l 286 0 l 286 231 l 375 323 l 556 0 l 762 0 l 498 457 l 744 720 l 509 720 l 286 467 l 286 720 l 96 720 z "},"Ĺ":{"ha":848,"x_min":0,"x_max":0,"o":"m 106 0 l 806 0 l 806 168 l 307 168 l 307 986 l 106 986 z m 292 1051 l 412 1051 l 599 1254 l 385 1254 z "},"ĺ":{"ha":386,"x_min":0,"x_max":0,"o":"m 100 0 l 290 0 l 290 994 l 100 994 z m 82 1045 l 203 1045 l 389 1248 l 176 1248 z "},"Ļ":{"ha":848,"x_min":0,"x_max":0,"o":"m 106 0 l 806 0 l 806 168 l 307 168 l 307 986 l 106 986 z m 374 -77 l 374 -201 l 463 -201 b 372 -294 463 -246 433 -277 l 397 -384 b 507 -332 443 -371 480 -354 b 562 -258 534 -311 552 -286 b 576 -138 571 -231 576 -191 l 576 -77 z "},"ļ":{"ha":386,"x_min":0,"x_max":0,"o":"m 100 0 l 290 0 l 290 994 l 100 994 z m 89 -77 l 89 -201 l 178 -201 b 87 -294 178 -246 148 -277 l 112 -384 b 222 -332 158 -371 195 -354 b 277 -258 249 -311 267 -286 b 291 -138 286 -231 291 -191 l 291 -77 z "},"Ľ":{"ha":848,"x_min":0,"x_max":0,"o":"m 106 0 l 806 0 l 806 168 l 307 168 l 307 986 l 106 986 z m 569 986 l 569 795 l 661 795 b 635 705 660 757 652 727 b 553 652 619 682 591 665 l 591 573 b 691 633 631 588 665 608 b 745 719 718 659 736 687 b 760 849 755 751 760 794 l 760 986 z "},"ľ":{"ha":535,"x_min":0,"x_max":0,"o":"m 360 994 l 360 823 l 443 823 b 420 741 443 789 435 762 b 346 694 405 721 380 705 l 380 623 b 468 675 414 635 444 652 b 518 752 492 697 509 723 b 532 871 527 781 532 821 l 532 994 z m 101 0 l 292 0 l 292 994 l 101 994 z "},"Ŀ":{"ha":848,"x_min":0,"x_max":0,"o":"m 106 0 l 806 0 l 806 168 l 307 168 l 307 986 l 106 986 z m 329 389 l 519 389 l 519 579 l 329 579 z "},"ŀ":{"ha":665,"x_min":0,"x_max":0,"o":"m 100 0 l 290 0 l 290 994 l 100 994 z m 380 389 l 570 389 l 570 579 l 380 579 z "},"Ł":{"ha":848,"x_min":0,"x_max":0,"o":"m 112 496 l 7 408 l 7 248 l 112 335 l 112 0 l 812 0 l 812 168 l 312 168 l 312 502 l 535 688 l 535 852 l 312 665 l 312 994 l 112 994 z "},"ł":{"ha":386,"x_min":0,"x_max":0,"o":"m 100 488 l 7 410 l 7 281 l 100 359 l 100 0 l 290 0 l 290 522 l 383 600 l 383 729 l 290 650 l 290 994 l 100 994 z "},"Ń":{"ha":1003,"x_min":0,"x_max":0,"o":"m 103 0 l 290 0 l 290 648 l 690 0 l 892 0 l 892 994 l 705 994 l 705 330 l 298 994 l 103 994 z m 376 1051 l 497 1051 l 684 1254 l 470 1254 z "},"ń":{"ha":848,"x_min":0,"x_max":0,"o":"m 755 0 l 755 448 b 744 576 755 503 751 546 b 707 656 737 606 725 632 b 628 714 689 679 663 699 b 513 736 593 729 555 736 b 275 614 417 736 338 696 l 275 720 l 98 720 l 98 0 l 289 0 l 289 326 b 303 492 289 407 294 462 b 357 564 313 522 331 545 b 446 591 384 582 413 591 b 512 572 472 591 494 584 b 552 518 531 559 544 541 b 564 368 560 496 564 445 l 564 0 z m 322 808 l 443 808 l 629 1011 l 416 1011 z "},"Ņ":{"ha":1003,"x_min":0,"x_max":0,"o":"m 103 0 l 290 0 l 290 648 l 690 0 l 892 0 l 892 994 l 705 994 l 705 330 l 298 994 l 103 994 z m 380 -77 l 380 -201 l 470 -201 b 378 -294 470 -246 439 -277 l 404 -384 b 514 -332 450 -371 487 -354 b 568 -258 541 -311 559 -286 b 583 -138 578 -231 583 -191 l 583 -77 z "},"ņ":{"ha":848,"x_min":0,"x_max":0,"o":"m 755 0 l 755 448 b 744 576 755 503 751 546 b 707 656 737 606 725 632 b 628 714 689 679 663 699 b 513 736 593 729 555 736 b 275 614 417 736 338 696 l 275 720 l 98 720 l 98 0 l 289 0 l 289 326 b 303 492 289 407 294 462 b 357 564 313 522 331 545 b 446 591 384 582 413 591 b 512 572 472 591 494 584 b 552 518 531 559 544 541 b 564 368 560 496 564 445 l 564 0 z m 326 -77 l 326 -201 l 416 -201 b 324 -294 416 -246 385 -277 l 349 -384 b 459 -332 396 -371 433 -354 b 514 -258 486 -311 505 -286 b 528 -138 524 -231 528 -191 l 528 -77 z "},"Ň":{"ha":1003,"x_min":0,"x_max":0,"o":"m 103 0 l 290 0 l 290 648 l 690 0 l 892 0 l 892 994 l 705 994 l 705 330 l 298 994 l 103 994 z m 256 1255 l 399 1055 l 575 1055 l 715 1255 l 562 1255 l 484 1154 l 410 1255 z "},"ň":{"ha":848,"x_min":0,"x_max":0,"o":"m 755 0 l 755 448 b 744 576 755 503 751 546 b 707 656 737 606 725 632 b 628 714 689 679 663 699 b 513 736 593 729 555 736 b 275 614 417 736 338 696 l 275 720 l 98 720 l 98 0 l 289 0 l 289 326 b 303 492 289 407 294 462 b 357 564 313 522 331 545 b 446 591 384 582 413 591 b 512 572 472 591 494 584 b 552 518 531 559 544 541 b 564 368 560 496 564 445 l 564 0 z m 197 1011 l 339 811 l 515 811 l 656 1011 l 503 1011 l 424 910 l 351 1011 z "},"ŉ":{"ha":984,"x_min":0,"x_max":0,"o":"m -23 994 l -23 804 l 69 804 b 43 713 68 765 60 735 b -39 661 27 691 0 673 l -1 582 b 99 642 39 596 73 616 b 153 727 126 667 144 695 b 168 858 163 759 168 803 l 168 994 z m 882 0 l 882 448 b 872 576 882 503 879 546 b 834 656 865 606 852 632 b 755 714 817 679 790 699 b 640 736 721 729 682 736 b 403 614 545 736 466 696 l 403 720 l 226 720 l 226 0 l 416 0 l 416 326 b 431 492 416 407 421 462 b 485 564 441 522 459 545 b 574 591 511 582 541 591 b 640 572 600 591 622 584 b 680 518 658 559 671 541 b 692 368 688 496 692 445 l 692 0 z "},"Ŋ":{"ha":1004,"x_min":0,"x_max":0,"o":"m 106 994 l 106 0 l 305 0 l 305 543 b 323 693 305 608 311 658 b 401 790 336 728 362 760 b 538 835 441 820 487 835 b 678 768 597 835 644 812 b 730 453 713 723 730 618 b 705 214 730 335 722 256 b 624 151 689 172 662 151 b 515 178 593 151 557 160 l 455 29 b 652 -18 510 -2 576 -18 b 819 32 723 -18 779 -1 b 909 173 860 65 890 112 b 939 490 929 235 939 340 b 908 782 939 614 928 711 b 808 949 888 852 854 908 b 627 1011 761 990 701 1011 b 305 852 507 1011 399 958 l 305 994 z "},"ŋ":{"ha":848,"x_min":0,"x_max":0,"o":"m 403 -272 b 526 -296 449 -288 490 -296 b 671 -259 586 -296 634 -283 b 740 -163 708 -234 731 -202 b 753 36 748 -123 753 -57 l 753 448 b 731 608 753 518 746 571 b 653 700 717 645 691 676 b 512 736 615 724 568 736 b 273 614 416 736 336 696 l 273 720 l 96 720 l 96 0 l 287 0 l 287 326 b 299 483 287 398 291 450 b 353 562 307 516 325 542 b 443 591 381 582 411 591 b 517 567 473 591 497 583 b 554 503 537 550 549 529 b 562 368 560 477 562 432 l 562 5 b 547 -88 562 -39 557 -70 b 496 -115 537 -106 520 -115 b 437 -104 480 -115 461 -112 z "},"Ō":{"ha":1080,"x_min":0,"x_max":0,"o":"m 60 491 b 191 118 60 333 104 209 b 544 -17 279 28 396 -17 b 894 119 690 -17 807 28 b 1025 496 981 210 1025 335 b 893 875 1025 658 981 784 b 541 1011 805 966 688 1011 b 327 972 460 1011 389 998 b 198 882 280 952 237 923 b 106 746 159 842 128 797 b 60 491 76 677 60 592 z m 267 498 b 343 754 267 612 293 698 b 543 840 394 811 460 840 b 742 755 626 840 692 812 b 817 500 792 699 817 614 b 740 241 817 385 792 299 b 543 155 689 183 623 155 b 345 242 463 155 397 184 b 267 498 293 300 267 385 z m 321 1084 l 758 1084 l 758 1209 l 321 1209 z "},"ō":{"ha":848,"x_min":0,"x_max":0,"o":"m 56 370 b 102 160 56 288 71 217 b 239 28 134 102 179 58 b 428 -16 299 -1 362 -16 b 693 91 535 -16 623 20 b 799 362 764 163 799 253 b 694 630 799 470 764 560 b 427 736 625 701 536 736 b 235 690 356 736 292 721 b 102 554 178 659 134 613 b 56 370 71 495 56 434 z m 251 360 b 302 524 251 432 268 486 b 427 581 336 562 378 581 b 552 524 477 581 519 562 b 603 361 586 486 603 432 b 552 196 603 289 586 234 b 427 139 519 158 477 139 b 302 196 378 139 336 158 b 251 360 268 234 251 289 z m 205 839 l 642 839 l 642 964 l 205 964 z "},"Ŏ":{"ha":1080,"x_min":0,"x_max":0,"o":"m 60 491 b 191 118 60 333 104 209 b 544 -17 279 28 396 -17 b 894 119 690 -17 807 28 b 1025 496 981 210 1025 335 b 893 875 1025 658 981 784 b 541 1011 805 966 688 1011 b 327 972 460 1011 389 998 b 198 882 280 952 237 923 b 106 746 159 842 128 797 b 60 491 76 677 60 592 z m 267 498 b 343 754 267 612 293 698 b 543 840 394 811 460 840 b 742 755 626 840 692 812 b 817 500 792 699 817 614 b 740 241 817 385 792 299 b 543 155 689 183 623 155 b 345 242 463 155 397 184 b 267 498 293 300 267 385 z m 656 1275 b 623 1202 653 1243 642 1219 b 538 1177 603 1186 575 1177 b 453 1202 501 1177 472 1186 b 419 1275 434 1219 422 1243 l 326 1275 b 391 1130 332 1213 353 1165 b 538 1078 429 1095 478 1078 b 685 1130 598 1078 647 1095 b 749 1275 722 1165 744 1213 z "},"ŏ":{"ha":848,"x_min":0,"x_max":0,"o":"m 56 370 b 102 160 56 288 71 217 b 239 28 134 102 179 58 b 428 -16 299 -1 362 -16 b 693 91 535 -16 623 20 b 799 362 764 163 799 253 b 694 630 799 470 764 560 b 427 736 625 701 536 736 b 235 690 356 736 292 721 b 102 554 178 659 134 613 b 56 370 71 495 56 434 z m 251 360 b 302 524 251 432 268 486 b 427 581 336 562 378 581 b 552 524 477 581 519 562 b 603 361 586 486 603 432 b 552 196 603 289 586 234 b 427 139 519 158 477 139 b 302 196 378 139 336 158 b 251 360 268 234 251 289 z m 541 1011 b 507 938 538 979 527 955 b 422 913 488 922 460 913 b 338 938 385 913 357 922 b 304 1011 318 955 307 979 l 211 1011 b 276 866 216 950 238 901 b 422 814 313 831 362 814 b 569 866 483 814 532 831 b 634 1011 607 901 629 950 z "},"Ő":{"ha":1080,"x_min":0,"x_max":0,"o":"m 60 491 b 191 118 60 333 104 209 b 544 -17 279 28 396 -17 b 894 119 690 -17 807 28 b 1025 496 981 210 1025 335 b 893 875 1025 658 981 784 b 541 1011 805 966 688 1011 b 327 972 460 1011 389 998 b 198 882 280 952 237 923 b 106 746 159 842 128 797 b 60 491 76 677 60 592 z m 267 498 b 343 754 267 612 293 698 b 543 840 394 811 460 840 b 742 755 626 840 692 812 b 817 500 792 699 817 614 b 740 241 817 385 792 299 b 543 155 689 183 623 155 b 345 242 463 155 397 184 b 267 498 293 300 267 385 z m 326 1051 l 445 1051 l 619 1253 l 420 1253 z m 581 1051 l 703 1051 l 870 1253 l 676 1253 z "},"ő":{"ha":848,"x_min":0,"x_max":0,"o":"m 56 370 b 102 160 56 288 71 217 b 239 28 134 102 179 58 b 428 -16 299 -1 362 -16 b 693 91 535 -16 623 20 b 799 362 764 163 799 253 b 694 630 799 470 764 560 b 427 736 625 701 536 736 b 235 690 356 736 292 721 b 102 554 178 659 134 613 b 56 370 71 495 56 434 z m 251 360 b 302 524 251 432 268 486 b 427 581 336 562 378 581 b 552 524 477 581 519 562 b 603 361 586 486 603 432 b 552 196 603 289 586 234 b 427 139 519 158 477 139 b 302 196 378 139 336 158 b 251 360 268 234 251 289 z m 193 812 l 313 812 l 487 1014 l 288 1014 z m 448 812 l 570 812 l 738 1014 l 544 1014 z "},"Œ":{"ha":1389,"x_min":0,"x_max":0,"o":"m 1346 169 l 881 169 l 881 437 l 1289 437 l 1289 605 l 881 605 l 881 826 l 1327 826 l 1327 994 l 707 994 l 707 884 b 592 977 678 923 640 954 b 437 1011 545 1000 493 1011 b 168 892 325 1011 235 972 b 49 498 88 801 49 669 b 170 98 49 326 89 192 b 446 -17 236 21 328 -17 b 707 117 568 -17 655 28 l 707 0 l 1346 0 z m 475 840 b 636 766 543 840 596 815 b 695 509 675 716 695 631 b 647 253 695 400 679 315 b 475 159 614 190 557 159 b 323 225 408 159 357 181 b 256 513 278 283 256 379 b 315 766 256 632 276 716 b 475 840 355 815 408 840 z "},"œ":{"ha":1311,"x_min":0,"x_max":0,"o":"m 1059 231 b 1008 153 1046 195 1029 168 b 932 129 987 137 962 129 b 828 173 890 129 856 143 b 780 304 800 202 784 245 l 1254 304 b 1243 451 1254 359 1251 408 b 1205 569 1235 495 1223 534 b 1142 655 1188 603 1167 632 b 1046 713 1117 679 1085 698 b 920 736 1007 729 965 736 b 786 711 871 736 826 728 b 680 636 746 695 711 670 b 566 711 646 670 608 695 b 428 736 524 728 478 736 b 235 690 356 736 292 721 b 104 551 177 659 134 612 b 60 359 74 490 60 426 b 163 89 60 249 94 159 b 425 -16 232 19 319 -16 b 561 9 473 -16 519 -8 b 677 84 603 26 642 51 b 795 8 711 50 751 24 b 931 -16 840 -8 885 -16 b 1130 41 1009 -16 1076 3 b 1245 201 1185 80 1223 133 z m 1071 423 l 782 423 b 817 542 786 477 798 517 b 923 596 843 578 878 596 b 1025 554 964 596 998 582 b 1071 423 1052 525 1067 482 z m 256 349 b 303 522 256 427 272 485 b 426 578 335 560 376 578 b 544 524 473 578 512 560 b 592 366 576 487 592 434 b 544 198 592 291 576 235 b 426 142 512 160 473 142 b 299 209 370 142 327 164 b 256 349 270 254 256 301 z "},"Ŕ":{"ha":1003,"x_min":0,"x_max":0,"o":"m 102 0 l 302 0 l 302 415 l 343 415 b 444 404 389 415 423 411 b 505 362 465 396 486 383 b 610 216 524 342 559 294 l 755 0 l 996 0 l 874 194 b 760 355 826 271 788 325 b 652 439 732 386 696 413 b 849 531 740 451 805 482 b 915 715 893 579 915 641 b 871 872 915 774 900 826 b 756 967 843 918 804 950 b 524 994 708 985 630 994 l 102 994 z m 302 574 l 302 826 l 459 826 b 606 823 541 826 589 825 b 681 784 638 817 663 804 b 708 703 699 763 708 736 b 688 628 708 673 701 648 b 631 586 674 608 655 594 b 451 574 607 578 547 574 z m 318 1051 l 439 1051 l 625 1254 l 412 1254 z "},"ŕ":{"ha":541,"x_min":0,"x_max":0,"o":"m 282 0 l 282 222 b 298 464 282 345 287 425 b 342 544 309 502 323 529 b 410 566 360 558 383 566 b 499 534 437 566 467 555 l 558 701 b 433 736 518 725 476 736 b 350 713 402 736 374 729 b 269 618 326 698 299 666 l 269 720 l 92 720 l 92 0 z m 187 808 l 308 808 l 494 1011 l 281 1011 z "},"Ŗ":{"ha":1003,"x_min":0,"x_max":0,"o":"m 102 0 l 302 0 l 302 415 l 343 415 b 444 404 389 415 423 411 b 505 362 465 396 486 383 b 610 216 524 342 559 294 l 755 0 l 996 0 l 874 194 b 760 355 826 271 788 325 b 652 439 732 386 696 413 b 849 531 740 451 805 482 b 915 715 893 579 915 641 b 871 872 915 774 900 826 b 756 967 843 918 804 950 b 524 994 708 985 630 994 l 102 994 z m 302 574 l 302 826 l 459 826 b 606 823 541 826 589 825 b 681 784 638 817 663 804 b 708 703 699 763 708 736 b 688 628 708 673 701 648 b 631 586 674 608 655 594 b 451 574 607 578 547 574 z m 414 -77 l 414 -201 l 504 -201 b 412 -294 504 -246 473 -277 l 437 -384 b 548 -332 484 -371 521 -354 b 602 -258 575 -311 593 -286 b 616 -138 612 -231 616 -191 l 616 -77 z "},"ŗ":{"ha":541,"x_min":0,"x_max":0,"o":"m 282 0 l 282 222 b 298 464 282 345 287 425 b 342 544 309 502 323 529 b 410 566 360 558 383 566 b 499 534 437 566 467 555 l 558 701 b 433 736 518 725 476 736 b 350 713 402 736 374 729 b 269 618 326 698 299 666 l 269 720 l 92 720 l 92 0 z m 85 -77 l 85 -201 l 175 -201 b 83 -294 175 -246 144 -277 l 109 -384 b 219 -332 155 -371 192 -354 b 273 -258 246 -311 264 -286 b 288 -138 283 -231 288 -191 l 288 -77 z "},"Ř":{"ha":1003,"x_min":0,"x_max":0,"o":"m 102 0 l 302 0 l 302 415 l 343 415 b 444 404 389 415 423 411 b 505 362 465 396 486 383 b 610 216 524 342 559 294 l 755 0 l 996 0 l 874 194 b 760 355 826 271 788 325 b 652 439 732 386 696 413 b 849 531 740 451 805 482 b 915 715 893 579 915 641 b 871 872 915 774 900 826 b 756 967 843 918 804 950 b 524 994 708 985 630 994 l 102 994 z m 302 574 l 302 826 l 459 826 b 606 823 541 826 589 825 b 681 784 638 817 663 804 b 708 703 699 763 708 736 b 688 628 708 673 701 648 b 631 586 674 608 655 594 b 451 574 607 578 547 574 z m 202 1255 l 345 1055 l 521 1055 l 661 1255 l 508 1255 l 429 1154 l 356 1255 z "},"ř":{"ha":541,"x_min":0,"x_max":0,"o":"m 282 0 l 282 222 b 298 464 282 345 287 425 b 342 544 309 502 323 529 b 410 566 360 558 383 566 b 499 534 437 566 467 555 l 558 701 b 433 736 518 725 476 736 b 350 713 402 736 374 729 b 269 618 326 698 299 666 l 269 720 l 92 720 l 92 0 z m 54 1011 l 197 811 l 373 811 l 513 1011 l 360 1011 l 281 910 l 208 1011 z "},"Ś":{"ha":926,"x_min":0,"x_max":0,"o":"m 50 323 b 171 70 63 212 104 128 b 460 -18 238 11 335 -18 b 677 19 547 -18 619 -6 b 811 130 735 43 779 80 b 859 290 843 179 859 233 b 819 448 859 352 845 405 b 709 549 792 491 756 524 b 492 621 662 574 590 597 b 308 687 395 644 333 666 b 278 747 288 704 278 724 b 310 809 278 773 289 794 b 447 845 343 833 389 845 b 574 811 503 845 546 834 b 629 701 602 789 621 752 l 830 710 b 731 929 827 801 794 874 b 449 1011 668 984 574 1011 b 253 977 373 1011 307 1000 b 129 876 199 954 158 920 b 86 734 100 832 86 784 b 178 534 86 655 117 588 b 404 435 221 495 297 462 b 565 392 488 415 541 400 b 637 349 599 380 623 365 b 658 289 651 332 658 312 b 609 193 658 252 641 220 b 463 152 576 166 527 152 b 317 198 401 152 353 167 b 245 342 281 229 257 277 z m 374 1051 l 494 1051 l 681 1254 l 467 1254 z "},"ś":{"ha":772,"x_min":0,"x_max":0,"o":"m 33 205 b 145 43 50 137 88 83 b 378 -16 202 4 280 -16 b 623 55 486 -16 567 7 b 705 225 678 102 705 159 b 646 367 705 286 685 333 b 433 452 605 400 535 429 b 255 505 332 475 272 493 b 236 540 242 515 236 526 b 258 578 236 556 243 569 b 366 600 279 592 315 600 b 457 577 405 600 436 592 b 501 513 479 562 493 541 l 681 546 b 582 688 663 609 630 656 b 362 736 534 720 461 736 b 133 673 259 736 182 715 b 59 515 84 630 59 578 b 144 353 59 446 87 392 b 437 260 186 325 283 294 b 500 235 470 253 491 244 b 514 199 510 226 514 214 b 489 149 514 178 506 161 b 378 121 464 130 427 121 b 273 150 333 121 298 131 b 224 235 248 169 232 198 z m 308 808 l 429 808 l 615 1011 l 401 1011 z "},"Ŝ":{"ha":926,"x_min":0,"x_max":0,"o":"m 50 323 b 171 70 63 212 104 128 b 460 -18 238 11 335 -18 b 677 19 547 -18 619 -6 b 811 130 735 43 779 80 b 859 290 843 179 859 233 b 819 448 859 352 845 405 b 709 549 792 491 756 524 b 492 621 662 574 590 597 b 308 687 395 644 333 666 b 278 747 288 704 278 724 b 310 809 278 773 289 794 b 447 845 343 833 389 845 b 574 811 503 845 546 834 b 629 701 602 789 621 752 l 830 710 b 731 929 827 801 794 874 b 449 1011 668 984 574 1011 b 253 977 373 1011 307 1000 b 129 876 199 954 158 920 b 86 734 100 832 86 784 b 178 534 86 655 117 588 b 404 435 221 495 297 462 b 565 392 488 415 541 400 b 637 349 599 380 623 365 b 658 289 651 332 658 312 b 609 193 658 252 641 220 b 463 152 576 166 527 152 b 317 198 401 152 353 167 b 245 342 281 229 257 277 z m 234 1084 l 388 1084 l 461 1185 l 540 1084 l 693 1084 l 553 1284 l 376 1284 z "},"ŝ":{"ha":772,"x_min":0,"x_max":0,"o":"m 33 205 b 145 43 50 137 88 83 b 378 -16 202 4 280 -16 b 623 55 486 -16 567 7 b 705 225 678 102 705 159 b 646 367 705 286 685 333 b 433 452 605 400 535 429 b 255 505 332 475 272 493 b 236 540 242 515 236 526 b 258 578 236 556 243 569 b 366 600 279 592 315 600 b 457 577 405 600 436 592 b 501 513 479 562 493 541 l 681 546 b 582 688 663 609 630 656 b 362 736 534 720 461 736 b 133 673 259 736 182 715 b 59 515 84 630 59 578 b 144 353 59 446 87 392 b 437 260 186 325 283 294 b 500 235 470 253 491 244 b 514 199 510 226 514 214 b 489 149 514 178 506 161 b 378 121 464 130 427 121 b 273 150 333 121 298 131 b 224 235 248 169 232 198 z m 157 811 l 311 811 l 385 912 l 463 811 l 616 811 l 476 1011 l 300 1011 z "},"Ş":{"ha":926,"x_min":0,"x_max":0,"o":"m 50 323 b 171 70 63 212 104 128 b 460 -18 238 11 335 -18 b 677 19 547 -18 619 -6 b 811 130 735 43 779 80 b 859 290 843 179 859 233 b 819 448 859 352 845 405 b 709 549 792 491 756 524 b 492 621 662 574 590 597 b 308 687 395 644 333 666 b 278 747 288 704 278 724 b 310 809 278 773 289 794 b 447 845 343 833 389 845 b 574 811 503 845 546 834 b 629 701 602 789 621 752 l 830 710 b 731 929 827 801 794 874 b 449 1011 668 984 574 1011 b 253 977 373 1011 307 1000 b 129 876 199 954 158 920 b 86 734 100 832 86 784 b 178 534 86 655 117 588 b 404 435 221 495 297 462 b 565 392 488 415 541 400 b 637 349 599 380 623 365 b 658 289 651 332 658 312 b 609 193 658 252 641 220 b 463 152 576 166 527 152 b 317 198 401 152 353 167 b 245 342 281 229 257 277 z m 279 -273 b 411 -284 309 -281 353 -284 b 600 -233 493 -284 556 -267 b 648 -136 632 -208 648 -176 b 604 -45 648 -101 634 -70 b 475 -8 575 -21 532 -8 b 361 -26 435 -8 397 -14 l 344 -94 b 433 -80 374 -85 404 -80 b 498 -97 462 -80 484 -86 b 519 -137 512 -108 519 -122 b 496 -179 519 -154 511 -168 b 407 -201 477 -194 447 -201 b 279 -193 368 -201 325 -198 z "},"ş":{"ha":772,"x_min":0,"x_max":0,"o":"m 33 205 b 145 43 50 137 88 83 b 378 -16 202 4 280 -16 b 623 55 486 -16 567 7 b 705 225 678 102 705 159 b 646 367 705 286 685 333 b 433 452 605 400 535 429 b 255 505 332 475 272 493 b 236 540 242 515 236 526 b 258 578 236 556 243 569 b 366 600 279 592 315 600 b 457 577 405 600 436 592 b 501 513 479 562 493 541 l 681 546 b 582 688 663 609 630 656 b 362 736 534 720 461 736 b 133 673 259 736 182 715 b 59 515 84 630 59 578 b 144 353 59 446 87 392 b 437 260 186 325 283 294 b 500 235 470 253 491 244 b 514 199 510 226 514 214 b 489 149 514 178 506 161 b 378 121 464 130 427 121 b 273 150 333 121 298 131 b 224 235 248 169 232 198 z m 214 -273 b 347 -284 244 -281 288 -284 b 535 -233 428 -284 491 -267 b 584 -136 568 -208 584 -176 b 540 -45 584 -101 569 -70 b 411 -8 510 -21 467 -8 b 297 -26 370 -8 332 -14 l 279 -94 b 368 -80 310 -85 339 -80 b 433 -97 398 -80 419 -86 b 454 -137 447 -108 454 -122 b 432 -179 454 -154 447 -168 b 342 -201 413 -194 383 -201 b 214 -193 304 -201 261 -198 z "},"Š":{"ha":926,"x_min":0,"x_max":0,"o":"m 50 323 b 171 70 63 212 104 128 b 460 -18 238 11 335 -18 b 677 19 547 -18 619 -6 b 811 130 735 43 779 80 b 859 290 843 179 859 233 b 819 448 859 352 845 405 b 709 549 792 491 756 524 b 492 621 662 574 590 597 b 308 687 395 644 333 666 b 278 747 288 704 278 724 b 310 809 278 773 289 794 b 447 845 343 833 389 845 b 574 811 503 845 546 834 b 629 701 602 789 621 752 l 830 710 b 731 929 827 801 794 874 b 449 1011 668 984 574 1011 b 253 977 373 1011 307 1000 b 129 876 199 954 158 920 b 86 734 100 832 86 784 b 178 534 86 655 117 588 b 404 435 221 495 297 462 b 565 392 488 415 541 400 b 637 349 599 380 623 365 b 658 289 651 332 658 312 b 609 193 658 252 641 220 b 463 152 576 166 527 152 b 317 198 401 152 353 167 b 245 342 281 229 257 277 z m 227 1255 l 369 1055 l 545 1055 l 686 1255 l 532 1255 l 454 1154 l 380 1255 z "},"š":{"ha":772,"x_min":0,"x_max":0,"o":"m 33 205 b 145 43 50 137 88 83 b 378 -16 202 4 280 -16 b 623 55 486 -16 567 7 b 705 225 678 102 705 159 b 646 367 705 286 685 333 b 433 452 605 400 535 429 b 255 505 332 475 272 493 b 236 540 242 515 236 526 b 258 578 236 556 243 569 b 366 600 279 592 315 600 b 457 577 405 600 436 592 b 501 513 479 562 493 541 l 681 546 b 582 688 663 609 630 656 b 362 736 534 720 461 736 b 133 673 259 736 182 715 b 59 515 84 630 59 578 b 144 353 59 446 87 392 b 437 260 186 325 283 294 b 500 235 470 253 491 244 b 514 199 510 226 514 214 b 489 149 514 178 506 161 b 378 121 464 130 427 121 b 273 150 333 121 298 131 b 224 235 248 169 232 198 z m 139 1011 l 281 811 l 458 811 l 598 1011 l 445 1011 l 366 910 l 293 1011 z "},"Ţ":{"ha":848,"x_min":0,"x_max":0,"o":"m 325 0 l 526 0 l 526 826 l 820 826 l 820 994 l 30 994 l 30 826 l 325 826 z m 236 -273 b 368 -284 266 -281 310 -284 b 557 -233 450 -284 513 -267 b 606 -136 589 -208 606 -176 b 562 -45 606 -101 591 -70 b 433 -8 532 -21 489 -8 b 319 -26 392 -8 354 -14 l 301 -94 b 390 -80 331 -85 361 -80 b 455 -97 419 -80 441 -86 b 476 -137 469 -108 476 -122 b 454 -179 476 -154 469 -168 b 364 -201 434 -194 404 -201 b 236 -193 325 -201 283 -198 z "},"ţ":{"ha":463,"x_min":0,"x_max":0,"o":"m 430 720 l 300 720 l 300 975 l 109 863 l 109 720 l 21 720 l 21 568 l 109 568 l 109 254 b 115 120 109 187 111 142 b 141 46 120 89 129 64 b 202 1 154 27 175 13 b 295 -16 230 -11 261 -16 b 446 12 351 -16 401 -7 l 429 160 b 353 142 396 148 370 142 b 320 151 340 142 329 145 b 303 175 312 158 306 166 b 300 278 301 185 300 219 l 300 568 l 430 568 z m 80 -273 b 212 -284 110 -281 154 -284 b 401 -233 294 -284 357 -267 b 450 -136 433 -208 450 -176 b 406 -45 450 -101 435 -70 b 277 -8 376 -21 333 -8 b 163 -26 236 -8 198 -14 l 145 -94 b 234 -80 175 -85 205 -80 b 299 -97 263 -80 285 -86 b 320 -137 313 -108 320 -122 b 298 -179 320 -154 313 -168 b 208 -201 278 -194 248 -201 b 80 -193 169 -201 127 -198 z "},"Ť":{"ha":848,"x_min":0,"x_max":0,"o":"m 325 0 l 526 0 l 526 826 l 820 826 l 820 994 l 30 994 l 30 826 l 325 826 z m 185 1255 l 328 1055 l 504 1055 l 644 1255 l 491 1255 l 412 1154 l 339 1255 z "},"ť":{"ha":665,"x_min":0,"x_max":0,"o":"m 495 994 l 495 823 l 578 823 b 555 741 578 789 570 762 b 481 694 540 721 515 705 l 515 623 b 603 675 549 635 578 652 b 653 752 627 697 644 723 b 667 871 662 781 667 821 l 667 994 z m 429 720 l 299 720 l 299 975 l 108 863 l 108 720 l 20 720 l 20 568 l 108 568 l 108 254 b 114 120 108 187 110 142 b 141 46 119 89 128 64 b 201 1 154 27 174 13 b 294 -16 229 -11 260 -16 b 445 12 350 -16 401 -7 l 429 160 b 352 142 395 148 370 142 b 320 151 339 142 329 145 b 303 175 311 158 305 166 b 299 278 300 185 299 219 l 299 568 l 429 568 z "},"Ŧ":{"ha":848,"x_min":0,"x_max":0,"o":"m 325 374 l 325 0 l 526 0 l 526 374 l 739 374 l 739 501 l 526 501 l 526 826 l 820 826 l 820 994 l 30 994 l 30 826 l 325 826 l 325 501 l 112 501 l 112 374 z "},"ŧ":{"ha":463,"x_min":0,"x_max":0,"o":"m 290 411 l 290 568 l 420 568 l 420 720 l 290 720 l 290 975 l 100 863 l 100 720 l 12 720 l 12 568 l 100 568 l 100 411 l 5 411 l 5 293 l 100 293 l 100 254 b 112 88 100 174 104 119 b 169 13 121 57 139 32 b 286 -16 198 -7 237 -16 b 436 12 342 -16 392 -7 l 420 160 b 343 142 386 148 361 142 b 307 155 328 142 316 146 b 292 185 298 163 293 173 b 290 277 291 196 290 227 l 290 293 l 410 293 l 410 411 z "},"Ũ":{"ha":1003,"x_min":0,"x_max":0,"o":"m 100 994 l 100 464 b 119 212 100 353 106 269 b 176 101 128 173 147 136 b 292 16 204 66 243 38 b 508 -17 341 -6 413 -17 b 699 13 587 -17 650 -7 b 816 94 748 33 787 60 b 876 219 845 128 865 170 b 892 472 887 268 892 353 l 892 994 l 692 994 l 692 444 b 683 275 692 366 689 309 b 631 190 677 241 660 213 b 502 155 602 166 559 155 b 369 192 446 155 402 167 b 308 290 337 216 316 249 b 300 456 303 315 300 370 l 300 994 z m 349 1082 b 362 1128 350 1104 354 1119 b 396 1141 370 1137 382 1141 b 487 1118 415 1141 445 1133 b 565 1090 529 1102 555 1093 b 610 1085 580 1087 595 1085 b 697 1124 646 1085 674 1098 b 731 1255 719 1151 731 1194 l 643 1255 b 624 1210 640 1234 634 1219 b 588 1196 615 1201 602 1196 b 504 1220 568 1196 539 1204 b 429 1250 468 1236 443 1246 b 385 1255 416 1253 401 1255 b 296 1216 349 1255 319 1242 b 262 1107 273 1191 262 1154 b 262 1082 262 1101 262 1093 z "},"ũ":{"ha":848,"x_min":0,"x_max":0,"o":"m 574 0 l 751 0 l 751 720 l 560 720 l 560 416 b 546 222 560 313 555 249 b 493 156 536 196 519 173 b 406 129 467 138 438 129 b 335 149 377 129 354 136 b 297 203 316 162 304 180 b 286 389 290 226 286 288 l 286 720 l 96 720 l 96 264 b 121 105 96 197 104 144 b 205 16 139 67 166 37 b 335 -16 243 -6 287 -16 b 470 17 382 -16 428 -5 b 574 108 513 39 548 69 z m 272 817 b 285 863 272 839 277 854 b 319 876 293 872 304 876 b 410 852 338 876 368 868 b 488 825 451 837 477 827 b 533 820 503 821 518 820 b 620 859 568 820 597 833 b 654 990 642 885 653 929 l 566 990 b 547 945 563 969 557 954 b 511 931 537 936 525 931 b 426 955 490 931 462 939 b 352 984 390 971 366 981 b 308 989 338 988 324 989 b 219 951 272 989 242 977 b 184 842 196 926 184 889 b 185 817 184 836 185 828 z "},"Ū":{"ha":1003,"x_min":0,"x_max":0,"o":"m 100 994 l 100 464 b 119 212 100 353 106 269 b 176 101 128 173 147 136 b 292 16 204 66 243 38 b 508 -17 341 -6 413 -17 b 699 13 587 -17 650 -7 b 816 94 748 33 787 60 b 876 219 845 128 865 170 b 892 472 887 268 892 353 l 892 994 l 692 994 l 692 444 b 683 275 692 366 689 309 b 631 190 677 241 660 213 b 502 155 602 166 559 155 b 369 192 446 155 402 167 b 308 290 337 216 316 249 b 300 456 303 315 300 370 l 300 994 z m 283 1084 l 720 1084 l 720 1209 l 283 1209 z "},"ū":{"ha":848,"x_min":0,"x_max":0,"o":"m 574 0 l 751 0 l 751 720 l 560 720 l 560 416 b 546 222 560 313 555 249 b 493 156 536 196 519 173 b 406 129 467 138 438 129 b 335 149 377 129 354 136 b 297 203 316 162 304 180 b 286 389 290 226 286 288 l 286 720 l 96 720 l 96 264 b 121 105 96 197 104 144 b 205 16 139 67 166 37 b 335 -16 243 -6 287 -16 b 470 17 382 -16 428 -5 b 574 108 513 39 548 69 z m 205 839 l 642 839 l 642 964 l 205 964 z "},"Ŭ":{"ha":1003,"x_min":0,"x_max":0,"o":"m 100 994 l 100 464 b 119 212 100 353 106 269 b 176 101 128 173 147 136 b 292 16 204 66 243 38 b 508 -17 341 -6 413 -17 b 699 13 587 -17 650 -7 b 816 94 748 33 787 60 b 876 219 845 128 865 170 b 892 472 887 268 892 353 l 892 994 l 692 994 l 692 444 b 683 275 692 366 689 309 b 631 190 677 241 660 213 b 502 155 602 166 559 155 b 369 192 446 155 402 167 b 308 290 337 216 316 249 b 300 456 303 315 300 370 l 300 994 z m 618 1275 b 585 1202 615 1243 604 1219 b 500 1177 565 1186 537 1177 b 415 1202 463 1177 434 1186 b 381 1275 396 1219 384 1243 l 288 1275 b 353 1130 294 1213 315 1165 b 500 1078 391 1095 440 1078 b 647 1130 560 1078 609 1095 b 711 1275 684 1165 706 1213 z "},"ŭ":{"ha":848,"x_min":0,"x_max":0,"o":"m 574 0 l 751 0 l 751 720 l 560 720 l 560 416 b 546 222 560 313 555 249 b 493 156 536 196 519 173 b 406 129 467 138 438 129 b 335 149 377 129 354 136 b 297 203 316 162 304 180 b 286 389 290 226 286 288 l 286 720 l 96 720 l 96 264 b 121 105 96 197 104 144 b 205 16 139 67 166 37 b 335 -16 243 -6 287 -16 b 470 17 382 -16 428 -5 b 574 108 513 39 548 69 z m 541 1011 b 507 938 538 979 527 955 b 422 913 488 922 460 913 b 338 938 385 913 357 922 b 304 1011 318 955 307 979 l 211 1011 b 276 866 216 950 238 901 b 422 814 313 831 362 814 b 569 866 483 814 532 831 b 634 1011 607 901 629 950 z "},"Ů":{"ha":1003,"x_min":0,"x_max":0,"o":"m 100 994 l 100 464 b 119 212 100 353 106 269 b 176 101 128 173 147 136 b 292 16 204 66 243 38 b 508 -17 341 -6 413 -17 b 699 13 587 -17 650 -7 b 816 94 748 33 787 60 b 876 219 845 128 865 170 b 892 472 887 268 892 353 l 892 994 l 692 994 l 692 444 b 683 275 692 366 689 309 b 631 190 677 241 660 213 b 502 155 602 166 559 155 b 369 192 446 155 402 167 b 308 290 337 216 316 249 b 300 456 303 315 300 370 l 300 994 z m 629 1144 b 590 1238 629 1181 616 1213 b 496 1277 564 1264 533 1277 b 402 1238 460 1277 428 1264 b 363 1144 376 1212 363 1181 b 402 1050 363 1107 376 1076 b 496 1011 428 1024 460 1011 b 590 1050 533 1011 564 1024 b 629 1144 616 1076 629 1107 z m 557 1144 b 539 1101 557 1127 551 1113 b 496 1084 527 1090 513 1084 b 454 1101 480 1084 465 1090 b 436 1144 442 1113 436 1127 b 454 1187 436 1161 442 1175 b 496 1204 465 1199 480 1204 b 539 1187 513 1204 527 1199 b 557 1144 551 1175 557 1161 z "},"ů":{"ha":848,"x_min":0,"x_max":0,"o":"m 574 0 l 751 0 l 751 720 l 560 720 l 560 416 b 546 222 560 313 555 249 b 493 156 536 196 519 173 b 406 129 467 138 438 129 b 335 149 377 129 354 136 b 297 203 316 162 304 180 b 286 389 290 226 286 288 l 286 720 l 96 720 l 96 264 b 121 105 96 197 104 144 b 205 16 139 67 166 37 b 335 -16 243 -6 287 -16 b 470 17 382 -16 428 -5 b 574 108 513 39 548 69 z m 556 910 b 517 1004 556 947 543 979 b 423 1043 491 1030 460 1043 b 329 1004 387 1043 355 1030 b 290 910 303 978 290 947 b 329 816 290 873 303 842 b 423 777 355 790 387 777 b 517 816 460 777 491 790 b 556 910 543 842 556 873 z m 484 910 b 466 867 484 893 478 879 b 423 850 454 856 440 850 b 380 867 406 850 392 856 b 363 910 369 879 363 893 b 380 953 363 927 369 941 b 423 970 392 965 406 970 b 466 953 440 970 454 965 b 484 910 478 941 484 927 z "},"Ű":{"ha":1003,"x_min":0,"x_max":0,"o":"m 100 994 l 100 464 b 119 212 100 353 106 269 b 176 101 128 173 147 136 b 292 16 204 66 243 38 b 508 -17 341 -6 413 -17 b 699 13 587 -17 650 -7 b 816 94 748 33 787 60 b 876 219 845 128 865 170 b 892 472 887 268 892 353 l 892 994 l 692 994 l 692 444 b 683 275 692 366 689 309 b 631 190 677 241 660 213 b 502 155 602 166 559 155 b 369 192 446 155 402 167 b 308 290 337 216 316 249 b 300 456 303 315 300 370 l 300 994 z m 286 1051 l 406 1051 l 580 1253 l 380 1253 z m 541 1051 l 663 1051 l 831 1253 l 637 1253 z "},"ű":{"ha":848,"x_min":0,"x_max":0,"o":"m 574 0 l 751 0 l 751 720 l 560 720 l 560 416 b 546 222 560 313 555 249 b 493 156 536 196 519 173 b 406 129 467 138 438 129 b 335 149 377 129 354 136 b 297 203 316 162 304 180 b 286 389 290 226 286 288 l 286 720 l 96 720 l 96 264 b 121 105 96 197 104 144 b 205 16 139 67 166 37 b 335 -16 243 -6 287 -16 b 470 17 382 -16 428 -5 b 574 108 513 39 548 69 z m 216 812 l 336 812 l 510 1014 l 311 1014 z m 471 812 l 593 812 l 761 1014 l 567 1014 z "},"Ų":{"ha":1003,"x_min":0,"x_max":0,"o":"m 100 994 l 100 464 b 119 212 100 353 106 269 b 176 101 128 173 147 136 b 292 16 204 66 243 38 b 508 -17 341 -6 413 -17 b 699 13 587 -17 650 -7 b 816 94 748 33 787 60 b 876 219 845 128 865 170 b 892 472 887 268 892 353 l 892 994 l 692 994 l 692 444 b 683 275 692 366 689 309 b 631 190 677 241 660 213 b 502 155 602 166 559 155 b 369 192 446 155 402 167 b 308 290 337 216 316 249 b 300 456 303 315 300 370 l 300 994 z m 623 0 l 510 0 b 446 -75 483 -22 462 -47 b 422 -157 430 -104 422 -131 b 432 -207 422 -175 426 -192 b 459 -248 438 -223 447 -236 b 506 -276 472 -260 487 -269 b 572 -286 524 -283 546 -286 b 674 -259 602 -286 636 -277 l 674 -146 b 645 -154 665 -149 655 -151 b 618 -159 635 -157 626 -159 b 578 -143 599 -159 586 -154 b 566 -106 570 -133 566 -121 b 570 -78 566 -97 568 -87 b 582 -49 573 -68 577 -58 b 600 -22 587 -39 593 -30 b 623 0 607 -14 615 -6 z "},"ų":{"ha":848,"x_min":0,"x_max":0,"o":"m 574 0 l 751 0 l 751 720 l 560 720 l 560 416 b 546 222 560 313 555 249 b 493 156 536 196 519 173 b 406 129 467 138 438 129 b 335 149 377 129 354 136 b 297 203 316 162 304 180 b 286 389 290 226 286 288 l 286 720 l 96 720 l 96 264 b 121 105 96 197 104 144 b 205 16 139 67 166 37 b 335 -16 243 -6 287 -16 b 470 17 382 -16 428 -5 b 574 108 513 39 548 69 z m 715 0 l 602 0 b 538 -75 576 -22 554 -47 b 515 -157 523 -104 515 -131 b 524 -207 515 -175 518 -192 b 552 -248 530 -223 539 -236 b 598 -276 564 -260 580 -269 b 664 -286 617 -283 639 -286 b 766 -259 694 -286 728 -277 l 766 -146 b 738 -154 757 -149 748 -151 b 710 -159 727 -157 718 -159 b 670 -143 692 -159 678 -154 b 659 -106 662 -133 659 -121 b 663 -78 659 -97 660 -87 b 674 -49 665 -68 669 -58 b 692 -22 679 -39 685 -30 b 715 0 699 -14 707 -6 z "},"Ŵ":{"ha":1311,"x_min":0,"x_max":0,"o":"m 242 0 l 460 0 l 657 743 l 855 0 l 1068 0 l 1310 994 l 1107 994 l 955 300 l 781 994 l 542 994 l 360 311 l 210 994 l 5 994 z m 426 1084 l 580 1084 l 653 1185 l 732 1084 l 885 1084 l 745 1284 l 568 1284 z "},"ŵ":{"ha":1080,"x_min":0,"x_max":0,"o":"m 234 0 l 419 0 l 541 463 l 665 0 l 848 0 l 1080 720 l 892 720 l 754 248 l 634 720 l 450 720 l 326 248 l 191 720 l 6 720 z m 311 811 l 465 811 l 538 912 l 617 811 l 770 811 l 630 1011 l 454 1011 z "},"Ŷ":{"ha":926,"x_min":0,"x_max":0,"o":"m 362 0 l 562 0 l 562 417 l 928 994 l 696 994 l 467 601 l 233 994 l -2 994 l 362 418 z m 240 1084 l 394 1084 l 467 1185 l 546 1084 l 699 1084 l 559 1284 l 382 1284 z "},"ŷ":{"ha":772,"x_min":0,"x_max":0,"o":"m 9 720 l 283 -2 b 235 -101 272 -42 256 -75 b 136 -140 213 -127 181 -140 b 56 -132 112 -140 85 -137 l 73 -281 b 180 -292 108 -288 144 -292 b 278 -281 217 -292 249 -288 b 350 -249 306 -273 331 -262 b 402 -195 370 -235 387 -217 b 450 -98 418 -172 434 -140 l 496 27 l 750 720 l 553 720 l 385 209 l 212 720 z m 157 811 l 311 811 l 384 912 l 463 811 l 616 811 l 475 1011 l 299 1011 z "},"Ÿ":{"ha":926,"x_min":0,"x_max":0,"o":"m 362 0 l 562 0 l 562 417 l 928 994 l 696 994 l 467 601 l 233 994 l -2 994 l 362 418 z m 237 1051 l 401 1051 l 401 1215 l 237 1215 z m 529 1051 l 693 1051 l 693 1215 l 529 1215 z "},"Ź":{"ha":848,"x_min":0,"x_max":0,"o":"m 15 0 l 823 0 l 823 168 l 257 168 l 802 838 l 802 994 l 74 994 l 74 826 l 537 826 l 15 181 z m 295 1051 l 416 1051 l 602 1254 l 389 1254 z "},"ź":{"ha":694,"x_min":0,"x_max":0,"o":"m 23 0 l 666 0 l 666 168 l 371 168 b 273 163 358 168 326 166 l 370 268 l 645 585 l 645 720 l 50 720 l 50 562 l 304 564 b 391 566 340 564 369 565 b 293 458 370 545 337 509 l 23 149 z m 216 808 l 336 808 l 523 1011 l 309 1011 z "},"Ż":{"ha":848,"x_min":0,"x_max":0,"o":"m 15 0 l 823 0 l 823 168 l 257 168 l 802 838 l 802 994 l 74 994 l 74 826 l 537 826 l 15 181 z m 342 1056 l 530 1056 l 530 1236 l 342 1236 z "},"ż":{"ha":694,"x_min":0,"x_max":0,"o":"m 23 0 l 666 0 l 666 168 l 371 168 b 273 163 358 168 326 166 l 370 268 l 645 585 l 645 720 l 50 720 l 50 562 l 304 564 b 391 566 340 564 369 565 b 293 458 370 545 337 509 l 23 149 z m 244 831 l 431 831 l 431 1011 l 244 1011 z "},"Ž":{"ha":848,"x_min":0,"x_max":0,"o":"m 15 0 l 823 0 l 823 168 l 257 168 l 802 838 l 802 994 l 74 994 l 74 826 l 537 826 l 15 181 z m 184 1255 l 326 1055 l 503 1055 l 643 1255 l 490 1255 l 411 1154 l 338 1255 z "},"ž":{"ha":694,"x_min":0,"x_max":0,"o":"m 23 0 l 666 0 l 666 168 l 371 168 b 273 163 358 168 326 166 l 370 268 l 645 585 l 645 720 l 50 720 l 50 562 l 304 564 b 391 566 340 564 369 565 b 293 458 370 545 337 509 l 23 149 z m 115 1011 l 258 811 l 434 811 l 574 1011 l 421 1011 l 342 910 l 269 1011 z "},"ſ":{"ha":386,"x_min":0,"x_max":0,"o":"m 477 987 b 316 1011 425 1003 371 1011 b 190 985 268 1011 226 1002 b 116 912 154 968 130 943 b 96 774 102 881 96 835 l 96 0 l 286 0 l 286 771 b 303 844 286 806 292 831 b 362 865 314 858 334 865 b 451 854 391 865 421 861 z "},"ƀ":{"ha":848,"x_min":0,"x_max":0,"o":"m 795 368 b 723 624 795 472 771 557 b 491 736 669 699 591 736 b 282 636 411 736 341 703 l 282 797 l 490 797 l 490 924 l 282 924 l 282 994 l 92 994 l 92 924 l 18 924 l 18 797 l 92 797 l 92 0 l 269 0 l 269 106 b 494 -16 327 24 402 -16 b 724 106 593 -16 670 24 b 795 368 771 176 795 263 z m 600 358 b 569 210 600 298 589 249 b 448 134 542 159 502 134 b 316 210 393 134 349 160 b 281 376 293 246 281 301 b 315 522 281 435 292 484 b 440 591 343 568 385 591 b 600 358 546 591 600 513 z "},"Ɓ":{"ha":1162,"x_min":0,"x_max":0,"o":"m 1093 288 b 1042 441 1093 348 1076 399 b 905 528 1009 482 963 511 b 1007 615 948 548 982 577 b 1044 744 1032 654 1044 696 b 938 943 1044 828 1009 895 b 803 989 903 967 858 983 b 658 994 776 993 728 994 l 260 994 b 20 798 100 994 20 929 b 45 638 20 743 28 690 l 178 664 b 167 751 170 694 167 723 b 193 815 167 783 175 804 b 260 829 206 824 229 829 l 260 0 l 599 0 b 841 7 719 0 800 2 b 976 54 894 13 939 28 b 1093 288 1054 109 1093 187 z m 849 715 b 739 602 849 649 812 611 b 593 599 720 600 671 599 l 461 599 l 461 829 l 576 829 b 748 825 672 829 729 828 b 849 715 815 817 849 781 z m 886 298 b 785 174 886 228 852 187 b 647 168 763 170 718 168 l 461 168 l 461 433 l 623 433 b 802 419 715 433 774 429 b 886 298 858 400 886 359 z "},"Ƃ":{"ha":998,"x_min":0,"x_max":0,"o":"m 105 994 l 105 0 l 574 0 b 765 26 657 0 720 9 b 884 125 809 44 849 77 b 936 298 918 173 936 230 b 884 469 936 363 919 420 b 759 570 849 518 808 552 b 574 597 710 588 649 597 l 306 597 l 306 827 l 848 827 l 848 994 z m 306 167 l 306 430 l 510 430 b 678 398 589 430 645 419 b 727 298 711 377 727 344 b 699 218 727 266 718 239 b 633 176 680 196 658 182 b 501 167 607 170 564 167 z "},"ƃ":{"ha":848,"x_min":0,"x_max":0,"o":"m 795 368 b 723 624 795 472 771 557 b 491 736 669 699 591 736 b 282 636 411 736 341 703 l 282 840 l 600 840 l 600 994 l 92 994 l 92 0 l 269 0 l 269 106 b 494 -16 327 24 402 -16 b 724 106 593 -16 670 24 b 795 368 771 176 795 263 z m 600 358 b 569 210 600 298 589 249 b 448 134 542 159 502 134 b 316 210 393 134 349 160 b 281 376 293 246 281 301 b 315 522 281 435 292 484 b 440 591 343 568 385 591 b 600 358 546 591 600 513 z "},"Ƅ":{"ha":998,"x_min":0,"x_max":0,"o":"m 935 295 b 827 527 935 397 899 474 b 574 597 765 574 680 597 l 306 597 l 306 994 l 269 994 l 7 810 l 7 787 l 105 675 l 105 0 l 574 0 b 766 26 657 0 721 9 b 891 134 818 46 860 82 b 935 295 920 183 935 237 z m 727 298 b 699 218 727 266 718 239 b 607 171 677 193 646 178 b 501 167 589 168 554 167 l 306 167 l 306 430 l 510 430 b 654 410 575 430 623 423 b 727 298 703 390 727 352 z "},"ƅ":{"ha":848,"x_min":0,"x_max":0,"o":"m 795 368 b 723 624 795 472 771 557 b 491 736 669 699 591 736 b 282 636 411 736 341 703 l 282 994 l 245 994 l 7 864 l 7 842 l 92 736 l 92 0 l 269 0 l 269 106 b 494 -16 327 24 402 -16 b 724 106 593 -16 670 24 b 795 368 771 176 795 263 z m 600 358 b 569 210 600 298 589 249 b 448 134 542 159 502 134 b 316 210 393 134 349 160 b 281 376 293 246 281 301 b 315 522 281 435 292 484 b 440 591 343 568 385 591 b 600 358 546 591 600 513 z "},"Ɔ":{"ha":1003,"x_min":0,"x_max":0,"o":"m 937 488 b 822 860 937 642 899 766 b 472 1011 739 961 623 1011 b 176 903 350 1011 252 975 b 74 720 130 860 97 799 l 273 673 b 347 795 284 724 309 765 b 482 840 384 825 429 840 b 730 503 648 840 730 727 b 486 155 730 271 649 155 b 266 366 371 155 298 225 l 71 304 b 484 -17 130 90 268 -17 b 821 132 627 -17 739 33 b 937 488 899 224 937 343 z "},"Ƈ":{"ha":1003,"x_min":0,"x_max":0,"o":"m 1120 1133 b 960 1158 1068 1149 1015 1158 b 741 965 814 1158 741 1093 b 531 1011 679 996 609 1011 b 181 859 380 1011 264 961 b 66 488 104 766 66 642 b 181 132 66 343 104 224 b 519 -17 263 33 376 -17 b 932 304 735 -17 873 90 l 737 366 b 517 155 705 225 632 155 b 273 503 354 155 273 271 b 521 840 273 727 355 840 b 657 795 574 840 620 825 b 730 673 694 766 719 725 l 929 720 l 929 918 b 943 985 929 949 934 972 b 1006 1011 954 1003 975 1011 b 1094 1000 1034 1011 1064 1008 z "},"ƈ":{"ha":772,"x_min":0,"x_max":0,"o":"m 918 859 b 759 883 866 875 813 883 b 597 829 691 883 637 865 b 542 703 560 796 542 754 b 407 736 511 725 466 736 b 146 631 295 736 208 701 b 58 359 87 564 58 473 b 145 90 58 247 87 157 b 404 -16 207 19 293 -16 b 737 244 587 -16 698 71 l 550 276 b 412 139 533 185 487 139 b 254 373 307 139 254 217 b 410 587 254 515 306 587 b 540 473 484 587 527 549 l 728 507 l 728 643 b 741 711 728 675 732 697 b 805 736 753 728 774 736 b 892 726 833 736 862 733 z "},"Ɖ":{"ha":1003,"x_min":0,"x_max":0,"o":"m 101 994 l 101 560 l -2 560 l -2 434 l 101 434 l 101 0 l 478 0 b 656 21 553 0 612 7 b 797 99 715 40 762 66 b 900 263 842 143 876 198 b 935 485 923 329 935 403 b 903 720 935 578 924 656 b 809 881 882 783 851 837 b 659 975 767 926 717 957 b 467 994 615 988 551 994 z m 301 826 l 392 826 b 565 815 478 826 536 822 b 656 763 602 805 633 788 b 709 665 679 738 697 705 b 727 492 721 624 727 567 b 684 258 727 387 713 309 b 595 184 664 222 634 197 b 452 168 566 173 518 168 l 301 168 l 301 434 l 514 434 l 514 560 l 301 560 z "},"Ɗ":{"ha":1163,"x_min":0,"x_max":0,"o":"m 1094 488 b 1061 723 1094 581 1083 659 b 817 975 1016 857 934 941 b 627 994 774 988 710 994 l 260 994 b 20 798 100 994 20 929 b 45 638 20 743 28 690 l 178 664 b 167 751 170 694 167 723 b 193 814 167 783 176 804 b 260 826 206 822 228 826 l 260 0 l 638 0 b 816 21 713 0 772 7 b 957 100 875 40 922 66 b 1094 488 1048 189 1094 318 z m 886 496 b 823 227 886 365 865 276 b 732 177 802 204 772 187 b 611 168 707 171 667 168 l 461 168 l 461 826 l 551 826 b 716 817 633 826 688 823 b 809 770 754 808 785 793 b 886 496 861 721 886 630 z "},"Ƌ":{"ha":998,"x_min":0,"x_max":0,"o":"m 893 0 l 893 994 l 150 994 l 150 827 l 692 827 l 692 597 l 424 597 b 239 570 350 597 288 588 b 109 461 185 550 142 514 b 62 298 78 411 62 357 b 115 125 62 230 80 173 b 251 20 152 74 197 39 b 424 0 291 7 349 0 z m 692 167 l 497 167 b 366 176 436 167 392 170 b 297 220 338 183 315 198 b 271 298 280 243 271 269 b 344 410 271 353 295 390 b 488 430 375 423 424 430 l 692 430 z "},"ƌ":{"ha":848,"x_min":0,"x_max":0,"o":"m 760 0 l 760 994 l 252 994 l 252 840 l 570 840 l 570 636 b 361 736 511 703 441 736 b 127 622 259 736 181 698 b 57 363 80 555 57 469 b 130 105 57 262 81 176 b 358 -16 185 24 261 -16 b 583 106 450 -16 525 24 l 583 0 z m 570 357 b 536 209 570 299 559 249 b 412 134 508 159 467 134 b 283 209 357 134 314 159 b 252 376 262 243 252 299 b 286 521 252 434 263 483 b 411 591 315 567 356 591 b 570 357 517 591 570 513 z "},"ƍ":{"ha":842,"x_min":0,"x_max":0,"o":"m 790 358 b 740 558 790 433 773 500 b 420 736 672 677 565 736 b 153 635 309 736 220 703 b 53 366 86 567 53 477 b 75 235 53 320 60 277 b 149 116 92 189 116 149 b 260 29 172 92 209 63 b 454 -116 352 -33 417 -81 l 115 -116 l 115 -274 l 723 -274 l 723 -140 l 625 -64 b 523 11 604 -47 569 -22 b 720 134 604 24 669 66 b 790 358 767 199 790 274 z m 606 380 b 561 224 606 317 591 265 b 418 155 527 178 479 155 b 281 222 361 155 315 178 b 237 373 252 263 237 313 b 283 524 237 434 252 484 b 423 591 318 569 364 591 b 561 528 482 591 528 570 b 606 380 591 490 606 440 z "},"Ǝ":{"ha":926,"x_min":0,"x_max":0,"o":"m 825 0 l 825 994 l 88 994 l 88 826 l 625 826 l 625 606 l 125 606 l 125 438 l 625 438 l 625 168 l 69 168 l 69 0 z "},"Ə":{"ha":1008,"x_min":0,"x_max":0,"o":"m 953 492 b 838 860 953 644 915 766 b 492 1011 755 961 640 1011 b 233 940 389 1011 303 987 b 86 720 157 889 108 816 l 285 674 b 498 838 318 783 389 838 b 671 760 570 838 627 812 b 741 579 709 715 732 654 l 68 579 b 60 492 63 541 60 512 b 245 64 60 308 122 166 b 502 -17 312 10 397 -17 b 741 45 595 -17 675 4 b 953 492 882 135 953 283 z m 741 412 b 660 215 728 321 701 256 b 502 153 618 174 566 153 b 353 216 444 153 395 174 b 273 412 311 258 284 324 z "},"Ɛ":{"ha":870,"x_min":0,"x_max":0,"o":"m 840 229 l 656 290 b 589 179 640 237 617 200 b 465 147 560 158 519 147 b 342 177 416 147 375 157 b 283 282 302 201 283 236 b 349 391 283 331 305 367 b 480 418 382 409 426 418 l 526 418 l 526 568 l 503 568 b 371 602 448 568 404 579 b 313 719 332 628 313 667 b 359 816 313 760 328 793 b 466 848 387 837 423 848 b 627 723 550 848 604 806 l 823 768 b 464 1011 781 930 661 1011 b 228 954 371 1011 293 992 b 111 753 150 907 111 840 b 273 524 111 659 165 582 b 75 275 141 479 75 396 b 196 47 75 174 116 97 b 458 -17 263 4 350 -17 b 699 33 563 -17 643 0 b 840 229 763 70 810 136 z "},"Ƒ":{"ha":848,"x_min":0,"x_max":0,"o":"m 784 826 l 784 994 l 102 994 l 102 33 b 98 -65 102 -21 101 -53 b 24 -115 88 -99 64 -115 b -24 -109 12 -115 -3 -113 l -57 -272 b 75 -292 -6 -286 38 -292 b 267 -200 169 -292 233 -262 b 303 22 291 -155 303 -81 l 303 422 l 718 422 l 718 591 l 303 591 l 303 826 z "},"ƒ":{"ha":772,"x_min":0,"x_max":0,"o":"m 187 577 l 324 577 l 222 -15 b 197 -105 215 -62 206 -92 b 138 -131 186 -122 166 -131 b 25 -115 112 -131 74 -126 l -14 -265 b 176 -292 42 -283 106 -292 b 298 -269 228 -292 268 -284 b 364 -206 327 -253 349 -232 b 399 -86 379 -180 390 -140 l 517 577 l 656 577 l 681 720 l 540 720 l 547 758 b 576 833 555 797 565 822 b 631 849 588 844 606 849 b 738 830 660 849 695 843 l 774 983 b 593 1011 715 1002 654 1011 b 452 981 532 1011 485 1001 b 392 913 426 966 406 943 b 359 781 383 894 372 850 l 349 720 l 212 720 z "},"Ɠ":{"ha":1080,"x_min":0,"x_max":0,"o":"m 1174 1133 b 1015 1158 1122 1149 1069 1158 b 795 965 869 1158 795 1093 b 560 1011 734 996 655 1011 b 200 872 410 1011 290 965 b 66 500 111 779 66 656 b 199 127 66 345 111 221 b 571 -17 290 31 414 -17 b 798 23 644 -17 719 -4 b 996 137 882 52 948 90 l 996 533 l 564 533 l 564 366 l 793 366 l 793 239 b 558 155 721 183 642 155 b 337 262 460 155 387 191 b 273 509 295 324 273 406 b 340 744 273 608 296 687 b 560 840 390 808 463 840 b 784 682 679 840 754 787 l 983 719 l 983 918 b 997 985 983 949 988 972 b 1061 1011 1008 1003 1029 1011 b 1148 1000 1089 1011 1118 1008 z "},"Ɣ":{"ha":884,"x_min":0,"x_max":0,"o":"m 883 994 l 667 994 l 446 449 l 224 994 l 1 994 l 342 188 l 264 8 b 234 -114 244 -39 234 -80 b 444 -292 234 -233 304 -292 b 656 -114 585 -292 656 -233 b 625 8 656 -80 646 -40 l 549 188 z m 477 -104 b 446 -136 477 -125 466 -136 b 413 -104 424 -136 413 -125 b 446 -7 413 -82 424 -49 b 477 -104 466 -47 477 -80 z "},"ƕ":{"ha":1293,"x_min":0,"x_max":0,"o":"m 1213 382 l 1213 720 l 1022 720 l 1022 351 b 1002 208 1022 287 1015 239 b 888 139 981 162 944 139 b 775 205 833 139 795 161 b 755 338 762 234 755 279 l 755 450 b 510 736 755 641 673 736 b 290 629 425 736 351 701 l 290 994 l 99 994 l 99 0 l 290 0 l 290 361 b 315 516 290 430 298 481 b 446 591 340 566 384 591 b 553 522 501 591 536 568 b 564 408 560 501 564 463 l 564 368 b 891 -16 564 112 673 -16 b 1213 382 1105 -16 1213 116 z "},"Ɩ":{"ha":386,"x_min":0,"x_max":0,"o":"m 290 0 l 290 994 l 100 994 l 100 0 z "},"Ɨ":{"ha":386,"x_min":0,"x_max":0,"o":"m 386 434 l 386 560 l 296 560 l 296 994 l 95 994 l 95 560 l 5 560 l 5 434 l 95 434 l 95 0 l 296 0 l 296 434 z "},"Ƙ":{"ha":1003,"x_min":0,"x_max":0,"o":"m 1000 0 l 606 607 l 980 994 l 710 994 l 304 553 l 304 770 b 317 838 304 802 309 825 b 382 865 329 856 350 865 b 469 854 410 865 439 861 l 495 987 b 336 1011 443 1003 390 1011 b 153 953 249 1011 189 992 b 104 774 120 917 104 857 l 104 0 l 304 0 l 304 300 l 467 467 l 741 0 z "},"ƙ":{"ha":772,"x_min":0,"x_max":0,"o":"m 759 0 l 495 457 l 741 720 l 507 720 l 283 467 l 283 771 b 298 840 283 804 288 827 b 361 865 309 857 330 865 b 448 854 389 865 418 861 l 474 987 b 315 1011 422 1003 369 1011 b 184 983 262 1011 218 1002 b 107 895 146 963 120 933 b 93 774 98 867 93 827 l 93 0 l 283 0 l 283 231 l 372 323 l 553 0 z "},"ƚ":{"ha":386,"x_min":0,"x_max":0,"o":"m 371 434 l 371 561 l 290 561 l 290 994 l 100 994 l 100 561 l 18 561 l 18 434 l 100 434 l 100 0 l 290 0 l 290 434 z "},"ƛ":{"ha":772,"x_min":0,"x_max":0,"o":"m 758 0 l 477 720 l 435 826 l 559 880 l 515 994 l 390 941 l 370 994 l 182 994 l 228 873 l 32 790 l 76 670 l 273 755 l 287 720 l 10 0 l 205 0 l 329 330 b 382 490 347 379 365 432 b 437 327 402 427 420 373 l 562 0 z "},"Ɯ":{"ha":1377,"x_min":0,"x_max":0,"o":"m 1276 0 l 1276 994 l 1076 994 l 1076 370 b 910 130 1076 210 1020 130 b 789 326 829 130 789 195 l 789 994 l 589 994 l 589 374 b 556 216 589 312 578 259 b 423 130 528 158 483 130 b 302 309 342 130 302 189 l 302 994 l 102 994 l 102 260 b 164 62 102 176 123 110 b 368 -16 210 10 278 -16 b 510 14 416 -16 463 -6 b 625 102 560 35 598 65 b 846 -16 661 23 734 -16 b 1090 98 946 -16 1028 22 l 1090 0 z "},"Ɲ":{"ha":1003,"x_min":0,"x_max":0,"o":"m 892 0 l 892 994 l 705 994 l 705 330 l 298 994 l 103 994 l 103 33 b 98 -65 103 -21 101 -53 b 24 -115 89 -99 64 -115 b -23 -109 13 -115 -3 -113 l -56 -272 b 73 -292 -6 -286 37 -292 b 258 -201 165 -292 227 -262 b 290 21 279 -159 290 -85 l 290 648 l 690 0 z "},"ƞ":{"ha":848,"x_min":0,"x_max":0,"o":"m 753 -274 l 753 448 b 732 609 753 519 746 572 b 642 706 715 651 686 683 b 511 736 604 726 560 736 b 273 614 415 736 336 696 l 273 720 l 96 720 l 96 0 l 287 0 l 287 326 b 299 482 287 397 291 449 b 353 562 307 515 325 542 b 444 591 379 581 409 591 b 518 566 474 591 499 583 b 559 473 541 547 555 516 b 562 368 561 460 562 425 l 562 -274 z "},"Ɵ":{"ha":1080,"x_min":0,"x_max":0,"o":"m 1023 496 b 899 867 1023 651 981 775 b 539 1011 813 963 693 1011 b 178 866 383 1011 263 963 b 58 491 98 774 58 649 b 120 216 58 386 79 294 b 556 -17 202 61 348 -17 b 904 132 703 -17 819 33 b 1023 496 983 224 1023 346 z m 810 581 l 271 581 b 353 767 281 660 308 722 b 541 840 400 815 463 840 b 810 581 698 840 788 753 z m 810 413 b 736 239 799 338 775 280 b 541 155 683 183 618 155 b 345 239 464 155 399 183 b 271 413 306 281 281 339 z "},"Ơ":{"ha":1185,"x_min":0,"x_max":0,"o":"m 267 498 b 343 754 267 609 293 695 b 543 840 392 811 458 840 b 743 755 628 840 695 812 b 817 500 792 697 817 612 b 741 241 817 388 792 302 b 543 155 692 184 626 155 b 345 241 460 155 394 184 b 267 498 293 303 267 388 z m 994 994 l 994 804 l 1086 804 b 1004 671 1085 739 1057 695 b 893 875 983 752 946 820 b 541 1011 805 966 688 1011 b 199 882 396 1011 282 968 b 60 491 106 788 60 657 b 191 119 60 334 104 210 b 544 -17 278 28 396 -17 b 895 120 691 -17 808 29 b 1025 496 981 211 1025 337 b 1020 583 1025 526 1023 555 b 1117 642 1059 598 1091 617 b 1170 726 1143 667 1160 695 b 1185 858 1180 758 1185 802 l 1185 994 z "},"ơ":{"ha":987,"x_min":0,"x_max":0,"o":"m 251 360 b 302 524 251 429 268 484 b 427 581 334 562 376 581 b 552 524 479 581 520 562 b 603 361 586 484 603 430 b 552 196 603 291 586 236 b 427 139 520 158 479 139 b 302 196 376 139 334 158 b 251 360 268 236 251 291 z m 797 720 l 797 530 l 889 530 b 798 393 887 462 857 417 b 694 631 792 487 757 566 b 427 736 625 701 536 736 b 236 690 356 736 293 721 b 102 554 179 660 135 614 b 56 370 71 497 56 435 b 102 161 56 288 71 218 b 239 28 132 104 178 60 b 428 -16 297 -1 360 -16 b 694 92 535 -16 623 20 b 795 298 750 149 784 217 b 919 368 847 315 889 338 b 973 452 945 392 963 421 b 987 584 983 484 987 528 l 987 720 z "},"Ƣ":{"ha":1232,"x_min":0,"x_max":0,"o":"m 1130 -274 l 1130 994 l 1092 994 l 818 923 b 541 1011 721 982 628 1011 b 184 869 387 1011 268 964 b 60 491 101 777 60 651 b 186 123 60 337 102 214 b 544 -17 272 30 391 -17 b 818 56 651 -17 743 7 l 818 831 l 929 831 l 929 -274 z m 617 163 b 543 155 595 158 570 155 b 331 260 451 155 380 190 b 267 498 288 321 267 401 b 329 736 267 597 288 677 b 543 840 377 805 448 840 b 617 831 570 840 595 837 z "},"ƣ":{"ha":1033,"x_min":0,"x_max":0,"o":"m 935 -274 l 935 720 l 894 720 l 650 667 b 407 736 576 713 495 736 b 146 631 294 736 207 701 b 58 359 87 564 58 474 b 145 90 58 247 87 158 b 404 -16 207 19 293 -16 b 650 27 493 -16 575 -2 l 650 579 l 745 579 l 745 -274 z m 459 146 b 412 139 445 141 430 139 b 254 373 307 139 254 217 b 410 587 254 515 306 587 b 459 579 428 587 444 584 z "},"Ƥ":{"ha":1086,"x_min":0,"x_max":0,"o":"m 1022 688 b 972 871 1022 759 1005 820 b 821 979 937 926 886 962 b 583 994 784 989 704 994 l 260 994 b 20 798 100 994 20 929 b 45 638 20 743 28 690 l 178 664 b 167 751 170 694 167 723 b 193 814 167 783 176 804 b 260 826 206 822 228 826 l 260 0 l 461 0 l 461 375 l 592 375 b 800 389 685 375 754 380 b 905 437 835 397 869 412 b 1022 688 983 491 1022 575 z m 815 686 b 793 608 815 656 808 630 b 692 550 772 578 738 559 b 571 544 670 546 630 544 l 461 544 l 461 826 l 558 826 b 703 819 630 826 678 824 b 785 774 737 813 764 798 b 815 686 805 750 815 720 z "},"ƥ":{"ha":848,"x_min":0,"x_max":0,"o":"m 797 364 b 724 619 797 465 773 550 b 496 736 670 697 594 736 b 374 703 453 736 413 725 b 285 614 335 680 305 651 l 285 771 b 298 839 285 803 289 825 b 362 865 310 856 331 865 b 450 854 390 865 419 861 l 475 987 b 316 1011 423 1003 370 1011 b 145 955 236 1011 180 992 b 94 774 111 917 94 857 l 94 -274 l 285 -274 l 285 89 b 495 -16 335 19 406 -16 b 725 104 593 -16 670 24 b 797 364 773 175 797 262 z m 603 363 b 448 135 603 211 551 135 b 317 214 390 135 346 161 b 283 372 294 256 283 309 b 319 518 283 431 295 480 b 445 586 347 563 389 586 b 570 512 500 586 542 561 b 603 363 592 473 603 423 z "},"Ʀ":{"ha":926,"x_min":0,"x_max":0,"o":"m 932 -216 l 616 271 b 863 570 780 302 863 402 b 730 829 863 698 819 784 b 423 877 669 861 566 877 l 302 877 l 302 994 l 101 994 l 101 0 l 302 0 l 302 257 l 397 257 l 673 -216 z m 656 570 b 576 443 656 505 629 463 b 412 426 546 432 491 426 l 302 426 l 302 709 l 399 709 b 568 697 486 709 542 705 b 656 570 626 679 656 637 z "},"Ƨ":{"ha":926,"x_min":0,"x_max":0,"o":"m 876 323 l 681 342 b 464 152 658 215 586 152 b 335 182 414 152 371 162 b 269 289 291 207 269 242 b 361 392 269 336 300 370 b 522 435 384 400 438 415 b 749 534 630 462 705 495 b 840 734 810 588 840 655 b 798 876 840 785 826 832 b 477 1011 739 966 632 1011 b 215 943 368 1011 281 989 b 96 710 139 892 100 814 l 297 701 b 355 814 306 754 326 791 b 479 845 383 835 425 845 b 616 809 538 845 583 833 b 648 747 638 794 648 773 b 618 687 648 724 638 704 b 433 618 595 667 533 644 b 218 549 321 589 250 566 b 68 290 118 497 68 410 b 115 130 68 233 84 179 b 466 -18 178 31 295 -18 b 876 323 713 -18 850 96 z "},"ƨ":{"ha":772,"x_min":0,"x_max":0,"o":"m 740 205 l 549 235 b 395 121 532 159 481 121 b 258 199 304 121 258 147 b 336 260 258 229 284 249 b 628 353 490 295 588 326 b 713 515 685 392 713 446 b 615 690 713 593 681 651 b 410 736 562 721 493 736 b 212 701 326 736 260 725 b 92 546 152 670 112 619 l 271 513 b 407 600 287 571 332 600 b 536 540 493 600 536 580 b 517 505 536 526 530 515 b 340 452 500 493 441 475 b 155 387 253 432 192 411 b 67 225 96 350 67 296 b 174 37 67 143 103 81 b 395 -16 234 2 307 -16 b 740 205 587 -16 702 58 z "},"Ʃ":{"ha":833,"x_min":0,"x_max":0,"o":"m 74 994 l 74 815 l 328 519 l 61 186 l 61 0 l 783 0 l 783 168 l 295 168 l 578 519 l 321 826 l 762 826 l 762 994 z "},"ƪ":{"ha":500,"x_min":0,"x_max":0,"o":"m 564 -272 l 530 -109 b 483 -115 510 -113 494 -115 b 435 -102 464 -115 448 -111 b 404 -42 417 -90 407 -70 l 404 33 l 404 777 b 167 1043 404 954 325 1043 b 65 1008 127 1043 93 1031 b 20 910 35 983 20 950 b 59 816 20 873 33 842 b 153 777 85 790 116 777 b 214 792 177 777 197 782 l 214 22 b 232 -172 214 -68 220 -133 b 431 -292 257 -252 324 -292 b 564 -272 469 -292 513 -286 z m 214 910 b 196 867 214 893 208 879 b 153 850 184 856 170 850 b 111 867 137 850 122 856 b 93 910 99 879 93 893 b 111 953 93 927 99 941 b 153 970 122 965 137 970 b 196 953 170 970 184 965 b 214 910 208 941 214 927 z "},"ƫ":{"ha":463,"x_min":0,"x_max":0,"o":"m 446 12 l 446 160 b 353 142 413 148 382 142 b 304 193 327 142 311 159 b 300 278 301 207 300 235 l 300 568 l 430 568 l 430 720 l 300 720 l 300 975 l 109 863 l 109 720 l 21 720 l 21 568 l 109 568 l 109 254 b 126 78 109 169 114 110 b 256 -14 146 24 190 -7 b 176 -115 255 -82 229 -115 b 129 -109 165 -115 149 -113 l 96 -272 b 228 -292 146 -286 190 -292 b 412 -203 319 -292 381 -263 b 446 12 434 -161 446 -90 z "},"Ƭ":{"ha":848,"x_min":0,"x_max":0,"o":"m 820 826 l 820 994 l 256 994 b 16 798 96 994 16 929 b 41 638 16 743 24 690 l 174 664 b 163 751 166 694 163 723 b 189 814 163 783 172 804 b 256 826 202 822 224 826 l 325 826 l 325 0 l 526 0 l 526 826 z "},"ƭ":{"ha":463,"x_min":0,"x_max":0,"o":"m 490 987 b 331 1011 438 1003 385 1011 b 155 950 248 1011 190 991 b 109 774 124 913 109 855 l 109 720 l 21 720 l 21 568 l 109 568 l 109 254 b 115 120 109 189 111 144 b 142 46 120 89 129 64 b 295 -16 171 5 222 -16 b 446 12 351 -16 401 -7 l 429 160 b 353 142 396 148 370 142 b 321 151 340 142 330 145 b 300 207 308 160 301 179 l 300 278 l 300 568 l 430 568 l 430 720 l 300 720 l 300 772 b 313 840 300 804 304 826 b 377 865 325 856 346 865 b 465 854 405 865 434 861 z "},"Ʈ":{"ha":848,"x_min":0,"x_max":0,"o":"m 820 826 l 820 994 l 31 994 l 31 826 l 325 826 l 325 22 b 353 -195 325 -84 334 -156 b 553 -292 385 -260 451 -292 b 685 -272 590 -292 634 -286 l 652 -109 b 604 -115 631 -113 616 -115 b 531 -66 565 -115 541 -99 b 526 31 527 -54 526 -22 l 526 826 z "},"Ư":{"ha":1152,"x_min":0,"x_max":0,"o":"m 962 994 l 962 804 l 1054 804 b 1029 711 1053 762 1045 732 b 892 640 1004 675 958 652 l 892 994 l 692 994 l 692 444 b 683 275 692 366 689 309 b 502 155 669 195 609 155 b 308 290 391 155 326 200 b 300 456 303 314 300 369 l 300 994 l 100 994 l 100 464 b 119 212 100 352 106 268 b 176 102 128 173 147 137 b 508 -17 240 23 351 -17 b 817 94 649 -17 752 20 b 876 219 846 129 866 171 b 892 472 887 271 892 355 l 892 562 b 1084 642 979 575 1043 602 b 1138 726 1110 666 1128 695 b 1152 858 1147 758 1152 802 l 1152 994 z "},"ư":{"ha":1006,"x_min":0,"x_max":0,"o":"m 815 720 l 815 530 l 907 530 b 883 437 906 489 898 458 b 751 366 858 402 814 379 l 751 720 l 560 720 l 560 416 b 546 222 560 313 555 248 b 493 155 536 195 519 173 b 406 129 467 138 438 129 b 335 149 377 129 354 136 b 297 203 315 164 302 182 b 286 389 290 232 286 294 l 286 720 l 96 720 l 96 264 b 121 105 96 197 104 144 b 335 -16 158 24 229 -16 b 574 108 438 -16 517 25 l 574 0 l 751 0 l 751 289 b 937 368 835 302 897 329 b 991 452 963 392 981 421 b 1006 584 1001 484 1006 528 l 1006 720 z "},"Ʊ":{"ha":1114,"x_min":0,"x_max":0,"o":"m 1047 827 l 1047 994 l 592 994 l 592 834 b 767 694 668 806 727 759 b 824 475 805 632 824 559 b 759 253 824 386 802 312 b 557 155 710 187 643 155 b 355 253 470 155 403 187 b 290 475 311 312 290 386 b 347 694 290 559 309 632 b 522 834 387 759 446 806 l 522 994 l 66 994 l 66 827 l 259 827 b 82 427 141 703 82 569 b 219 101 82 291 128 182 b 557 -17 307 22 420 -17 b 894 101 694 -17 806 22 b 1031 427 985 183 1031 291 b 854 827 1031 569 972 703 z "},"Ʋ":{"ha":1003,"x_min":0,"x_max":0,"o":"m 892 771 b 830 946 892 845 872 903 b 661 1011 788 990 732 1011 b 501 987 606 1011 553 1003 l 527 854 b 614 865 557 861 586 865 b 692 743 666 865 692 824 b 468 155 692 351 617 155 b 323 244 395 155 346 184 b 300 456 308 283 300 353 l 300 994 l 100 994 l 100 464 b 168 111 100 299 123 181 b 474 -17 224 26 326 -17 b 824 247 641 -17 758 71 b 892 771 870 369 892 544 z "},"Ƴ":{"ha":1069,"x_min":0,"x_max":0,"o":"m 1071 861 b 951 968 1036 903 996 939 b 819 1011 907 996 863 1011 b 630 891 740 1012 677 972 l 460 601 l 231 994 l 0 994 l 366 417 l 366 0 l 566 0 l 566 418 l 795 783 b 864 838 819 820 842 838 b 977 764 893 837 930 812 z "},"ƴ":{"ha":772,"x_min":0,"x_max":0,"o":"m 993 928 b 780 1011 914 984 843 1011 b 643 931 722 1011 676 984 b 576 768 628 907 605 852 l 385 209 l 212 720 l 9 720 l 283 -2 b 136 -140 258 -94 209 -140 b 56 -132 112 -140 85 -137 l 73 -281 b 180 -292 108 -288 144 -292 b 278 -281 217 -292 249 -288 b 403 -195 332 -266 373 -238 b 450 -98 420 -169 436 -137 l 739 696 b 768 772 755 742 765 768 b 831 815 784 801 805 815 b 906 787 850 815 875 806 z "},"Ƶ":{"ha":848,"x_min":0,"x_max":0,"o":"m 823 0 l 823 168 l 257 168 l 473 434 l 802 434 l 802 560 l 576 560 l 802 838 l 802 994 l 74 994 l 74 826 l 537 826 l 322 560 l 15 560 l 15 434 l 220 434 l 15 181 l 15 0 z "},"ƶ":{"ha":694,"x_min":0,"x_max":0,"o":"m 666 0 l 666 168 l 371 168 l 273 163 l 395 302 l 645 302 l 645 429 l 507 429 l 645 585 l 645 720 l 50 720 l 50 562 l 304 562 b 391 566 326 562 356 564 l 270 429 l 23 429 l 23 302 l 158 302 l 23 149 l 23 0 z "},"Ʒ":{"ha":848,"x_min":0,"x_max":0,"o":"m 788 111 b 653 441 788 260 743 370 b 475 515 604 479 545 504 l 767 838 l 767 994 l 39 994 l 39 826 l 530 826 l 247 515 l 247 365 l 382 365 b 545 285 452 365 506 338 b 592 124 576 240 592 186 b 549 -47 592 59 578 2 b 406 -137 515 -107 468 -137 b 289 -98 362 -137 323 -124 b 227 0 255 -73 234 -40 l 39 -32 b 175 -229 59 -117 104 -182 b 415 -292 241 -271 321 -292 b 687 -172 526 -292 616 -252 b 788 111 754 -96 788 -2 z "},"Ƹ":{"ha":848,"x_min":0,"x_max":0,"o":"m 809 -32 l 622 0 b 559 -98 614 -40 593 -73 b 442 -137 526 -124 486 -137 b 299 -47 381 -137 333 -107 b 256 124 271 2 256 59 b 304 285 256 186 272 240 b 467 365 342 338 397 365 l 602 365 l 602 515 l 319 826 l 809 826 l 809 994 l 81 994 l 81 838 l 373 515 b 195 441 303 504 244 479 b 60 111 105 370 60 260 b 161 -172 60 -2 94 -96 b 433 -292 232 -252 323 -292 b 673 -229 528 -292 608 -271 b 809 -32 744 -182 790 -117 z "},"ƹ":{"ha":731,"x_min":0,"x_max":0,"o":"m 708 -32 l 521 0 b 383 -137 504 -91 458 -137 b 224 72 277 -137 224 -67 b 269 197 224 124 239 166 b 408 250 301 232 347 250 l 475 250 l 475 361 l 276 566 b 363 562 312 564 341 562 l 645 562 l 645 720 l 50 720 l 50 585 l 261 361 b 113 290 203 353 154 329 b 28 63 57 236 28 161 b 116 -193 28 -45 58 -130 b 374 -292 177 -259 263 -292 b 708 -32 557 -292 669 -205 z "},"ƺ":{"ha":731,"x_min":0,"x_max":0,"o":"m 715 -71 l 524 -41 b 370 -155 506 -117 455 -155 b 273 -132 329 -155 297 -147 b 239 -80 250 -118 239 -101 b 315 -23 239 -57 265 -38 b 445 5 358 -14 401 -4 b 669 216 595 41 669 111 b 620 340 669 262 653 304 b 484 409 585 378 540 401 l 682 585 l 682 720 l 86 720 l 86 562 l 354 562 b 441 566 377 562 406 564 l 263 409 l 263 297 l 330 297 b 473 227 426 297 473 274 b 373 162 473 202 440 180 b 214 126 320 150 267 138 b 39 -62 97 93 39 30 b 368 -292 39 -216 148 -292 b 715 -71 561 -292 677 -218 z "},"ƻ":{"ha":772,"x_min":0,"x_max":0,"o":"m 703 0 l 703 177 l 324 177 b 395 264 339 202 362 231 b 477 340 403 271 430 296 b 534 393 501 361 520 379 l 703 393 l 703 519 l 640 519 b 703 722 682 585 703 652 b 608 928 703 809 671 878 b 387 998 550 975 476 998 b 57 704 188 998 78 900 l 247 685 b 382 840 254 788 299 840 b 511 708 468 840 511 796 b 472 591 511 669 498 630 b 408 519 462 576 440 552 l 57 519 l 57 393 l 277 393 b 100 191 190 310 131 243 b 35 0 64 131 42 67 z "},"Ƽ":{"ha":772,"x_min":0,"x_max":0,"o":"m 730 334 b 649 566 730 426 703 503 b 427 665 592 632 518 665 l 363 665 l 363 826 l 677 826 l 677 994 l 62 994 l 62 826 l 162 826 l 162 515 l 387 515 b 501 459 437 515 475 497 b 534 330 523 427 534 384 b 503 199 534 278 524 234 b 392 136 478 157 441 136 b 296 178 354 136 321 150 b 252 275 271 203 257 236 l 62 256 b 170 53 73 169 109 102 b 390 -17 228 6 301 -17 b 635 85 489 -17 571 17 b 730 334 699 152 730 235 z "},"ƽ":{"ha":690,"x_min":0,"x_max":0,"o":"m 641 210 b 555 397 641 295 612 357 b 373 445 509 429 448 445 l 311 445 l 311 566 l 595 566 l 595 720 l 20 720 l 20 566 l 120 566 l 120 323 l 330 323 b 452 212 411 323 452 286 b 414 136 452 180 439 154 b 334 111 392 119 365 111 b 195 217 269 111 223 146 l 20 185 b 336 -16 59 51 164 -16 b 538 32 415 -16 483 0 b 641 210 607 72 641 131 z "},"ƾ":{"ha":804,"x_min":0,"x_max":0,"o":"m 755 225 b 667 387 755 296 726 349 b 483 452 630 411 569 432 b 378 477 423 465 388 474 b 300 540 326 495 300 515 l 300 568 l 430 568 l 430 720 l 300 720 l 300 975 l 109 863 l 109 720 l 21 720 l 21 568 l 109 568 l 109 516 b 194 353 109 446 137 392 b 486 260 234 326 332 295 b 564 199 538 249 564 229 b 427 121 564 147 518 121 b 273 235 341 121 290 159 l 82 205 b 427 -16 120 58 235 -16 b 648 37 515 -16 588 2 b 755 225 719 81 755 143 z "},"ƿ":{"ha":848,"x_min":0,"x_max":0,"o":"m 797 405 b 724 640 797 503 773 581 b 496 736 671 704 595 736 b 367 702 452 736 409 725 b 272 614 324 678 293 649 l 272 720 l 94 720 l 94 -274 l 285 -274 l 285 -155 b 508 -28 359 -113 433 -71 b 709 142 597 27 664 84 b 797 405 768 219 797 306 z m 603 404 b 504 161 603 309 570 228 b 285 0 475 131 402 78 l 285 372 b 323 514 285 426 297 473 b 445 586 353 562 393 586 b 603 404 550 586 603 525 z "},"ǀ":{"ha":389,"x_min":0,"x_max":0,"o":"m 271 0 l 271 1011 l 119 1011 l 119 0 z "},"ǁ":{"ha":691,"x_min":0,"x_max":0,"o":"m 573 0 l 573 1011 l 422 1011 l 422 0 z m 271 0 l 271 1011 l 119 1011 l 119 0 z "},"ǂ":{"ha":812,"x_min":0,"x_max":0,"o":"m 753 252 l 753 428 l 481 428 l 481 553 l 753 553 l 753 728 l 481 728 l 481 1011 l 330 1011 l 330 728 l 58 728 l 58 553 l 330 553 l 330 428 l 58 428 l 58 252 l 330 252 l 330 0 l 481 0 l 481 252 z "},"ǃ":{"ha":463,"x_min":0,"x_max":0,"o":"m 174 256 l 282 256 l 331 761 l 331 994 l 125 994 l 125 761 z m 133 0 l 323 0 l 323 191 l 133 191 z "},"Ǆ":{"ha":1851,"x_min":0,"x_max":0,"o":"m 100 994 l 100 0 l 478 0 b 656 21 552 0 611 7 b 797 100 715 40 762 66 b 903 276 843 145 878 204 b 934 488 924 335 934 406 b 901 723 934 581 923 659 b 806 884 880 786 848 840 b 656 975 765 928 715 958 b 467 994 613 988 550 994 z m 301 826 l 391 826 b 556 817 473 826 528 823 b 649 770 594 808 625 793 b 706 673 673 747 692 715 b 726 496 720 632 726 573 b 706 314 726 420 720 359 b 653 218 692 270 675 238 b 572 177 632 199 605 185 b 451 168 548 171 507 168 l 301 168 z m 1018 0 l 1826 0 l 1826 168 l 1260 168 l 1805 838 l 1805 994 l 1077 994 l 1077 826 l 1540 826 l 1018 181 z m 1208 1253 l 1351 1053 l 1527 1053 l 1668 1253 l 1514 1253 l 1436 1152 l 1362 1253 z "},"ǅ":{"ha":1697,"x_min":0,"x_max":0,"o":"m 100 994 l 100 0 l 478 0 b 656 21 552 0 611 7 b 797 100 715 40 762 66 b 903 276 843 145 878 204 b 934 488 924 335 934 406 b 901 723 934 581 923 659 b 806 884 880 786 848 840 b 656 975 765 928 715 958 b 467 994 613 988 550 994 z m 301 826 l 391 826 b 556 817 473 826 528 823 b 649 770 594 808 625 793 b 706 673 673 747 692 715 b 726 496 720 632 726 573 b 706 314 726 420 720 359 b 653 218 692 270 675 238 b 572 177 632 199 605 185 b 451 168 548 171 507 168 l 301 168 z m 1026 0 l 1669 0 l 1669 168 l 1374 168 b 1276 163 1361 168 1329 166 l 1373 268 l 1648 585 l 1648 720 l 1053 720 l 1053 562 l 1307 564 b 1394 566 1343 564 1372 565 b 1296 458 1373 545 1340 509 l 1026 149 z m 1133 1011 l 1276 811 l 1452 811 l 1592 1011 l 1439 1011 l 1360 910 l 1287 1011 z "},"ǆ":{"ha":1543,"x_min":0,"x_max":0,"o":"m 760 0 l 760 994 l 570 994 l 570 636 b 361 736 511 703 441 736 b 143 641 273 736 201 705 b 57 363 86 578 57 485 b 145 84 57 243 86 150 b 358 -16 204 17 275 -16 b 479 14 399 -16 439 -6 b 583 106 519 34 554 65 l 583 0 z m 252 376 b 297 537 252 447 267 501 b 411 591 328 573 366 591 b 526 536 458 591 496 572 b 570 357 555 500 570 440 b 524 190 570 283 555 228 b 412 134 493 153 456 134 b 283 209 357 134 314 159 b 252 376 262 243 252 299 z m 871 0 l 1514 0 l 1514 168 l 1219 168 b 1121 163 1207 168 1174 166 l 1218 268 l 1493 585 l 1493 720 l 898 720 l 898 562 l 1152 564 b 1240 566 1188 564 1218 565 b 1141 458 1218 545 1186 509 l 871 149 z m 974 1011 l 1116 811 l 1293 811 l 1433 1011 l 1280 1011 l 1201 910 l 1128 1011 z "},"Ǉ":{"ha":1621,"x_min":0,"x_max":0,"o":"m 106 0 l 806 0 l 806 168 l 307 168 l 307 986 l 106 986 z m 1308 994 l 1308 352 b 1280 193 1308 271 1299 218 b 1185 155 1262 167 1230 155 b 1086 208 1141 155 1108 172 b 1061 329 1072 232 1064 272 l 872 307 b 952 65 873 201 899 120 b 1179 -17 1005 11 1081 -17 b 1381 36 1262 -17 1330 1 b 1487 175 1432 71 1467 117 b 1508 365 1501 219 1508 283 l 1508 994 z "},"ǈ":{"ha":1234,"x_min":0,"x_max":0,"o":"m 106 0 l 806 0 l 806 168 l 307 168 l 307 986 l 106 986 z m 944 818 l 1135 818 l 1135 994 l 944 994 z m 1135 720 l 944 720 l 944 33 b 938 -73 944 -26 942 -61 b 913 -103 934 -84 926 -94 b 865 -115 901 -111 885 -115 b 843 -114 859 -115 851 -115 b 818 -109 835 -112 827 -111 l 785 -272 b 856 -287 810 -279 834 -284 b 917 -292 877 -291 898 -292 b 1047 -260 970 -292 1013 -282 b 1117 -172 1082 -239 1105 -210 b 1135 22 1129 -134 1135 -69 z "},"ǉ":{"ha":772,"x_min":0,"x_max":0,"o":"m 100 0 l 290 0 l 290 994 l 100 994 z m 481 818 l 672 818 l 672 994 l 481 994 z m 672 720 l 481 720 l 481 33 b 475 -73 481 -26 479 -61 b 451 -103 471 -84 463 -94 b 403 -115 438 -111 422 -115 b 381 -114 396 -115 389 -115 b 355 -109 373 -112 364 -111 l 322 -272 b 393 -287 347 -279 371 -284 b 454 -292 415 -291 435 -292 b 585 -260 507 -292 551 -282 b 654 -172 619 -239 642 -210 b 672 22 666 -134 672 -69 z "},"Ǌ":{"ha":1775,"x_min":0,"x_max":0,"o":"m 103 0 l 290 0 l 290 648 l 690 0 l 892 0 l 892 994 l 705 994 l 705 330 l 298 994 l 103 994 z m 1463 994 l 1463 352 b 1435 193 1463 271 1454 218 b 1340 155 1416 167 1385 155 b 1241 208 1296 155 1263 172 b 1216 329 1227 232 1218 272 l 1027 307 b 1107 65 1027 201 1054 120 b 1333 -17 1160 11 1235 -17 b 1535 36 1417 -17 1484 1 b 1641 175 1586 71 1622 117 b 1663 365 1656 219 1663 283 l 1663 994 z "},"ǋ":{"ha":1389,"x_min":0,"x_max":0,"o":"m 103 0 l 290 0 l 290 648 l 690 0 l 892 0 l 892 994 l 705 994 l 705 330 l 298 994 l 103 994 z m 1099 818 l 1289 818 l 1289 994 l 1099 994 z m 1289 720 l 1099 720 l 1099 33 b 1093 -73 1099 -26 1097 -61 b 1068 -103 1088 -84 1080 -94 b 1020 -115 1055 -111 1039 -115 b 998 -114 1013 -115 1006 -115 b 972 -109 990 -112 982 -111 l 939 -272 b 1010 -287 965 -279 988 -284 b 1072 -292 1032 -291 1053 -292 b 1202 -260 1124 -292 1168 -282 b 1271 -172 1236 -239 1259 -210 b 1289 22 1283 -134 1289 -69 z "},"ǌ":{"ha":1234,"x_min":0,"x_max":0,"o":"m 755 0 l 755 448 b 744 576 755 503 751 546 b 707 656 737 606 725 632 b 628 714 689 679 663 699 b 513 736 593 729 555 736 b 275 614 417 736 338 696 l 275 720 l 98 720 l 98 0 l 289 0 l 289 326 b 303 492 289 407 294 462 b 357 564 313 522 331 545 b 446 591 384 582 413 591 b 512 572 472 591 494 584 b 552 518 531 559 544 541 b 564 368 560 496 564 445 l 564 0 z m 944 818 l 1135 818 l 1135 994 l 944 994 z m 1135 720 l 944 720 l 944 33 b 938 -73 944 -26 942 -61 b 913 -103 934 -84 926 -94 b 865 -115 901 -111 885 -115 b 843 -114 859 -115 851 -115 b 818 -109 835 -112 827 -111 l 785 -272 b 856 -287 810 -279 834 -284 b 917 -292 877 -291 898 -292 b 1047 -260 970 -292 1013 -282 b 1117 -172 1082 -239 1105 -210 b 1135 22 1129 -134 1135 -69 z "},"Ǎ":{"ha":1003,"x_min":0,"x_max":0,"o":"m 998 0 l 600 994 l 387 994 l 0 0 l 213 0 l 295 226 l 692 226 l 779 0 z m 628 393 l 357 393 l 491 762 z m 264 1256 l 406 1056 l 583 1056 l 723 1256 l 570 1256 l 491 1155 l 418 1256 z "},"ǎ":{"ha":772,"x_min":0,"x_max":0,"o":"m 242 500 b 288 571 254 534 269 557 b 368 591 307 584 334 591 b 470 567 418 591 452 583 b 497 489 488 552 497 526 l 497 470 b 312 423 463 456 401 440 b 160 379 246 411 195 396 b 79 306 125 362 98 337 b 50 197 59 274 50 237 b 114 44 50 135 71 84 b 289 -16 156 4 215 -16 b 408 7 331 -16 371 -8 b 512 79 445 23 479 47 b 519 56 513 75 516 68 b 537 0 526 31 532 13 l 726 0 b 691 97 709 34 697 67 b 682 237 685 127 682 173 l 684 459 b 659 630 684 542 676 599 b 571 706 642 661 613 686 b 381 736 529 726 466 736 b 170 686 288 736 217 720 b 69 532 122 653 89 601 z m 497 346 l 497 308 b 490 215 497 262 495 231 b 444 152 482 190 467 169 b 346 118 413 129 380 118 b 270 147 315 118 290 128 b 240 216 250 167 240 190 b 277 283 240 243 253 266 b 381 317 294 294 328 305 b 497 346 434 328 473 338 z m 157 1011 l 299 811 l 475 811 l 616 1011 l 463 1011 l 384 910 l 311 1011 z "},"Ǐ":{"ha":386,"x_min":0,"x_max":0,"o":"m 95 0 l 296 0 l 296 994 l 95 994 z m -37 1256 l 106 1056 l 282 1056 l 422 1256 l 269 1256 l 191 1155 l 117 1256 z "},"ǐ":{"ha":386,"x_min":0,"x_max":0,"o":"m 100 0 l 290 0 l 290 720 l 100 720 z m -37 1011 l 106 811 l 282 811 l 422 1011 l 269 1011 l 191 910 l 117 1011 z "},"Ǒ":{"ha":1080,"x_min":0,"x_max":0,"o":"m 60 491 b 191 118 60 333 104 209 b 544 -17 279 28 396 -17 b 894 119 690 -17 807 28 b 1025 496 981 210 1025 335 b 893 875 1025 658 981 784 b 541 1011 805 966 688 1011 b 327 972 460 1011 389 998 b 198 882 280 952 237 923 b 106 746 159 842 128 797 b 60 491 76 677 60 592 z m 267 498 b 343 754 267 612 293 698 b 543 840 394 811 460 840 b 742 755 626 840 692 812 b 817 500 792 699 817 614 b 740 241 817 385 792 299 b 543 155 689 183 623 155 b 345 242 463 155 397 184 b 267 498 293 300 267 385 z m 311 1256 l 453 1056 l 629 1056 l 770 1256 l 616 1256 l 538 1155 l 465 1256 z "},"ǒ":{"ha":848,"x_min":0,"x_max":0,"o":"m 56 370 b 102 160 56 288 71 217 b 239 28 134 102 179 58 b 428 -16 299 -1 362 -16 b 693 91 535 -16 623 20 b 799 362 764 163 799 253 b 694 630 799 470 764 560 b 427 736 625 701 536 736 b 235 690 356 736 292 721 b 102 554 178 659 134 613 b 56 370 71 495 56 434 z m 251 360 b 302 524 251 432 268 486 b 427 581 336 562 378 581 b 552 524 477 581 519 562 b 603 361 586 486 603 432 b 552 196 603 289 586 234 b 427 139 519 158 477 139 b 302 196 378 139 336 158 b 251 360 268 234 251 289 z m 195 1011 l 337 811 l 513 811 l 654 1011 l 500 1011 l 422 910 l 349 1011 z "},"Ǔ":{"ha":1003,"x_min":0,"x_max":0,"o":"m 100 994 l 100 464 b 119 212 100 353 106 269 b 176 101 128 173 147 136 b 292 16 204 66 243 38 b 508 -17 341 -6 413 -17 b 699 13 587 -17 650 -7 b 816 94 748 33 787 60 b 876 219 845 128 865 170 b 892 472 887 268 892 353 l 892 994 l 692 994 l 692 444 b 683 275 692 366 689 309 b 631 190 677 241 660 213 b 502 155 602 166 559 155 b 369 192 446 155 402 167 b 308 290 337 216 316 249 b 300 456 303 315 300 370 l 300 994 z m 272 1256 l 414 1056 l 591 1056 l 731 1256 l 578 1256 l 499 1155 l 426 1256 z "},"ǔ":{"ha":848,"x_min":0,"x_max":0,"o":"m 574 0 l 751 0 l 751 720 l 560 720 l 560 416 b 546 222 560 313 555 249 b 493 156 536 196 519 173 b 406 129 467 138 438 129 b 335 149 377 129 354 136 b 297 203 316 162 304 180 b 286 389 290 226 286 288 l 286 720 l 96 720 l 96 264 b 121 105 96 197 104 144 b 205 16 139 67 166 37 b 335 -16 243 -6 287 -16 b 470 17 382 -16 428 -5 b 574 108 513 39 548 69 z m 195 1011 l 337 811 l 513 811 l 654 1011 l 500 1011 l 422 910 l 349 1011 z "},"Ǖ":{"ha":1003,"x_min":0,"x_max":0,"o":"m 100 994 l 100 464 b 119 212 100 353 106 269 b 176 101 128 173 147 136 b 292 16 204 66 243 38 b 508 -17 341 -6 413 -17 b 699 13 587 -17 650 -7 b 816 94 748 33 787 60 b 876 219 845 128 865 170 b 892 472 887 268 892 353 l 892 994 l 692 994 l 692 444 b 683 275 692 366 689 309 b 631 190 677 241 660 213 b 502 155 602 166 559 155 b 369 192 446 155 402 167 b 308 290 337 216 316 249 b 300 456 303 315 300 370 l 300 994 z m 670 1167 l 670 1250 l 320 1250 l 320 1167 z m 673 1015 l 673 1118 l 578 1118 l 578 1015 z m 412 1015 l 412 1118 l 317 1118 l 317 1015 z "},"ǖ":{"ha":848,"x_min":0,"x_max":0,"o":"m 574 0 l 751 0 l 751 720 l 560 720 l 560 416 b 546 222 560 313 555 249 b 493 156 536 196 519 173 b 406 129 467 138 438 129 b 335 149 377 129 354 136 b 297 203 316 162 304 180 b 286 389 290 226 286 288 l 286 720 l 96 720 l 96 264 b 121 105 96 197 104 144 b 205 16 139 67 166 37 b 335 -16 243 -6 287 -16 b 470 17 382 -16 428 -5 b 574 108 513 39 548 69 z m 195 848 l 359 848 l 359 1011 l 195 1011 z m 487 848 l 651 848 l 651 1011 l 487 1011 z m 205 1125 l 642 1125 l 642 1251 l 205 1251 z "},"Ǘ":{"ha":1003,"x_min":0,"x_max":0,"o":"m 100 994 l 100 464 b 119 212 100 353 106 269 b 176 101 128 173 147 136 b 292 16 204 66 243 38 b 508 -17 341 -6 413 -17 b 699 13 587 -17 650 -7 b 816 94 748 33 787 60 b 876 219 845 128 865 170 b 892 472 887 268 892 353 l 892 994 l 692 994 l 692 444 b 683 275 692 366 689 309 b 631 190 677 241 660 213 b 502 155 602 166 559 155 b 369 192 446 155 402 167 b 308 290 337 216 316 249 b 300 456 303 315 300 370 l 300 994 z m 680 1251 l 513 1251 l 422 1130 l 524 1130 z m 673 1015 l 673 1118 l 578 1118 l 578 1015 z m 412 1015 l 412 1118 l 317 1118 l 317 1015 z "},"ǘ":{"ha":848,"x_min":0,"x_max":0,"o":"m 574 0 l 751 0 l 751 720 l 560 720 l 560 416 b 546 222 560 313 555 249 b 493 156 536 196 519 173 b 406 129 467 138 438 129 b 335 149 377 129 354 136 b 297 203 316 162 304 180 b 286 389 290 226 286 288 l 286 720 l 96 720 l 96 264 b 121 105 96 197 104 144 b 205 16 139 67 166 37 b 335 -16 243 -6 287 -16 b 470 17 382 -16 428 -5 b 574 108 513 39 548 69 z m 195 848 l 359 848 l 359 1011 l 195 1011 z m 487 848 l 651 848 l 651 1011 l 487 1011 z m 327 1048 l 448 1048 l 634 1251 l 420 1251 z "},"Ǚ":{"ha":1003,"x_min":0,"x_max":0,"o":"m 100 994 l 100 464 b 119 212 100 353 106 269 b 176 101 128 173 147 136 b 292 16 204 66 243 38 b 508 -17 341 -6 413 -17 b 699 13 587 -17 650 -7 b 816 94 748 33 787 60 b 876 219 845 128 865 170 b 892 472 887 268 892 353 l 892 994 l 692 994 l 692 444 b 683 275 692 366 689 309 b 631 190 677 241 660 213 b 502 155 602 166 559 155 b 369 192 446 155 402 167 b 308 290 337 216 316 249 b 300 456 303 315 300 370 l 300 994 z m 673 1015 l 673 1118 l 578 1118 l 578 1015 z m 677 1251 l 550 1251 l 496 1184 l 441 1251 l 313 1251 l 419 1131 l 567 1131 z m 412 1015 l 412 1118 l 317 1118 l 317 1015 z "},"ǚ":{"ha":848,"x_min":0,"x_max":0,"o":"m 574 0 l 751 0 l 751 720 l 560 720 l 560 416 b 546 222 560 313 555 249 b 493 156 536 196 519 173 b 406 129 467 138 438 129 b 335 149 377 129 354 136 b 297 203 316 162 304 180 b 286 389 290 226 286 288 l 286 720 l 96 720 l 96 264 b 121 105 96 197 104 144 b 205 16 139 67 166 37 b 335 -16 243 -6 287 -16 b 470 17 382 -16 428 -5 b 574 108 513 39 548 69 z m 195 848 l 359 848 l 359 1011 l 195 1011 z m 487 848 l 651 848 l 651 1011 l 487 1011 z m 195 1251 l 337 1050 l 513 1050 l 654 1251 l 500 1251 l 422 1149 l 349 1251 z "},"Ǜ":{"ha":1003,"x_min":0,"x_max":0,"o":"m 100 994 l 100 464 b 119 212 100 353 106 269 b 176 101 128 173 147 136 b 292 16 204 66 243 38 b 508 -17 341 -6 413 -17 b 699 13 587 -17 650 -7 b 816 94 748 33 787 60 b 876 219 845 128 865 170 b 892 472 887 268 892 353 l 892 994 l 692 994 l 692 444 b 683 275 692 366 689 309 b 631 190 677 241 660 213 b 502 155 602 166 559 155 b 369 192 446 155 402 167 b 308 290 337 216 316 249 b 300 456 303 315 300 370 l 300 994 z m 673 1015 l 673 1118 l 578 1118 l 578 1015 z m 568 1130 l 477 1251 l 310 1251 l 467 1130 z m 412 1015 l 412 1118 l 317 1118 l 317 1015 z "},"ǜ":{"ha":848,"x_min":0,"x_max":0,"o":"m 574 0 l 751 0 l 751 720 l 560 720 l 560 416 b 546 222 560 313 555 249 b 493 156 536 196 519 173 b 406 129 467 138 438 129 b 335 149 377 129 354 136 b 297 203 316 162 304 180 b 286 389 290 226 286 288 l 286 720 l 96 720 l 96 264 b 121 105 96 197 104 144 b 205 16 139 67 166 37 b 335 -16 243 -6 287 -16 b 470 17 382 -16 428 -5 b 574 108 513 39 548 69 z m 195 848 l 359 848 l 359 1011 l 195 1011 z m 487 848 l 651 848 l 651 1011 l 487 1011 z m 519 1048 l 426 1251 l 212 1251 l 399 1048 z "},"ǝ":{"ha":772,"x_min":0,"x_max":0,"o":"m 728 366 b 656 614 728 466 704 549 b 378 736 597 696 504 736 b 65 523 219 736 115 665 l 255 491 b 376 594 275 560 315 594 b 493 541 426 594 465 576 b 532 415 518 508 531 467 l 55 415 b 126 113 53 288 76 187 b 397 -16 184 27 275 -16 b 646 98 503 -16 586 22 b 728 366 700 168 728 257 z m 529 298 b 494 181 529 251 518 212 b 386 130 467 147 432 130 b 279 182 340 130 305 147 b 244 298 257 212 245 251 z "},"Ǟ":{"ha":1003,"x_min":0,"x_max":0,"o":"m 998 0 l 600 994 l 387 994 l 0 0 l 213 0 l 295 226 l 692 226 l 779 0 z m 628 393 l 357 393 l 491 762 z m 670 1167 l 670 1250 l 320 1250 l 320 1167 z m 673 1015 l 673 1118 l 578 1118 l 578 1015 z m 412 1015 l 412 1118 l 317 1118 l 317 1015 z "},"ǟ":{"ha":772,"x_min":0,"x_max":0,"o":"m 242 500 b 288 571 254 534 269 557 b 368 591 307 584 334 591 b 470 567 418 591 452 583 b 497 489 488 552 497 526 l 497 470 b 312 423 463 456 401 440 b 160 379 246 411 195 396 b 79 306 125 362 98 337 b 50 197 59 274 50 237 b 114 44 50 135 71 84 b 289 -16 156 4 215 -16 b 408 7 331 -16 371 -8 b 512 79 445 23 479 47 b 519 56 513 75 516 68 b 537 0 526 31 532 13 l 726 0 b 691 97 709 34 697 67 b 682 237 685 127 682 173 l 684 459 b 659 630 684 542 676 599 b 571 706 642 661 613 686 b 381 736 529 726 466 736 b 170 686 288 736 217 720 b 69 532 122 653 89 601 z m 497 346 l 497 308 b 490 215 497 262 495 231 b 444 152 482 190 467 169 b 346 118 413 129 380 118 b 270 147 315 118 290 128 b 240 216 250 167 240 190 b 277 283 240 243 253 266 b 381 317 294 294 328 305 b 497 346 434 328 473 338 z m 154 848 l 317 848 l 317 1011 l 154 1011 z m 446 848 l 610 848 l 610 1011 l 446 1011 z m 163 1078 l 600 1078 l 600 1204 l 163 1204 z "},"Ǡ":{"ha":1003,"x_min":0,"x_max":0,"o":"m 998 0 l 600 994 l 387 994 l 0 0 l 213 0 l 295 226 l 692 226 l 779 0 z m 628 393 l 357 393 l 491 762 z m 677 1167 l 677 1250 l 327 1250 l 327 1167 z m 549 1035 l 549 1138 l 454 1138 l 454 1035 z "},"ǡ":{"ha":772,"x_min":0,"x_max":0,"o":"m 242 500 b 288 571 254 534 269 557 b 368 591 307 584 334 591 b 470 567 418 591 452 583 b 497 489 488 552 497 526 l 497 470 b 312 423 463 456 401 440 b 160 379 246 411 195 396 b 79 306 125 362 98 337 b 50 197 59 274 50 237 b 114 44 50 135 71 84 b 289 -16 156 4 215 -16 b 408 7 331 -16 371 -8 b 512 79 445 23 479 47 b 519 56 513 75 516 68 b 537 0 526 31 532 13 l 726 0 b 691 97 709 34 697 67 b 682 237 685 127 682 173 l 684 459 b 659 630 684 542 676 599 b 571 706 642 661 613 686 b 381 736 529 726 466 736 b 170 686 288 736 217 720 b 69 532 122 653 89 601 z m 497 346 l 497 308 b 490 215 497 262 495 231 b 444 152 482 190 467 169 b 346 118 413 129 380 118 b 270 147 315 118 290 128 b 240 216 250 167 240 190 b 277 283 240 243 253 266 b 381 317 294 294 328 305 b 497 346 434 328 473 338 z m 290 831 l 477 831 l 477 1011 l 290 1011 z m 163 1078 l 600 1078 l 600 1204 l 163 1204 z "},"Ǣ":{"ha":1389,"x_min":0,"x_max":0,"o":"m -58 0 l 164 0 l 266 234 l 610 234 l 610 0 l 1322 0 l 1322 168 l 811 168 l 811 437 l 1265 437 l 1265 605 l 811 605 l 811 826 l 1303 826 l 1303 994 l 406 994 z m 340 408 l 534 844 l 612 844 l 612 408 z m 650 1084 l 1087 1084 l 1087 1209 l 650 1209 z "},"ǣ":{"ha":1235,"x_min":0,"x_max":0,"o":"m 974 230 b 922 154 962 196 945 170 b 840 129 900 137 872 129 b 742 170 801 129 769 143 b 690 304 715 198 698 242 l 1169 304 b 1127 556 1170 412 1155 496 b 1009 691 1098 615 1059 660 b 825 736 959 721 898 736 b 720 720 788 736 753 731 b 629 670 687 709 657 692 b 535 720 603 692 572 709 b 409 736 498 731 456 736 b 187 687 309 736 235 720 b 80 534 138 655 103 603 l 253 500 b 298 569 262 531 277 554 b 385 591 320 583 348 591 b 475 565 426 591 456 582 b 503 487 494 548 503 522 l 503 468 b 389 438 472 458 433 448 b 227 401 299 420 245 407 b 137 360 189 390 159 376 b 82 293 116 344 98 321 b 60 195 67 264 60 232 b 124 44 60 134 81 84 b 304 -16 167 4 227 -16 b 461 13 358 -16 410 -7 b 585 83 512 32 553 55 b 702 8 620 50 659 25 b 842 -16 745 -8 792 -16 b 1043 37 924 -16 991 1 b 1160 197 1095 72 1135 126 z m 981 423 l 694 423 b 715 516 692 452 700 483 b 763 572 727 541 743 560 b 833 591 783 584 807 591 b 914 569 864 591 891 583 b 965 509 937 555 954 535 b 981 423 973 492 979 463 z m 502 345 b 493 209 502 278 499 233 b 451 150 487 185 473 166 b 357 118 422 129 390 118 b 280 146 325 118 299 127 b 250 213 260 164 250 187 b 268 262 250 232 256 248 b 332 298 280 276 301 288 b 502 345 341 302 397 317 z m 399 839 l 836 839 l 836 964 l 399 964 z "},"Ǥ":{"ha":1080,"x_min":0,"x_max":0,"o":"m 1072 239 l 1072 332 l 996 332 l 996 581 l 564 581 l 564 413 l 793 413 l 793 332 l 564 332 l 564 239 l 793 239 b 558 155 721 183 642 155 b 337 262 460 155 387 191 b 273 509 295 324 273 406 b 340 744 273 608 296 687 b 560 840 390 808 463 840 b 784 682 679 840 754 787 l 983 719 b 560 1011 941 914 800 1011 b 200 872 409 1011 289 965 b 66 500 111 779 66 656 b 199 127 66 345 111 221 b 571 -17 290 31 414 -17 b 798 23 644 -17 719 -4 b 996 137 882 52 948 90 l 996 239 z "},"ǥ":{"ha":848,"x_min":0,"x_max":0,"o":"m 822 -62 l 822 0 l 757 0 b 760 74 759 24 760 49 l 760 720 l 581 720 l 581 619 b 361 736 523 697 450 736 b 129 629 260 736 183 701 b 57 378 81 564 57 481 b 129 138 57 281 81 201 b 353 34 182 69 257 34 b 569 151 440 34 512 73 l 569 0 l 24 0 l 24 -62 l 562 -62 b 410 -146 547 -118 497 -146 b 300 -101 342 -146 305 -131 l 81 -101 b 418 -292 81 -229 194 -292 b 651 -239 522 -292 600 -275 b 749 -62 702 -204 735 -145 z m 572 384 b 535 247 572 326 560 281 b 406 188 506 208 463 188 b 252 389 304 188 252 255 b 410 591 252 523 305 591 b 572 384 518 591 572 522 z "},"Ǧ":{"ha":1080,"x_min":0,"x_max":0,"o":"m 564 366 l 793 366 l 793 239 b 685 179 763 216 727 196 b 558 155 642 163 600 155 b 352 243 473 155 404 184 b 273 509 300 302 273 391 b 351 756 273 618 299 701 b 560 840 403 812 472 840 b 705 797 618 840 666 825 b 784 682 744 769 770 730 l 983 719 b 849 933 963 810 919 882 b 560 1011 780 985 684 1011 b 322 962 465 1011 386 995 b 132 777 238 919 175 857 b 66 500 88 696 66 604 b 125 236 66 405 86 317 b 299 48 164 155 222 92 b 571 -17 376 5 467 -17 b 813 30 653 -17 734 -1 b 996 137 893 60 954 96 l 996 533 l 564 533 z m 330 1284 l 472 1084 l 648 1084 l 789 1284 l 635 1284 l 557 1183 l 484 1284 z "},"ǧ":{"ha":848,"x_min":0,"x_max":0,"o":"m 82 -47 b 81 -71 82 -57 81 -64 b 158 -230 81 -135 107 -188 b 418 -292 209 -271 296 -292 b 578 -272 482 -292 536 -286 b 680 -216 620 -258 654 -240 b 739 -117 705 -192 725 -159 b 760 74 753 -75 760 -11 l 760 720 l 581 720 l 581 619 b 361 736 523 697 450 736 b 144 641 274 736 202 705 b 57 364 86 577 57 485 b 123 123 57 268 79 187 b 353 0 180 41 257 0 b 569 117 440 0 512 39 l 569 12 b 560 -76 569 -31 566 -60 b 522 -124 552 -98 539 -114 b 410 -146 497 -139 460 -146 b 325 -126 371 -146 343 -140 b 300 -74 312 -117 303 -99 z m 252 375 b 297 537 252 448 267 502 b 410 591 326 573 364 591 b 526 536 457 591 496 573 b 572 370 557 500 572 445 b 524 209 572 299 556 245 b 406 154 492 172 453 154 b 297 207 363 154 326 172 b 252 375 267 243 252 299 z m 151 1011 l 294 811 l 470 811 l 610 1011 l 457 1011 l 378 910 l 305 1011 z "},"Ǩ":{"ha":1003,"x_min":0,"x_max":0,"o":"m 104 0 l 304 0 l 304 300 l 467 467 l 741 0 l 1000 0 l 606 607 l 980 994 l 710 994 l 304 553 l 304 994 l 104 994 z m 239 1284 l 382 1084 l 558 1084 l 699 1284 l 545 1284 l 467 1183 l 393 1284 z "},"ǩ":{"ha":772,"x_min":0,"x_max":0,"o":"m 93 0 l 283 0 l 283 231 l 372 323 l 553 0 l 759 0 l 495 457 l 741 720 l 507 720 l 283 467 l 283 994 l 93 994 z m 117 1284 l 260 1084 l 436 1084 l 576 1284 l 423 1284 l 345 1183 l 271 1284 z "},"Ǫ":{"ha":1080,"x_min":0,"x_max":0,"o":"m 60 491 b 191 118 60 333 104 209 b 544 -17 279 28 396 -17 b 894 119 690 -17 807 28 b 1025 496 981 210 1025 335 b 893 875 1025 658 981 784 b 541 1011 805 966 688 1011 b 327 972 460 1011 389 998 b 198 882 280 952 237 923 b 106 746 159 842 128 797 b 60 491 76 677 60 592 z m 267 498 b 343 754 267 612 293 698 b 543 840 394 811 460 840 b 742 755 626 840 692 812 b 817 500 792 699 817 614 b 740 241 817 385 792 299 b 543 155 689 183 623 155 b 345 242 463 155 397 184 b 267 498 293 300 267 385 z m 667 0 l 553 0 b 490 -75 527 -22 505 -47 b 466 -157 474 -104 466 -131 b 475 -207 466 -175 469 -192 b 503 -248 481 -223 490 -236 b 549 -276 515 -260 531 -269 b 615 -286 568 -283 590 -286 b 718 -259 645 -286 680 -277 l 718 -146 b 689 -154 708 -149 699 -151 b 661 -159 679 -157 669 -159 b 622 -143 643 -159 629 -154 b 610 -106 614 -133 610 -121 b 614 -78 610 -97 611 -87 b 625 -49 616 -68 620 -58 b 643 -22 630 -39 636 -30 b 667 0 650 -14 658 -6 z "},"ǫ":{"ha":848,"x_min":0,"x_max":0,"o":"m 56 370 b 102 160 56 288 71 217 b 239 28 134 102 179 58 b 428 -16 299 -1 362 -16 b 693 91 535 -16 623 20 b 799 362 764 163 799 253 b 694 630 799 470 764 560 b 427 736 625 701 536 736 b 235 690 356 736 292 721 b 102 554 178 659 134 613 b 56 370 71 495 56 434 z m 251 360 b 302 524 251 432 268 486 b 427 581 336 562 378 581 b 552 524 477 581 519 562 b 603 361 586 486 603 432 b 552 196 603 289 586 234 b 427 139 519 158 477 139 b 302 196 378 139 336 158 b 251 360 268 234 251 289 z m 531 0 l 418 0 b 354 -75 391 -22 370 -47 b 330 -157 338 -104 330 -131 b 339 -207 330 -175 333 -192 b 367 -248 346 -223 355 -236 b 414 -276 380 -260 395 -269 b 479 -286 432 -283 454 -286 b 582 -259 510 -286 544 -277 l 582 -146 b 553 -154 573 -149 563 -151 b 526 -159 543 -157 534 -159 b 486 -143 507 -159 494 -154 b 474 -106 478 -133 474 -121 b 478 -78 474 -97 475 -87 b 490 -49 481 -68 485 -58 b 508 -22 495 -39 501 -30 b 531 0 515 -14 522 -6 z "},"Ǭ":{"ha":1080,"x_min":0,"x_max":0,"o":"m 60 491 b 191 118 60 333 104 209 b 544 -17 279 28 396 -17 b 894 119 690 -17 807 28 b 1025 496 981 210 1025 335 b 893 875 1025 658 981 784 b 541 1011 805 966 688 1011 b 327 972 460 1011 389 998 b 198 882 280 952 237 923 b 106 746 159 842 128 797 b 60 491 76 677 60 592 z m 267 498 b 343 754 267 612 293 698 b 543 840 394 811 460 840 b 742 755 626 840 692 812 b 817 500 792 699 817 614 b 740 241 817 385 792 299 b 543 155 689 183 623 155 b 345 242 463 155 397 184 b 267 498 293 300 267 385 z m 667 0 l 553 0 b 490 -75 527 -22 505 -47 b 466 -157 474 -104 466 -131 b 475 -207 466 -175 469 -192 b 503 -248 481 -223 490 -236 b 549 -276 515 -260 531 -269 b 615 -286 568 -283 590 -286 b 718 -259 645 -286 680 -277 l 718 -146 b 689 -154 708 -149 699 -151 b 661 -159 679 -157 669 -159 b 622 -143 643 -159 629 -154 b 610 -106 614 -133 610 -121 b 614 -78 610 -97 611 -87 b 625 -49 616 -68 620 -58 b 643 -22 630 -39 636 -30 b 667 0 650 -14 658 -6 z m 325 1112 l 762 1112 l 762 1237 l 325 1237 z "}}}
